<svg width="57" height="76" viewBox="0 0 57 76" fill="none" xmlns="http://www.w3.org/2000/svg">
<path d="M4.20291 17.0071C4.20858 17.0014 4.21427 16.9957 4.21997 16.99L17.22 4.16016C17.7083 3.68142 18.2769 3.29202 18.8999 3.01001C19.6416 2.6749 20.4461 2.50106 21.26 2.5H42.55C45.4674 2.5 48.2652 3.65902 50.3281 5.72192C52.391 7.78482 53.55 10.5826 53.55 13.5V26.4402L53.6001 61.77C53.6005 62.8995 53.4285 64.0225 53.0901 65.1001C52.3791 67.3164 50.9833 69.2502 49.1038 70.623C47.2242 71.9959 44.9577 72.737 42.6301 72.74H13.5C10.5826 72.74 7.78482 71.5812 5.72192 69.5183C3.65902 67.4554 2.5 64.6574 2.5 61.74V21.0901C2.50675 20.2571 2.6907 19.4437 3.03071 18.7002M4.20291 17.0071C3.71074 17.5024 3.31585 18.0767 3.03071 18.7002M4.20291 17.0071L4.19995 17.01C3.70562 17.4956 3.3056 18.0688 3.02002 18.7002H3.03071M4.20291 17.0071L17.2 4.18018C17.6981 3.70208 18.277 3.31597 18.9099 3.04004V11.3401C18.9099 13.2921 18.1347 15.1642 16.7544 16.5444C15.3741 17.9247 13.502 18.7002 11.55 18.7002H3.03071M28.75 32.0001V39.7301M28.75 39.7301V47.4501M28.75 39.7301H36.47M28.75 39.7301H21.02" stroke="#E95322" stroke-width="5" stroke-linecap="round" stroke-linejoin="round"/>
</svg>
