<svg width="76" height="74" viewBox="0 0 76 74" fill="none" xmlns="http://www.w3.org/2000/svg">
<path d="M50.2222 36.7656H28.1622M36.9224 27.1455L30.5322 31.9956C29.7965 32.5554 29.2001 33.2777 28.7896 34.106C28.379 34.9342 28.1655 35.846 28.1655 36.7705C28.1655 37.695 28.379 38.607 28.7896 39.4353C29.2001 40.2636 29.7965 40.9859 30.5322 41.5457L36.9224 46.3955M37.6321 2.53563C37.6321 2.53563 13.4622 0.755442 4.98223 23.0954C1.67259 31.9117 1.67259 41.6292 4.98223 50.4455C13.4622 72.7855 37.6321 71.0056 37.6321 71.0056C37.6321 71.0056 61.802 72.7855 70.282 50.4455C73.5917 41.6292 73.5917 31.9117 70.282 23.0954C61.762 0.715443 37.6321 2.53563 37.6321 2.53563Z" stroke="#E95322" stroke-width="5" stroke-linecap="round" stroke-linejoin="round"/>
</svg>
