<svg width="54" height="37" viewBox="0 0 54 37" fill="none" xmlns="http://www.w3.org/2000/svg">
<path d="M50.9233 18.3376H23.7534V6.26757C23.753 5.56573 23.5567 4.87803 23.1865 4.28173C22.8164 3.68544 22.287 3.20437 21.6582 2.89257C21.0294 2.58078 20.3261 2.45056 19.6274 2.51684C18.9287 2.58312 18.2621 2.84311 17.7031 3.26757L5.31348 12.6777C4.43926 13.3398 3.73032 14.1952 3.24219 15.1772C2.75406 16.1592 2.5 17.241 2.5 18.3376C2.5 19.4343 2.75406 20.516 3.24219 21.498C3.73032 22.48 4.43926 23.3355 5.31348 23.9976L17.7031 33.4077C18.2621 33.8322 18.9287 34.0922 19.6274 34.1584C20.3261 34.2247 21.0294 34.0945 21.6582 33.7827C22.287 33.4709 22.8164 32.9898 23.1865 32.3935C23.5567 31.7973 23.753 31.1096 23.7534 30.4077V27.8376" stroke="#E95322" stroke-width="5" stroke-linecap="round" stroke-linejoin="round"/>
</svg>
