<svg width="85" height="83" viewBox="0 0 85 83" fill="none" xmlns="http://www.w3.org/2000/svg">
<path d="M24.2147 64.0175C21.8295 62.0891 20.3059 59.2938 19.9779 56.2441C19.6499 53.1944 20.5441 50.1391 22.4647 47.7475L22.2945 47.9575L44.1346 20.8276C46.0661 18.4469 48.8609 16.9267 51.909 16.5988C54.9571 16.271 58.0111 17.1621 60.4046 19.0776C62.7868 21.0077 64.3088 23.8017 64.6385 26.8498C64.9683 29.898 64.079 32.9528 62.1646 35.3476L44.6446 57.1575C43.4965 58.5617 41.8398 59.4548 40.0357 59.6422C38.2317 59.8295 36.4268 59.2958 35.0147 58.1575C33.6083 57.011 32.7134 55.354 32.526 53.5491C32.3385 51.7443 32.8739 49.9387 34.0147 48.5276L48.8045 30.1575C49.4455 29.3646 50.3744 28.8577 51.388 28.7471C52.4016 28.6366 53.4178 28.9316 54.2147 29.5677C55.0054 30.2102 55.5107 31.1386 55.6212 32.1514C55.7316 33.1643 55.4381 34.1797 54.8045 34.9776L45.5247 46.4976M42.3144 80.1676C42.3144 80.1676 69.7244 82.1678 79.3144 56.8578C83.0569 46.8633 83.0569 35.8522 79.3144 25.8578C69.6944 0.527773 42.3144 2.5377 42.3144 2.5377C42.3144 2.5377 14.9044 0.537773 5.31436 25.8578C1.56188 35.8504 1.56188 46.8651 5.31436 56.8578C14.9044 82.1878 42.3144 80.1676 42.3144 80.1676Z" stroke="#E95322" stroke-width="5" stroke-linecap="round" stroke-linejoin="round"/>
</svg>
