<svg width="49" height="54" viewBox="0 0 49 54" fill="none" xmlns="http://www.w3.org/2000/svg">
<path d="M46.29 2.65444L8.34999 50.5444M25.03 41.6545L25.47 42.0144C26.418 42.7759 27.5532 43.2688 28.7568 43.4417C29.9605 43.6145 31.1884 43.461 32.3124 42.9971C33.4364 42.5332 34.4153 41.7759 35.1466 40.8044C35.878 39.833 36.335 38.6828 36.47 37.4744C36.878 33.3707 37.0684 29.2484 37.04 25.1245M36.86 14.5546C36.74 12.2746 36.58 10.4746 36.38 8.55456C36.2497 7.34359 35.7956 6.19001 35.0654 5.2152C34.3352 4.24039 33.3559 3.4803 32.2305 3.01476C31.105 2.54922 29.8749 2.39553 28.6694 2.56969C27.464 2.74386 26.3277 3.23943 25.38 4.00451L13.09 14.0646C11.8753 15.054 10.3567 15.5944 8.79004 15.5946H4.31995C3.31995 15.5946 2.5 18.8945 2.5 22.9645V23.0946C2.5 27.1646 3.30995 30.4645 4.31995 30.4645H8.79993C10.3593 30.4615 11.8717 30.9986 13.08 31.9845L19.1899 36.9845" stroke="#E95322" stroke-width="5" stroke-linecap="round" stroke-linejoin="round"/>
</svg>
