<svg width="56" height="48" viewBox="0 0 56 48" fill="none" xmlns="http://www.w3.org/2000/svg">
<path d="M47.78 37.2207C49.5751 35.4306 50.9993 33.3039 51.9711 30.9624C52.9429 28.6209 53.4431 26.1108 53.4431 23.5757C53.4431 21.0406 52.9429 18.5304 51.9711 16.189C50.9993 13.8475 49.5751 11.7207 47.78 9.93066M26.46 43.4607C27.1992 44.0641 28.0856 44.46 29.0283 44.6079C29.971 44.7558 30.9361 44.6503 31.8246 44.3022C32.7131 43.9542 33.4931 43.3761 34.0845 42.6272C34.6759 41.8783 35.0573 40.9857 35.1899 40.0408C35.8504 34.5761 36.1644 29.0751 36.13 23.5708C36.1689 18.0763 35.8549 12.5848 35.1899 7.13061C35.0569 6.1847 34.6744 5.29139 34.0818 4.54223C33.4892 3.79307 32.7078 3.21511 31.8179 2.86791C30.928 2.52071 29.9617 2.41678 29.0183 2.56664C28.0749 2.71651 27.1884 3.11482 26.45 3.7207L13.8099 14.0708C11.9636 15.578 9.6534 16.4009 7.27002 16.4006H4.27002C3.27002 16.4006 2.5 19.6108 2.5 23.5708V23.7007C2.5 27.6507 3.29002 30.8606 4.27002 30.8606H7.27002C9.64052 30.8624 11.9386 31.6779 13.78 33.1706L26.46 43.4607Z" stroke="#E95322" stroke-width="5" stroke-linecap="round" stroke-linejoin="round"/>
</svg>
