<svg width="76" height="74" viewBox="0 0 76 74" fill="none" xmlns="http://www.w3.org/2000/svg">
<path d="M42.9604 22.5237L33.4004 29.8438C32.2429 30.7328 31.3054 31.8759 30.6602 33.1851C30.0149 34.4942 29.6792 35.9343 29.6792 37.3938C29.6792 38.8533 30.0149 40.2932 30.6602 41.6023C31.3054 42.9114 32.2429 44.0546 33.4004 44.9436L42.9604 52.2537M37.6407 2.53363C37.6407 2.53363 13.4703 0.753685 4.99026 23.0937C1.66991 31.9115 1.66991 41.6358 4.99026 50.4535C13.4703 72.7835 37.6407 71.0136 37.6407 71.0136C37.6407 71.0136 61.8006 72.7835 70.2906 50.4535C73.6009 41.6339 73.6009 31.9133 70.2906 23.0937C61.8006 0.793686 37.6407 2.53363 37.6407 2.53363Z" stroke="#E95322" stroke-width="5" stroke-linecap="round" stroke-linejoin="round"/>
</svg>
