<svg width="53" height="61" viewBox="0 0 53 61" fill="none" xmlns="http://www.w3.org/2000/svg">
<path d="M38.6849 9.23501L50.4249 20.975M50.3649 9.17501L38.6249 20.915M42.7949 37.2949C42.2498 36.8324 41.6312 36.4642 40.9648 36.2051C37.2548 34.8351 34.2049 37.8251 30.7549 37.2051C27.0649 36.5151 23.9648 32.8351 22.2248 29.7451C21.2176 28.1301 20.8602 26.1931 21.2248 24.325C22.3448 19.895 25.7948 18.0351 24.4648 12.9751C23.4648 9.2751 19.5749 3.81493 15.6949 2.80493C8.75494 0.994935 5.04493 7.63497 3.56493 13.345C-1.64507 33.345 12.9248 54.615 33.3548 57.345C39.3548 58.145 48.4849 57.495 48.9949 49.645C49.2849 45.155 46.6649 40.9451 43.5249 38.0051C43.3149 37.7351 43.0549 37.5049 42.7949 37.2949Z" stroke="#E95322" stroke-width="5" stroke-linecap="round" stroke-linejoin="round"/>
</svg>
