<svg width="88" height="80" viewBox="0 0 88 80" fill="none" xmlns="http://www.w3.org/2000/svg">
<path d="M3.10311 57.1275H26.5692M60.6386 57.1275H84.0918M71.242 26.8065H67.455M14.0274 17.5638V9.38663M83.4756 31.3379L83.373 31.2481C82.5915 28.2255 81.1907 25.3983 79.2594 22.9454C77.3281 20.4926 74.9083 18.4677 72.1535 16.999C69.184 15.501 66.0407 14.3756 62.7952 13.6485L62.6412 12.5959C62.5965 11.3365 62.3494 10.0926 61.9094 8.91168C61.4594 7.76551 60.768 6.72968 59.882 5.87464C58.9959 5.01961 57.9361 4.36542 56.7746 3.95657C52.8276 2.63682 48.6738 2.04528 44.5153 2.21076H42.8208C38.6623 2.04528 34.5085 2.63682 30.5615 3.95657C29.3988 4.36316 28.3378 5.01654 27.4515 5.87186C26.5651 6.72718 25.8744 7.7642 25.4267 8.91168C24.9986 10.0287 24.7557 11.2081 24.7078 12.4033L24.374 13.687C21.1834 14.4151 18.0929 15.5272 15.17 16.999C12.417 18.4702 9.99863 20.4959 8.0676 22.9484C6.13657 25.4008 4.73477 28.2268 3.95042 31.2481L3.86047 31.3379C2.61095 35.853 2.06111 40.533 2.23015 45.2147C2.00545 50.1471 2.59528 55.0828 3.97596 59.8233C7.12103 71.4664 20.0223 75.7411 33.0518 77.0505H33.4113L34.7976 77.1789L35.8632 77.2559H36.5179L37.7245 77.3329H38.1097L40.3562 77.4228H47.1084L49.3549 77.3329H49.7271L51.0108 77.2559H51.6655L52.7182 77.1789L54.1045 77.0505H54.464C67.5064 75.7668 80.4077 71.4664 83.5399 59.8233C84.9249 55.0835 85.5191 50.1478 85.2985 45.2147C85.399 40.5234 84.7842 35.8442 83.4756 31.3379ZM43.6039 64.9452C43.6039 64.9452 57.9043 65.9979 62.8594 52.7757C64.8229 47.5585 64.8229 41.8054 62.8594 36.5882C57.8402 23.3661 43.6039 24.4188 43.6039 24.4188C43.6039 24.4188 29.3035 23.3661 24.3484 36.5882C22.3849 41.8054 22.3849 47.5585 24.3484 52.7757C29.3035 65.9979 43.6039 64.9452 43.6039 64.9452ZM43.604 52.0697C43.604 52.0697 48.8158 52.4548 50.6515 47.6409C51.3574 45.7359 51.3574 43.641 50.6515 41.7359C48.8158 36.9092 43.604 37.2943 43.604 37.2943C43.604 37.2943 38.392 36.9092 36.5563 41.7359C35.8377 43.6387 35.8377 45.7382 36.5563 47.6409C38.392 52.4548 43.604 52.0697 43.604 52.0697Z" stroke="#E95322" stroke-width="4.36703" stroke-linecap="round" stroke-linejoin="round"/>
</svg>
