<svg width="75" height="53" viewBox="0 0 75 53" fill="none" xmlns="http://www.w3.org/2000/svg">
<path d="M2.5 38.1201V39.27C2.50265 42.0822 3.62161 44.7785 5.61108 46.7661C7.60056 48.7537 10.2979 49.8701 13.1101 49.8701H61.1101C63.9223 49.8701 66.6194 48.7537 68.6089 46.7661C70.5984 44.7785 71.7173 42.0822 71.72 39.27V13.1101C71.72 11.7168 71.4456 10.3371 70.9124 9.0498C70.3792 7.76254 69.5975 6.5929 68.6123 5.60767C67.6271 4.62244 66.4574 3.84082 65.1702 3.30762C63.8829 2.77441 62.5034 2.5 61.1101 2.5H13.1101C11.7168 2.5 10.3371 2.77441 9.0498 3.30762C7.76254 3.84082 6.5929 4.62244 5.60767 5.60767C4.62244 6.5929 3.84082 7.76254 3.30762 9.0498C2.77441 10.3371 2.5 11.7168 2.5 13.1101V37.99M2.52 13.9301H71.69M12.23 26.7601H17.97M12.23 36.6901H26.11M44.19 36.6901H49.88M57.02 36.6901H62.71" stroke="#E95322" stroke-width="5" stroke-linecap="round" stroke-linejoin="round"/>
</svg>
