<svg width="61" height="63" viewBox="0 0 61 63" fill="none" xmlns="http://www.w3.org/2000/svg">
<path d="M15.2798 37.3499C15.5671 38.5954 16.2793 39.7021 17.2939 40.4795C18.3086 41.257 19.5624 41.6566 20.8398 41.6099H49.5098C50.7859 41.6561 52.0383 41.2561 53.0513 40.4786C54.0643 39.701 54.7748 38.5946 55.0601 37.3499L57.5601 20.18C57.7291 19.3066 57.7016 18.4065 57.48 17.545C57.2584 16.6834 56.8478 15.8819 56.2783 15.1985C55.7088 14.5151 54.9945 13.9669 54.187 13.5936C53.3796 13.2202 52.4994 13.0313 51.6099 13.0401H11.4697M15.2798 37.3499L11.4697 13.0401M15.2798 37.3499C15.2798 37.3499 16.4599 50.2898 29.3799 50.8298H52.52M11.4697 13.0401L10.3496 5.90991C10.1724 4.95383 9.66677 4.08972 8.91992 3.46704C8.17308 2.84437 7.23213 2.50237 6.25977 2.5H2.5M26.9998 55.5999C26.9998 58.2399 24.8597 60.3799 22.2198 60.3799C19.5799 60.3799 17.4398 58.2399 17.4398 55.5999C17.4398 52.96 19.5799 50.8199 22.2198 50.8199C24.8597 50.8199 26.9998 52.96 26.9998 55.5999ZM57.2998 55.5999C57.2998 58.2399 55.1597 60.3799 52.5198 60.3799C49.8799 60.3799 47.7398 58.2399 47.7398 55.5999C47.7398 52.96 49.8799 50.8199 52.5198 50.8199C55.1597 50.8199 57.2998 52.96 57.2998 55.5999Z" stroke="#E95322" stroke-width="5" stroke-linecap="round" stroke-linejoin="round"/>
</svg>
