<svg width="74" height="76" viewBox="0 0 74 76" fill="none" xmlns="http://www.w3.org/2000/svg">
<path d="M36.7731 50.2127L36.7731 28.1627M46.3931 36.9226L41.5532 30.5325C40.9934 29.7967 40.2712 29.2004 39.4429 28.7898C38.6146 28.3792 37.7025 28.1658 36.7781 28.1658C35.8536 28.1658 34.9418 28.3792 34.1135 28.7898C33.2852 29.2004 32.5629 29.7967 32.0032 30.5325L27.1531 36.9226M71.0131 37.6327C71.0131 37.6327 72.7931 13.4628 50.4531 4.98283C41.6335 1.67251 31.9126 1.67251 23.093 4.98283C0.762964 13.4628 2.53315 37.6327 2.53315 37.6327C2.53315 37.6327 0.762966 61.8026 23.093 70.2826C31.9126 73.593 41.6335 73.593 50.4531 70.2826C72.7931 61.8026 71.0131 37.6327 71.0131 37.6327Z" stroke="#E95322" stroke-width="5" stroke-linecap="round" stroke-linejoin="round"/>
</svg>
