<svg width="81" height="68" viewBox="0 0 81 68" fill="none" xmlns="http://www.w3.org/2000/svg">
<path d="M60.35 50.2C62.12 50.09 63.89 49.96 65.65 49.81C72.54 49.22 78.2 45.64 78.2 38.07C78.2 34.7521 76.882 31.5701 74.5359 29.2241C72.1898 26.878 69.0079 25.56 65.69 25.56H65C65.4589 24.1076 65.6917 22.5932 65.69 21.07C65.69 17.0918 64.1096 13.2765 61.2966 10.4634C58.4836 7.65039 54.6683 6.07 50.69 6.07C48.4002 6.07301 46.1418 6.60344 44.09 7.62005C42.5422 5.99668 40.6799 4.7055 38.6169 3.82525C36.5538 2.945 34.333 2.49412 32.09 2.50006C28.2572 2.50522 24.5445 3.83809 21.5836 6.27203C18.6228 8.70598 16.5967 12.0906 15.85 15.85C12.0881 16.5953 8.70109 18.6223 6.26663 21.5856C3.83217 24.5489 2.50095 28.265 2.5 32.1C2.5 44.75 9.98999 52.5 24.89 49.73M47.37 45.5499V65.1799M53.98 58.8399L50.31 63.67C49.9658 64.1238 49.5213 64.4917 49.0113 64.745C48.5012 64.9983 47.9395 65.13 47.37 65.13C46.8005 65.13 46.2387 64.9983 45.7287 64.745C45.2186 64.4917 44.7741 64.1238 44.43 63.67L40.7699 58.8399M32.09 56.4199V36.4999M25.45 43.0799L29.45 37.7799C29.7533 37.3819 30.1443 37.0593 30.5927 36.8373C31.0411 36.6152 31.5346 36.4999 32.035 36.4999C32.5353 36.4999 33.029 36.6152 33.4773 36.8373C33.9257 37.0593 34.3168 37.3819 34.62 37.7799L38.62 43.0799" stroke="#E95322" stroke-width="5" stroke-linecap="round" stroke-linejoin="round"/>
</svg>
