<svg width="81" height="70" viewBox="0 0 81 70" fill="none" xmlns="http://www.w3.org/2000/svg">
<path d="M4.26825 43.33H76.2979M36.4007 57.82V66.95M44.1307 57.82V66.95M26.4507 66.95H54.0707M38.5909 2.5C30.3709 2.5 21.4408 3.29999 14.2908 6.73999C5.1008 11.16 2.84083 20.3099 2.57083 28.1599C2.29083 36.2299 2.4708 46.4199 11.2908 51.8499C19.1708 56.6999 30.2907 57.7999 39.9507 57.8499C54.7707 57.8499 73.8207 55.4 76.7107 41.78C78.4607 33.52 79.3807 20.3199 73.4407 12.9199C68.1407 6.31992 57.5007 3.72992 48.1607 2.91992C45.2307 2.66992 42.0109 2.5 38.5909 2.5Z" stroke="#E95322" stroke-width="5" stroke-linecap="round" stroke-linejoin="round"/>
</svg>
