<svg width="252" height="24" viewBox="0 0 252 24" fill="none" xmlns="http://www.w3.org/2000/svg">
<path d="M3.90624 15.0924C3.19009 15.0924 2.53609 14.9178 1.94424 14.5686C1.35238 14.2134 0.878895 13.74 0.523782 13.1481C0.174586 12.5562 -1.11312e-05 11.9022 -1.11312e-05 11.1861C-1.11312e-05 10.464 0.174586 9.81004 0.523782 9.2241C0.878895 8.63224 1.35238 8.16172 1.94424 7.81252C2.53609 7.45741 3.19009 7.27985 3.90624 7.27985C4.6283 7.27985 5.2823 7.45741 5.86824 7.81252C6.4601 8.16172 6.93062 8.63224 7.27982 9.2241C7.63493 9.81004 7.81249 10.464 7.81249 11.1861C7.81249 11.9022 7.63493 12.5562 7.27982 13.1481C6.93062 13.74 6.4601 14.2134 5.86824 14.5686C5.2823 14.9178 4.6283 15.0924 3.90624 15.0924ZM40.2799 6.61401H36.3914C36.3203 6.11094 36.1753 5.66408 35.9564 5.27346C35.7374 4.87692 35.4562 4.53956 35.113 4.26139C34.7697 3.98321 34.3731 3.77014 33.9233 3.62218C33.4794 3.47422 32.9971 3.40024 32.4762 3.40024C31.5352 3.40024 30.7155 3.63402 30.0171 4.10158C29.3187 4.56323 28.7771 5.23795 28.3924 6.12573C28.0077 7.0076 27.8154 8.07886 27.8154 9.33951C27.8154 10.6357 28.0077 11.7247 28.3924 12.6066C28.7831 13.4884 29.3276 14.1543 30.026 14.6041C30.7243 15.0539 31.5322 15.2788 32.4496 15.2788C32.9645 15.2788 33.441 15.2107 33.8789 15.0746C34.3228 14.9385 34.7164 14.7402 35.0597 14.4798C35.403 14.2134 35.6871 13.8909 35.912 13.5121C36.1428 13.1333 36.3026 12.7013 36.3914 12.2159L40.2799 12.2337C40.1792 13.0682 39.9277 13.8731 39.5252 14.6485C39.1287 15.4179 38.5931 16.1074 37.9184 16.717C37.2496 17.3207 36.4506 17.8001 35.5213 18.1552C34.598 18.5044 33.5534 18.679 32.3875 18.679C30.7658 18.679 29.3157 18.312 28.0373 17.5781C26.7648 16.8442 25.7587 15.7819 25.0189 14.391C24.285 13.0001 23.918 11.3163 23.918 9.33951C23.918 7.35679 24.2909 5.67 25.0366 4.27914C25.7823 2.88828 26.7944 1.82886 28.0728 1.10087C29.3512 0.366973 30.7895 2.15173e-05 32.3875 2.15173e-05C33.441 2.15173e-05 34.4175 0.147986 35.3172 0.443914C36.2227 0.739842 37.0247 1.1719 37.723 1.74008C38.4214 2.30234 38.9896 2.99185 39.4276 3.80862C39.8715 4.62538 40.1556 5.56051 40.2799 6.61401ZM49.1266 18.6968C47.7476 18.6968 46.555 18.4038 45.5489 17.8178C44.5486 17.226 43.7763 16.4033 43.2317 15.3498C42.6872 14.2904 42.415 13.0623 42.415 11.6655C42.415 10.2569 42.6872 9.02583 43.2317 7.97232C43.7763 6.9129 44.5486 6.09022 45.5489 5.50428C46.555 4.91243 47.7476 4.6165 49.1266 4.6165C50.5057 4.6165 51.6953 4.91243 52.6955 5.50428C53.7017 6.09022 54.477 6.9129 55.0215 7.97232C55.566 9.02583 55.8383 10.2569 55.8383 11.6655C55.8383 13.0623 55.566 14.2904 55.0215 15.3498C54.477 16.4033 53.7017 17.226 52.6955 17.8178C51.6953 18.4038 50.5057 18.6968 49.1266 18.6968ZM49.1444 15.7671C49.7718 15.7671 50.2955 15.5895 50.7158 15.2344C51.136 14.8734 51.4526 14.3821 51.6657 13.7607C51.8847 13.1392 51.9942 12.432 51.9942 11.6389C51.9942 10.8458 51.8847 10.1385 51.6657 9.51707C51.4526 8.89562 51.136 8.40438 50.7158 8.04335C50.2955 7.68231 49.7718 7.5018 49.1444 7.5018C48.5111 7.5018 47.9784 7.68231 47.5464 8.04335C47.1202 8.40438 46.7977 8.89562 46.5787 9.51707C46.3656 10.1385 46.2591 10.8458 46.2591 11.6389C46.2591 12.432 46.3656 13.1392 46.5787 13.7607C46.7977 14.3821 47.1202 14.8734 47.5464 15.2344C47.9784 15.5895 48.5111 15.7671 49.1444 15.7671ZM58.2974 18.4304V4.79406H61.9018V7.19995H62.0616C62.3457 6.40095 62.8192 5.77062 63.4821 5.30897C64.145 4.84732 64.9381 4.6165 65.8614 4.6165C66.7965 4.6165 67.5925 4.85028 68.2495 5.31785C68.9065 5.7795 69.3444 6.40686 69.5634 7.19995H69.7055C69.9836 6.4187 70.4867 5.79429 71.2147 5.32673C71.9486 4.85324 72.8157 4.6165 73.8159 4.6165C75.0884 4.6165 76.1212 5.02192 76.9143 5.83276C77.7133 6.63769 78.1128 7.77997 78.1128 9.25961V18.4304H74.3397V10.0053C74.3397 9.24777 74.1385 8.67959 73.736 8.3008C73.3335 7.92202 72.8305 7.73262 72.2268 7.73262C71.5402 7.73262 71.0046 7.95161 70.6199 8.38958C70.2352 8.82164 70.0428 9.39278 70.0428 10.103V18.4304H66.3763V9.92545C66.3763 9.25665 66.1839 8.72398 65.7992 8.32744C65.4204 7.93089 64.9203 7.73262 64.2989 7.73262C63.8786 7.73262 63.4999 7.83916 63.1625 8.05222C62.8311 8.25937 62.5677 8.55234 62.3724 8.93113C62.1771 9.304 62.0794 9.74197 62.0794 10.2451V18.4304H58.2974ZM81.1002 23.5441V4.79406H84.8289V7.08454H84.9975C85.1633 6.71759 85.403 6.34472 85.7167 5.96593C86.0363 5.58122 86.4506 5.26162 86.9596 5.00712C87.4745 4.74671 88.1137 4.6165 88.8772 4.6165C89.8715 4.6165 90.7889 4.87692 91.6293 5.39775C92.4697 5.91266 93.1415 6.69095 93.6446 7.73262C94.1476 8.76837 94.3992 10.0675 94.3992 11.63C94.3992 13.1511 94.1536 14.4354 93.6623 15.483C93.177 16.5246 92.5141 17.3148 91.6737 17.8534C90.8392 18.386 89.904 18.6524 88.8683 18.6524C88.1344 18.6524 87.51 18.531 86.9951 18.2884C86.4861 18.0457 86.0688 17.7409 85.7433 17.374C85.4178 17.0011 85.1692 16.6253 84.9975 16.2465H84.8821V23.5441H81.1002ZM84.8022 11.6122C84.8022 12.4231 84.9147 13.1303 85.1396 13.734C85.3645 14.3377 85.69 14.8083 86.1162 15.1456C86.5423 15.4771 87.0602 15.6428 87.6698 15.6428C88.2853 15.6428 88.8061 15.4741 89.2323 15.1367C89.6584 14.7935 89.981 14.32 90.2 13.7163C90.4249 13.1067 90.5373 12.4053 90.5373 11.6122C90.5373 10.8251 90.4278 10.1326 90.2088 9.53482C89.9899 8.93705 89.6673 8.46948 89.2412 8.13212C88.815 7.79477 88.2912 7.62609 87.6698 7.62609C87.0542 7.62609 86.5334 7.78885 86.1073 8.11437C85.6871 8.43989 85.3645 8.90154 85.1396 9.49931C84.9147 10.0971 84.8022 10.8014 84.8022 11.6122ZM103.082 18.6968C101.703 18.6968 100.51 18.4038 99.5039 17.8178C98.5037 17.226 97.7313 16.4033 97.1868 15.3498C96.6423 14.2904 96.3701 13.0623 96.3701 11.6655C96.3701 10.2569 96.6423 9.02583 97.1868 7.97232C97.7313 6.9129 98.5037 6.09022 99.5039 5.50428C100.51 4.91243 101.703 4.6165 103.082 4.6165C104.461 4.6165 105.65 4.91243 106.651 5.50428C107.657 6.09022 108.432 6.9129 108.977 7.97232C109.521 9.02583 109.793 10.2569 109.793 11.6655C109.793 13.0623 109.521 14.2904 108.977 15.3498C108.432 16.4033 107.657 17.226 106.651 17.8178C105.65 18.4038 104.461 18.6968 103.082 18.6968ZM103.099 15.7671C103.727 15.7671 104.251 15.5895 104.671 15.2344C105.091 14.8734 105.408 14.3821 105.621 13.7607C105.84 13.1392 105.949 12.432 105.949 11.6389C105.949 10.8458 105.84 10.1385 105.621 9.51707C105.408 8.89562 105.091 8.40438 104.671 8.04335C104.251 7.68231 103.727 7.5018 103.099 7.5018C102.466 7.5018 101.934 7.68231 101.501 8.04335C101.075 8.40438 100.753 8.89562 100.534 9.51707C100.321 10.1385 100.214 10.8458 100.214 11.6389C100.214 12.432 100.321 13.1392 100.534 13.7607C100.753 14.3821 101.075 14.8734 101.501 15.2344C101.934 15.5895 102.466 15.7671 103.099 15.7671ZM116.034 10.5469V18.4304H112.253V4.79406H115.857V7.19995H116.017C116.319 6.40686 116.825 5.7795 117.535 5.31785C118.245 4.85028 119.106 4.6165 120.118 4.6165C121.065 4.6165 121.891 4.82365 122.595 5.23795C123.3 5.65225 123.847 6.2441 124.238 7.01352C124.628 7.77701 124.824 8.68847 124.824 9.74789V18.4304H121.042V10.4226C121.048 9.58809 120.834 8.93705 120.402 8.46948C119.97 7.996 119.376 7.75926 118.618 7.75926C118.109 7.75926 117.659 7.86875 117.268 8.08773C116.884 8.30672 116.582 8.62632 116.363 9.04654C116.15 9.46084 116.04 9.96096 116.034 10.5469ZM134.019 18.6968C132.616 18.6968 131.409 18.4127 130.397 17.8445C129.39 17.2704 128.615 16.4595 128.071 15.412C127.526 14.3585 127.254 13.1126 127.254 11.6744C127.254 10.2717 127.526 9.04062 128.071 7.9812C128.615 6.92178 129.382 6.09614 130.37 5.50428C131.364 4.91243 132.53 4.6165 133.868 4.6165C134.767 4.6165 135.605 4.7615 136.38 5.05151C137.162 5.3356 137.842 5.7647 138.422 6.3388C139.008 6.9129 139.464 7.63497 139.789 8.50499C140.115 9.3691 140.278 10.3812 140.278 11.5412V12.5799H128.763V10.2362H136.718C136.718 9.69166 136.599 9.2093 136.363 8.78908C136.126 8.36887 135.797 8.04039 135.377 7.80364C134.963 7.56098 134.48 7.43965 133.93 7.43965C133.356 7.43965 132.847 7.57282 132.403 7.83916C131.965 8.09957 131.622 8.45173 131.373 8.89562C131.125 9.33359 130.997 9.82187 130.991 10.3605V12.5888C130.991 13.2635 131.116 13.8465 131.364 14.3377C131.619 14.829 131.977 15.2078 132.439 15.4741C132.9 15.7404 133.448 15.8736 134.081 15.8736C134.501 15.8736 134.886 15.8144 135.235 15.696C135.584 15.5777 135.883 15.4001 136.132 15.1634C136.38 14.9266 136.57 14.6366 136.7 14.2933L140.198 14.5242C140.02 15.3646 139.656 16.0985 139.106 16.7259C138.561 17.3473 137.857 17.8326 136.993 18.1818C136.135 18.5251 135.143 18.6968 134.019 18.6968ZM146.528 10.5469V18.4304H142.746V4.79406H146.35V7.19995H146.51C146.812 6.40686 147.318 5.7795 148.028 5.31785C148.738 4.85028 149.599 4.6165 150.611 4.6165C151.558 4.6165 152.384 4.82365 153.088 5.23795C153.793 5.65225 154.34 6.2441 154.731 7.01352C155.121 7.77701 155.317 8.68847 155.317 9.74789V18.4304H151.535V10.4226C151.541 9.58809 151.328 8.93705 150.896 8.46948C150.463 7.996 149.869 7.75926 149.111 7.75926C148.602 7.75926 148.152 7.86875 147.762 8.08773C147.377 8.30672 147.075 8.62632 146.856 9.04654C146.643 9.46084 146.534 9.96096 146.528 10.5469ZM165.551 4.79406V7.63497H157.339V4.79406H165.551ZM159.203 1.52701H162.985V14.2401C162.985 14.5893 163.038 14.8615 163.145 15.0568C163.251 15.2462 163.399 15.3794 163.589 15.4563C163.784 15.5333 164.009 15.5718 164.263 15.5718C164.441 15.5718 164.618 15.557 164.796 15.5274C164.974 15.4919 165.11 15.4652 165.204 15.4475L165.799 18.2617C165.61 18.3209 165.343 18.389 165 18.4659C164.657 18.5488 164.24 18.5991 163.748 18.6169C162.837 18.6524 162.038 18.531 161.351 18.2529C160.671 17.9747 160.141 17.5426 159.762 16.9567C159.383 16.3708 159.197 15.6309 159.203 14.7372V1.52701ZM179.189 8.68255L175.727 8.89562C175.668 8.59969 175.54 8.33336 175.345 8.09661C175.15 7.85395 174.892 7.6616 174.573 7.51955C174.259 7.37159 173.883 7.29761 173.445 7.29761C172.859 7.29761 172.365 7.4219 171.963 7.67048C171.56 7.91314 171.359 8.23866 171.359 8.64704C171.359 8.97256 171.489 9.24777 171.75 9.47268C172.01 9.69758 172.457 9.8781 173.09 10.0142L175.558 10.5114C176.884 10.7836 177.872 11.2216 178.523 11.8253C179.174 12.429 179.5 13.2221 179.5 14.2046C179.5 15.0983 179.237 15.8825 178.71 16.5572C178.189 17.2319 177.473 17.7587 176.561 18.1375C175.656 18.5103 174.611 18.6968 173.428 18.6968C171.622 18.6968 170.184 18.3209 169.113 17.5693C168.048 16.8117 167.423 15.7819 167.24 14.4798L170.959 14.2845C171.072 14.8349 171.344 15.2551 171.776 15.5451C172.208 15.8292 172.762 15.9713 173.436 15.9713C174.099 15.9713 174.632 15.844 175.034 15.5895C175.443 15.3291 175.65 14.9947 175.656 14.5863C175.65 14.243 175.505 13.9619 175.221 13.7429C174.937 13.518 174.499 13.3464 173.907 13.228L171.545 12.7575C170.214 12.4911 169.222 12.0295 168.571 11.3725C167.926 10.7156 167.604 9.8781 167.604 8.86011C167.604 7.98416 167.84 7.22954 168.314 6.59626C168.793 5.96297 169.465 5.47469 170.329 5.13141C171.199 4.78814 172.217 4.6165 173.383 4.6165C175.105 4.6165 176.461 4.98049 177.449 5.70847C178.443 6.43646 179.024 7.42782 179.189 8.68255ZM191.583 0.248601V18.4304H187.739V0.248601H191.583ZM200.836 18.6968C199.439 18.6968 198.237 18.4008 197.231 17.809C196.231 17.2112 195.462 16.3826 194.923 15.3232C194.39 14.2638 194.124 13.0445 194.124 11.6655C194.124 10.2687 194.393 9.04358 194.932 7.99008C195.476 6.93066 196.249 6.10502 197.249 5.51316C198.249 4.91539 199.439 4.6165 200.818 4.6165C202.007 4.6165 203.049 4.83253 203.943 5.26458C204.837 5.69664 205.544 6.30329 206.065 7.08454C206.585 7.86579 206.873 8.78317 206.926 9.83667H203.357C203.256 9.15604 202.99 8.60857 202.558 8.19427C202.132 7.77405 201.572 7.56394 200.88 7.56394C200.294 7.56394 199.782 7.72374 199.344 8.04335C198.912 8.35703 198.575 8.81572 198.332 9.41941C198.089 10.0231 197.968 10.754 197.968 11.6122C197.968 12.4823 198.086 13.2221 198.323 13.8317C198.566 14.4413 198.906 14.9059 199.344 15.2255C199.782 15.5451 200.294 15.7049 200.88 15.7049C201.312 15.7049 201.7 15.6161 202.043 15.4386C202.392 15.261 202.679 15.0036 202.904 14.6662C203.135 14.3229 203.286 13.9116 203.357 13.4322H206.926C206.867 14.4739 206.583 15.3912 206.074 16.1843C205.57 16.9715 204.875 17.587 203.987 18.0309C203.099 18.4748 202.049 18.6968 200.836 18.6968ZM215.508 18.6968C214.129 18.6968 212.937 18.4038 211.931 17.8178C210.93 17.226 210.158 16.4033 209.614 15.3498C209.069 14.2904 208.797 13.0623 208.797 11.6655C208.797 10.2569 209.069 9.02583 209.614 7.97232C210.158 6.9129 210.93 6.09022 211.931 5.50428C212.937 4.91243 214.129 4.6165 215.508 4.6165C216.887 4.6165 218.077 4.91243 219.077 5.50428C220.084 6.09022 220.859 6.9129 221.403 7.97232C221.948 9.02583 222.22 10.2569 222.22 11.6655C222.22 13.0623 221.948 14.2904 221.403 15.3498C220.859 16.4033 220.084 17.226 219.077 17.8178C218.077 18.4038 216.887 18.6968 215.508 18.6968ZM215.526 15.7671C216.154 15.7671 216.677 15.5895 217.098 15.2344C217.518 14.8734 217.834 14.3821 218.048 13.7607C218.267 13.1392 218.376 12.432 218.376 11.6389C218.376 10.8458 218.267 10.1385 218.048 9.51707C217.834 8.89562 217.518 8.40438 217.098 8.04335C216.677 7.68231 216.154 7.5018 215.526 7.5018C214.893 7.5018 214.36 7.68231 213.928 8.04335C213.502 8.40438 213.18 8.89562 212.961 9.51707C212.747 10.1385 212.641 10.8458 212.641 11.6389C212.641 12.432 212.747 13.1392 212.961 13.7607C213.18 14.3821 213.502 14.8734 213.928 15.2344C214.36 15.5895 214.893 15.7671 215.526 15.7671ZM228.461 10.5469V18.4304H224.679V4.79406H228.284V7.19995H228.443C228.745 6.40686 229.251 5.7795 229.962 5.31785C230.672 4.85028 231.533 4.6165 232.545 4.6165C233.492 4.6165 234.318 4.82365 235.022 5.23795C235.726 5.65225 236.274 6.2441 236.664 7.01352C237.055 7.77701 237.25 8.68847 237.25 9.74789V18.4304H233.468V10.4226C233.474 9.58809 233.261 8.93705 232.829 8.46948C232.397 7.996 231.802 7.75926 231.045 7.75926C230.536 7.75926 230.086 7.86875 229.695 8.08773C229.311 8.30672 229.009 8.62632 228.79 9.04654C228.577 9.46084 228.467 9.96096 228.461 10.5469ZM251.577 8.68255L248.115 8.89562C248.055 8.59969 247.928 8.33336 247.733 8.09661C247.537 7.85395 247.28 7.6616 246.96 7.51955C246.647 7.37159 246.271 7.29761 245.833 7.29761C245.247 7.29761 244.753 7.4219 244.35 7.67048C243.948 7.91314 243.747 8.23866 243.747 8.64704C243.747 8.97256 243.877 9.24777 244.137 9.47268C244.398 9.69758 244.845 9.8781 245.478 10.0142L247.946 10.5114C249.272 10.7836 250.26 11.2216 250.911 11.8253C251.562 12.429 251.888 13.2221 251.888 14.2046C251.888 15.0983 251.624 15.8825 251.098 16.5572C250.577 17.2319 249.861 17.7587 248.949 18.1375C248.044 18.5103 246.999 18.6968 245.815 18.6968C244.01 18.6968 242.572 18.3209 241.501 17.5693C240.435 16.8117 239.811 15.7819 239.627 14.4798L243.347 14.2845C243.46 14.8349 243.732 15.2551 244.164 15.5451C244.596 15.8292 245.149 15.9713 245.824 15.9713C246.487 15.9713 247.02 15.844 247.422 15.5895C247.83 15.3291 248.038 14.9947 248.044 14.5863C248.038 14.243 247.893 13.9619 247.609 13.7429C247.324 13.518 246.886 13.3464 246.295 13.228L243.933 12.7575C242.601 12.4911 241.61 12.0295 240.959 11.3725C240.314 10.7156 239.991 9.8781 239.991 8.86011C239.991 7.98416 240.228 7.22954 240.702 6.59626C241.181 5.96297 241.853 5.47469 242.717 5.13141C243.587 4.78814 244.605 4.6165 245.771 4.6165C247.493 4.6165 248.848 4.98049 249.837 5.70847C250.831 6.43646 251.411 7.42782 251.577 8.68255Z" fill="#E95322"/>
</svg>
