<svg width="70" height="88" viewBox="0 0 70 88" fill="none" xmlns="http://www.w3.org/2000/svg">
<path d="M51.3339 40.9782C50.7783 48.1034 48.7494 56.4182 47.3667 63.4665C46.5009 68.0077 45.1699 72.5744 45.6093 77.1795C45.9324 80.7229 47.7286 85.4559 53.6471 85.4943C55.2062 85.5468 56.7494 85.1704 58.1054 84.407C59.4482 83.4695 60.4425 82.1211 60.9353 80.5694C61.6666 78.427 61.9309 76.1556 61.7107 73.9048C61.3282 70.3965 60.7283 66.9148 59.9145 63.4793C58.6222 56.4309 56.5029 48.065 55.9473 40.9399M13.7555 42.6796C13.2128 49.6256 11.171 57.1473 9.87879 64.0294C9.02591 68.4554 7.72071 72.8942 8.14715 77.3842C8.47021 80.838 10.2276 85.4559 16.0298 85.4943C17.5614 85.551 19.0786 85.1833 20.4106 84.4326C21.7297 83.5216 22.7068 82.2036 23.1889 80.6845C23.9087 78.5971 24.1686 76.3814 23.9513 74.1862C23.5784 70.767 22.9871 67.3746 22.1809 64.0294C20.8887 57.1473 18.834 49.6256 18.3042 42.6796M2.5 5.44215V29.4911C2.51021 33.0378 3.93716 36.4366 6.46949 38.9458C9.00183 41.4549 12.434 42.8708 16.0169 42.8843C19.6021 42.8741 23.0375 41.4598 25.5726 38.9503C28.1078 36.4408 29.5365 33.04 29.5467 29.4911V5.44215M11.494 5.44215V22.4299M20.7207 5.44215V22.4299M67.5 21.8415C67.5 32.5235 61.2979 41.1829 53.6471 41.1829C45.9964 41.1829 39.7942 32.5235 39.7942 21.8415C39.7942 11.1595 45.9964 2.5 53.6471 2.5C61.2979 2.5 67.5 11.1595 67.5 21.8415Z" stroke="#E95322" stroke-width="5" stroke-linecap="round" stroke-linejoin="round"/>
</svg>
