<svg width="75" height="71" viewBox="0 0 75 71" fill="none" xmlns="http://www.w3.org/2000/svg">
<path d="M60.78 56.0645C62.1127 55.8957 63.464 56.1642 64.6309 56.8297C65.7977 57.4952 66.7169 58.5216 67.25 59.7545C67.9024 61.261 67.9297 62.9649 67.3258 64.4914C66.722 66.0179 65.5364 67.2421 64.03 67.8945C63.2836 68.2191 62.4804 68.3933 61.6666 68.4071C60.8527 68.4209 60.0442 68.274 59.2872 67.9749C58.5302 67.6758 57.8395 67.2304 57.2549 66.6641C56.6703 66.0977 56.203 65.4217 55.88 64.6745C55.5189 63.8496 55.3434 62.9553 55.3659 62.0551C55.3883 61.1548 55.6082 60.2705 56.01 59.4645M29.21 59.4845H56.05M35.01 51.5145C34.124 50.3561 32.9871 49.4134 31.6847 48.757C30.3824 48.1006 28.9482 47.7476 27.49 47.7245C21.84 47.7245 17.25 52.9845 17.25 59.4745V60.1145H23.25M72.33 60.7445C72.3274 57.8899 71.1915 55.1531 69.172 53.1355C67.1525 51.1179 64.4146 49.9845 61.56 49.9845M35.11 60.1145C35.3068 60.739 35.408 61.3898 35.41 62.0445C35.41 63.6872 34.7581 65.2626 33.5976 66.4251C32.437 67.5875 30.8626 68.2419 29.22 68.2445C27.5757 68.2445 25.9987 67.5913 24.8359 66.4286C23.6732 65.2659 23.02 63.6889 23.02 62.0445C23.0205 61.3888 23.1251 60.7374 23.33 60.1145M65.5 50.7311L60.14 30.7645C60.14 30.7645 65.06 30.6545 63.68 23.8745M19.26 52.5745V41.9145C19.2521 41.4751 19.3309 41.0384 19.4921 40.6295C19.6533 40.2205 19.8936 39.8475 20.1992 39.5316C20.5049 39.2157 20.8698 38.9633 21.2732 38.7888C21.6766 38.6142 22.1105 38.521 22.55 38.5145H30.61C31.2549 38.5066 31.8935 38.6436 32.4784 38.9153C33.0634 39.1871 33.58 39.5866 33.99 40.0845C35.11 41.4745 42.06 51.7545 42.06 51.7545H51.86C52.3675 51.7463 52.868 51.6347 53.3308 51.4263C53.7936 51.218 54.2091 50.9174 54.5517 50.543C54.8943 50.1685 55.1569 49.7281 55.3234 49.2486C55.4899 48.7692 55.5568 48.2607 55.52 47.7545L53.05 27.7545C53.0148 27.4457 53.0452 27.1329 53.1391 26.8366C53.2331 26.5403 53.3885 26.2672 53.5951 26.035C53.8018 25.8029 54.0552 25.6169 54.3386 25.4893C54.622 25.3617 54.9291 25.2954 55.24 25.2945H57.24M52.42 20.8645H49.69M44.82 51.7545V42.0645C44.82 39.545 43.8191 37.1286 42.0375 35.347C40.2559 33.5654 37.8396 32.5645 35.32 32.5645H26.17M15.64 68.4145H29.21M43.46 68.4145H60.8M11.63 53.9245H17.91M2 44.3845H11.04M44.35 12.2845C43.5879 12.995 42.6539 13.4947 41.64 13.7345C40.1054 14.0809 38.4961 13.8107 37.1588 12.9822C35.8214 12.1536 34.863 10.8329 34.4899 9.30453C34.1432 7.7713 34.412 6.16324 35.2386 4.82615C36.0652 3.48907 37.3835 2.52977 38.91 2.15454C39.6913 1.9737 40.5009 1.95132 41.291 2.08873C42.0811 2.22613 42.8356 2.52055 43.51 2.95454C44.2796 3.42713 44.9162 4.08788 45.3599 4.87454C45.7499 5.62454 45.91 6.55453 46.6 7.10453C47.71 7.99453 49.36 7.46454 50.49 6.90454M42.18 26.2045L38.9 33.2745M51.67 20.8245H49.34C48.6777 20.8257 48.0318 20.6188 47.4935 20.233C46.9551 19.8473 46.5517 19.3021 46.34 18.6745C45.8998 17.6665 45.2449 16.7666 44.4211 16.0377C43.5972 15.3089 42.6242 14.7686 41.57 14.4545C38.7835 13.3457 35.686 13.303 32.87 14.3345C30.5763 15.2472 28.6662 16.9207 27.46 19.0745C26.5815 20.6561 26.1203 22.4354 26.12 24.2445V32.5345H35.01M39.48 20.8245C39.48 20.8245 40.93 31.3145 53.03 28.0045M46.42 6.95454C46.42 6.95454 40.16 8.83453 34.92 5.36453M15.2 21.3545H23.92C24.5167 21.3545 25.089 21.5916 25.511 22.0135C25.9329 22.4355 26.17 23.0078 26.17 23.6045V36.2645C26.17 36.8613 25.9329 37.4336 25.511 37.8555C25.089 38.2775 24.5167 38.5145 23.92 38.5145H8.77C8.17326 38.5145 7.60097 38.2775 7.17901 37.8555C6.75705 37.4336 6.52 36.8613 6.52 36.2645V30.0045C6.52794 27.7077 7.44594 25.5076 9.0729 23.8862C10.6999 22.2649 12.9031 21.3545 15.2 21.3545Z" stroke="#E95322" stroke-width="4" stroke-linecap="round" stroke-linejoin="round"/>
</svg>
