<svg width="74" height="76" viewBox="0 0 74 76" fill="none" xmlns="http://www.w3.org/2000/svg">
<path d="M51.0137 42.9722L43.6938 33.4221C42.807 32.263 41.6649 31.3237 40.3564 30.6772C39.048 30.0308 37.6084 29.6946 36.1489 29.6946C34.6895 29.6946 33.2494 30.0308 31.9409 30.6772C30.6324 31.3237 29.4903 32.263 28.6035 33.4221L21.2837 42.9722M71.0038 37.6321C71.0038 37.6321 72.7838 13.4622 50.4438 4.98223C41.6275 1.67259 31.91 1.67259 23.0937 4.98223C0.753685 13.4622 2.53363 37.6321 2.53363 37.6321C2.53363 37.6321 0.753685 61.802 23.0937 70.282C31.91 73.5917 41.6275 73.5917 50.4438 70.282C72.7838 61.802 71.0038 37.6321 71.0038 37.6321Z" stroke="#E95322" stroke-width="5" stroke-linecap="round" stroke-linejoin="round"/>
</svg>
