<svg width="55" height="68" viewBox="0 0 55 68" fill="none" xmlns="http://www.w3.org/2000/svg">
<path d="M38.2011 28.1375C39.6365 27.1998 41.2839 26.641 42.9908 26.5132C45.789 26.2689 48.5692 27.1524 50.7198 28.9695C52.8703 30.7866 54.2153 33.3885 54.4588 36.2027C54.6705 38.6005 54.0622 40.999 52.7345 43.0018C51.5553 44.6964 50.2271 46.2809 48.7658 47.7364L48.4802 48.0185M16.7704 28.1371C15.343 27.2038 13.7056 26.6451 12.0081 26.5127C10.6218 26.3881 9.22472 26.5403 7.89708 26.9603C6.56945 27.3804 5.33741 28.06 4.27177 28.9603C3.20613 29.8607 2.32787 30.9642 1.68747 32.207C1.04706 33.4498 0.657131 34.8075 0.540066 36.2023C0.333317 38.5958 0.93084 40.9898 2.23701 43.0014C3.46861 45.1055 5.26028 46.8218 7.40992 47.9564M30.6743 14.1257C33.8372 14.6541 36.7919 16.0562 39.2084 18.1755C41.625 20.2948 43.4083 23.0483 44.3593 26.1278M10.6122 26.1822C11.5418 23.3588 13.1618 20.8161 15.3234 18.7864C17.485 16.7567 20.1189 15.3051 22.9834 14.5659M22.0528 19.3008L21.0401 20.3468M33.7671 23.2372L32.1797 24.8337M10.2016 34.9362L8.64156 36.5327M36.2031 37.2209L34.8619 38.5697M21.697 33.2295L20.3559 34.5783M49.149 35.7344L48.1637 36.7254M26.7057 8.81293C25.6241 8.81293 24.5868 9.24469 23.822 10.0139C23.0572 10.7831 22.6276 11.8266 22.6276 12.9144C22.6357 13.3251 22.7001 13.7325 22.8192 14.1255C23.0548 14.9929 23.5691 15.7575 24.282 16.3002C24.9949 16.8429 25.8664 17.1336 26.7604 17.1261C27.842 17.1261 28.8793 16.6937 29.6441 15.9245C30.4089 15.1553 30.8386 14.1124 30.8386 13.0246C30.8534 12.4722 30.757 11.9218 30.5552 11.4077C30.3535 10.8936 30.0505 10.4261 29.6645 10.0327C29.2785 9.63933 28.8174 9.32837 28.309 9.11871C27.8005 8.90905 27.2552 8.80531 26.7057 8.81293ZM26.7057 8.81293C26.4181 7.22971 26.6393 5.70734 27.2403 4.21574C27.8413 2.72414 28.852 1.43527 30.1543 0.5M48.4802 48.0185C48.1418 51.8656 47.1 55.625 45.3993 59.1048C44.8022 60.6637 43.9048 62.0884 42.7588 63.2977C41.6128 64.507 40.2406 65.4765 38.7211 66.1512C35.3018 67.2037 32.4265 67.5 28.1563 67.5C23.8861 67.5 20.6366 67.2732 17.0441 66.1512C15.5245 65.4765 14.1524 64.507 13.0064 63.2977C11.8603 62.0884 10.963 60.6637 10.3659 59.1048C8.31031 54.8123 7.2527 50.1057 7.27306 45.3413C7.29618 44.6869 7.47167 44.0467 7.78541 43.473C8.09915 42.8993 8.5424 42.4076 9.07949 42.0375C9.89836 41.6944 10.7861 41.5505 11.6707 41.6175C12.5553 41.6844 13.4117 41.9608 14.1703 42.4233C15.6698 43.3714 17.4078 43.8682 19.179 43.8547C22.7918 43.3592 24.5161 38.872 28.4847 39.4226C31.7691 39.8905 33.5208 43.4143 36.6957 43.8547C38.475 43.8643 40.2207 43.3681 41.7318 42.4233C42.482 41.9525 43.3346 41.6712 44.2164 41.604C45.0982 41.5369 45.983 41.6856 46.7952 42.0375C47.337 42.4027 47.7838 42.8935 48.0981 43.4683C48.4124 44.0431 48.5851 44.6855 48.6016 45.3413C48.599 46.2368 48.5584 47.13 48.4802 48.0185Z" stroke="#E95322" stroke-linecap="round" stroke-linejoin="round"/>
</svg>
