<svg width="63" height="61" viewBox="0 0 63 61" fill="none" xmlns="http://www.w3.org/2000/svg">
<path d="M51.6853 29.2444V9.92993C51.6853 7.95937 50.9024 6.06966 49.509 4.67627C48.1156 3.28287 46.2259 2.5 44.2554 2.5H15.9453C13.9748 2.5 12.0848 3.28287 10.6914 4.67627C9.29801 6.06966 8.51538 7.95937 8.51538 9.92993V18.158M32.7353 11.49H44.5553M32.7353 19.11H44.5553M58.3451 32.06C58.2451 31.94 58.1553 31.8099 58.0453 31.6899C56.1453 29.4399 51.4852 29.0598 48.8552 29.1698C44.1152 29.3698 39.3952 29.4599 34.6552 29.4599C33.0052 29.4486 31.3815 29.0456 29.9177 28.2841C28.4538 27.5226 27.1917 26.4246 26.2353 25.08C24.6257 22.6565 22.4847 20.6318 19.9753 19.1598C17.2253 17.7398 11.0952 18.1598 8.15521 18.1598C1.54521 18.1598 2.55536 26.1599 2.55536 33.5199V44.7599C2.55536 52.1699 8.18521 58.1899 15.1552 58.1899H48.7153C54.9953 58.1899 59.9754 52.5498 59.5554 45.8998C59.1754 40.1298 60.0452 34.4 58.3451 32.06Z" stroke="#E95322" stroke-width="5" stroke-linecap="round" stroke-linejoin="round"/>
</svg>
