<svg width="77" height="66" viewBox="0 0 77 66" fill="none" xmlns="http://www.w3.org/2000/svg">
<path d="M54.3787 2.5L6.48874 62.94M19.0887 6.74286V15.73M30.4287 44.46H55.4587C58.9867 45.867 63.9556 49.5702 67.7087 49.15C68.9437 48.9554 70.0985 48.4157 71.0398 47.5929C71.9811 46.7701 72.6707 45.698 73.0288 44.5001C73.2288 43.8469 73.3726 43.1778 73.4587 42.5001C73.6296 40.5049 73.6698 38.5006 73.5789 36.5001V29.1701C73.6697 27.1696 73.6295 25.1653 73.4587 23.1701C73.3702 22.5092 73.2264 21.8569 73.0288 21.2201C72.6691 20.0222 71.9792 18.9498 71.0383 18.1256C70.0975 17.3015 68.9436 16.759 67.7087 16.5602C63.8276 16.1257 59.1534 19.9598 55.8188 21.7607M3.82874 44.46H20.6087M48.1386 10.3599C44.2188 8.06376 39.8353 6.67335 35.3088 6.29006C33.0241 6.03635 30.7273 5.90602 28.4286 5.89992C22.5186 5.89992 16.1087 6.63992 10.9687 9.89992C4.35866 14.0599 2.73874 22.65 2.54874 30.02C2.34874 37.6 2.47876 47.18 8.81876 52.28C9.96162 53.1953 11.1985 53.9863 12.5087 54.6399M20.6086 57.1699C23.5169 57.652 26.4608 57.8861 29.4087 57.8699C40.0587 57.8699 53.7388 55.56 55.8188 42.77C56.9688 35.71 57.6088 24.7699 54.4988 17.6499" stroke="#E95322" stroke-width="5" stroke-linecap="round" stroke-linejoin="round"/>
</svg>
