<svg width="45" height="35" viewBox="0 0 45 35" fill="none" xmlns="http://www.w3.org/2000/svg">
<path d="M40.6151 13.1599L28.805 28.73C28.0343 29.7415 27.0403 30.5614 25.9007 31.1257C24.7612 31.6901 23.5069 31.9836 22.2352 31.9836C20.9635 31.9836 19.7088 31.6901 18.5692 31.1257C17.4296 30.5614 16.4357 29.7415 15.6649 28.73L3.84508 13.1599C3.09935 12.1734 2.64345 10.9984 2.52868 9.76709C2.41391 8.53574 2.6451 7.29683 3.19567 6.18946C3.74624 5.08208 4.59436 4.15028 5.64538 3.49854C6.69639 2.84679 7.90869 2.50092 9.14538 2.5H35.3251C36.5625 2.49903 37.7756 2.8439 38.8275 3.49561C39.8794 4.14732 40.7281 5.08005 41.2782 6.18848C41.8282 7.2969 42.0575 8.53696 41.9403 9.7688C41.8231 11.0006 41.3643 12.1751 40.6151 13.1599Z" stroke="#E95322" stroke-width="5" stroke-linecap="round" stroke-linejoin="round"/>
</svg>
