<svg width="63" height="52" viewBox="0 0 63 52" fill="none" xmlns="http://www.w3.org/2000/svg">
<path d="M14.82 49.3066V15.3066H24.12C24.3993 15.3086 24.6735 15.2321 24.9113 15.0857C25.1492 14.9393 25.341 14.729 25.4651 14.4788C25.5892 14.2285 25.6404 13.9483 25.613 13.6704C25.5856 13.3925 25.4806 13.1279 25.31 12.9067L18.98 4.56665C18.4932 3.92441 17.8643 3.40374 17.1426 3.04517C16.4209 2.6866 15.6259 2.5 14.82 2.5C14.0141 2.5 13.2192 2.6866 12.4974 3.04517C11.7757 3.40374 11.1468 3.92441 10.66 4.56665L2.5 15.3066H7.20001M47.33 2.53687V36.5369H38.03C37.7506 36.5373 37.4768 36.6157 37.2396 36.7634C37.0024 36.9111 36.8111 37.122 36.6874 37.3726C36.5637 37.6231 36.5125 37.9033 36.5394 38.1814C36.5664 38.4595 36.6705 38.7246 36.84 38.9468L43.17 47.2869C43.659 47.9275 44.2893 48.4464 45.0116 48.8037C45.734 49.1611 46.5291 49.3472 47.335 49.3472C48.1409 49.3472 48.936 49.1611 49.6584 48.8037C50.3807 48.4464 51.0109 47.9275 51.5 47.2869L59.65 36.5369H54.65" stroke="#E95322" stroke-width="5" stroke-linecap="round" stroke-linejoin="round"/>
</svg>
