<svg width="37" height="54" viewBox="0 0 37 54" fill="none" xmlns="http://www.w3.org/2000/svg">
<path d="M18.2904 2.5V29.6699H6.23032C5.53695 29.6772 4.85926 29.8758 4.27134 30.2434C3.68341 30.611 3.2079 31.1337 2.8978 31.7539C2.5877 32.3741 2.45488 33.0676 2.51352 33.7585C2.57217 34.4495 2.82012 35.1109 3.23032 35.6699L12.6302 48.0601C13.2933 48.9344 14.1499 49.6432 15.1327 50.1313C16.1155 50.6195 17.1979 50.8735 18.2953 50.8735C19.3926 50.8735 20.4751 50.6195 21.4579 50.1313C22.4407 49.6432 23.2972 48.9344 23.9603 48.0601L33.3602 35.6699C33.7704 35.1109 34.0188 34.4495 34.0775 33.7585C34.1361 33.0676 34.0028 32.3741 33.6927 31.7539C33.3826 31.1337 32.9076 30.611 32.3197 30.2434C31.7317 29.8758 31.0536 29.6772 30.3602 29.6699H27.7904" stroke="#E95322" stroke-width="5" stroke-linecap="round" stroke-linejoin="round"/>
</svg>
