<svg width="74" height="76" viewBox="0 0 74 76" fill="none" xmlns="http://www.w3.org/2000/svg">
<path d="M36.7733 25.0527V47.1027M27.1533 38.3428L31.9932 44.7327C32.5529 45.4684 33.2752 46.0648 34.1035 46.4753C34.9318 46.8859 35.8441 47.0996 36.7686 47.0996C37.693 47.0996 38.6048 46.8859 39.4331 46.4753C40.2614 46.0648 40.9837 45.4684 41.5435 44.7327L46.3936 38.3428M2.53314 37.6329C2.53314 37.6329 0.763199 61.8028 23.0932 70.2828C31.9128 73.5931 41.6335 73.5931 50.4531 70.2828C72.7831 61.8028 71.0131 37.6329 71.0131 37.6329C71.0131 37.6329 72.7831 13.4627 50.4531 4.98274C41.6335 1.67242 31.9128 1.67242 23.0932 4.98274C0.763199 13.4627 2.53314 37.6329 2.53314 37.6329Z" stroke="#E95322" stroke-width="5" stroke-linecap="round" stroke-linejoin="round"/>
</svg>
