<svg width="41" height="71" viewBox="0 0 41 71" fill="none" xmlns="http://www.w3.org/2000/svg">
<path d="M34.9799 16.7329C37.5042 27.0451 37.0881 39.1365 31.6789 48.2535C29.7094 51.589 31.8454 55.1192 32.9827 58.8438C33.7594 61.3454 35.1463 63.9859 34.2309 66.432C33.7809 67.5488 33.0173 68.5107 32.0326 69.2013C31.0479 69.892 29.8844 70.2816 28.6831 70.3231C25.5067 70.5593 22.3172 70.5593 19.1408 70.3231C5.60403 69.4892 19.3627 54.8133 15.4792 48.2813C12.2017 42.1878 10.5309 35.357 10.6248 28.4355C10.6248 24.5719 10.181 18.6512 13.1768 15.677C17.5596 11.3409 25.3821 11.3131 30.3474 13.648M11.2074 34.7444C11.4847 38.1633 15.3682 38.6639 18.0035 37.8579C20.6387 37.0518 23.2462 34.7723 26.3252 34.1608C28.1562 33.7133 30.0866 33.9385 31.7662 34.7953C33.4457 35.6521 34.7631 37.0841 35.4792 38.831M24.5777 44.2506L40.5 0.500244M17.2268 64.6524C21.3617 65.9561 25.7964 65.9561 29.9313 64.6524M10.5139 28.7406C9.95678 28.8524 9.38994 28.9085 8.82178 28.9075C6.6147 28.9075 4.49803 28.029 2.9374 26.4652C1.37676 24.9014 0.5 22.7804 0.5 20.5688C0.5 18.3573 1.37676 16.2362 2.9374 14.6724C4.49803 13.1086 6.6147 12.2301 8.82178 12.2301C11.0288 12.2301 13.1455 13.1086 14.7062 14.6724C16.2668 16.2362 17.1436 18.3573 17.1436 20.5688M11.346 19.2069C14.0943 20.4739 17.0721 21.1642 20.0964 21.2359C23.1207 21.3076 26.1278 20.7589 28.9327 19.6235" stroke="#E95322" stroke-linecap="round" stroke-linejoin="round"/>
</svg>
