<svg width="73" height="78" viewBox="0 0 73 78" fill="none" xmlns="http://www.w3.org/2000/svg">
<path d="M52.5472 10.0093C49.9349 9.22911 46.1012 8.52687 43.3911 8.22925C40.5464 7.89791 37.6851 7.72787 34.8211 7.71948C27.4611 7.71948 19.4611 8.71941 13.0611 12.8994C4.82106 18.3094 2.80106 29.4894 2.56106 39.0894C2.31106 48.9494 2.47112 61.4094 10.3711 68.0894C17.4311 74.0194 27.371 75.3694 36.041 75.3894C49.311 75.3894 66.3711 72.3893 68.9611 55.7493C70.1611 47.9893 70.961 36.6593 68.801 27.7493M66.2611 4.03938C64.8407 2.88946 63.0225 2.34904 61.2046 2.53645C59.3867 2.72386 57.717 3.62385 56.5611 5.03938L26.9611 41.6895L22.3711 56.6895C22.3042 56.9089 22.3043 57.1431 22.3716 57.3624C22.4389 57.5816 22.5702 57.7757 22.7487 57.9198C22.9272 58.0638 23.1446 58.1514 23.3731 58.171C23.6016 58.1905 23.8307 58.1411 24.031 58.0294L37.7111 50.3895L67.3011 13.7493C68.4444 12.3213 68.9768 10.4992 68.782 8.68025C68.5872 6.86125 67.681 5.19291 66.2611 4.03938Z" stroke="#E95322" stroke-width="5" stroke-linecap="round" stroke-linejoin="round"/>
</svg>
