<svg width="80" height="80" viewBox="0 0 80 80" fill="none" xmlns="http://www.w3.org/2000/svg">
<path d="M44.6384 77.4228C44.6384 72.2928 44.6384 62.375 44.6384 56.337H54.0727C54.5263 56.337 54.9612 56.1568 55.2818 55.8361C55.6025 55.5154 55.7827 55.0805 55.7827 54.627V44.1784C55.7827 43.7249 55.6025 43.2899 55.2818 42.9692C54.9612 42.6486 54.5263 42.4684 54.0727 42.4684H44.6384C44.6384 38.388 44.6384 38.8716 44.6384 36.3243C44.6415 35.2223 45.0815 34.1664 45.8619 33.3883C46.6422 32.6101 47.6993 32.1731 48.8013 32.1731H55.7238V21.3826C55.7207 20.5745 55.3975 19.8007 54.8251 19.2304C54.2526 18.6601 53.4775 18.34 52.6694 18.34H44.0251C42.2085 18.34 40.4097 18.6978 38.7314 19.393C37.053 20.0881 35.5282 21.1071 34.2436 22.3916C32.9591 23.6762 31.9402 25.2011 31.245 26.8794C30.5498 28.5577 30.192 30.3565 30.192 32.1731C30.192 32.1731 30.0387 34.178 29.9444 42.4684H20.8166C20.3099 42.4684 19.824 42.6697 19.4657 43.028C19.1074 43.3863 18.9061 43.8722 18.9061 44.3789V54.4265C18.9046 54.6778 18.9529 54.9269 19.0484 55.1594C19.1438 55.3919 19.2844 55.6032 19.4621 55.7809C19.6398 55.9586 19.8511 56.0993 20.0836 56.1947C20.3161 56.2902 20.5653 56.3385 20.8166 56.337H29.8381C29.8381 62.4104 29.8381 71.1371 30.0032 76.5147M30.0269 76.4086C22.0203 74.2333 14.9538 69.4801 9.92064 62.8843C4.88748 56.2885 2.16825 48.2179 2.18366 39.9211C2.18366 29.9125 6.15954 20.3138 13.2367 13.2367C20.3139 6.15951 29.9126 2.18359 39.9212 2.18359C49.9298 2.18359 59.5285 6.15951 66.6057 13.2367C73.6829 20.3138 77.6587 29.9125 77.6587 39.9211C77.6648 49.117 74.3128 57.9987 68.2326 64.8976C62.1523 71.7966 53.7622 76.2379 44.6384 77.3874" stroke="#E95322" stroke-width="4.36703" stroke-linecap="round" stroke-linejoin="round"/>
</svg>
