<svg width="78" height="50" viewBox="0 0 78 50" fill="none" xmlns="http://www.w3.org/2000/svg">
<path d="M46.9248 10.986C47.766 10.6818 48.5043 10.1419 49.0529 9.42935L52.9597 4.34217C53.3995 3.76884 53.9636 3.30474 54.6082 2.98548C55.2528 2.66623 55.9611 2.50023 56.679 2.50023C57.3969 2.50023 58.1051 2.66623 58.7497 2.98548C59.3944 3.30474 59.9585 3.76884 60.3982 4.34217L64.3051 9.42935C64.8402 10.1359 65.5619 10.6755 66.387 10.986L72.3853 13.173C73.0607 13.4181 73.6719 13.8159 74.1717 14.3362C74.6715 14.8566 75.0467 15.4857 75.2689 16.1752C75.491 16.8647 75.5542 17.5963 75.4534 18.3142C75.3526 19.0321 75.0903 19.7174 74.6871 20.3172L71.1014 25.6453C70.6032 26.3921 70.3231 27.2657 70.2939 28.1658L70.0924 34.6058C70.0688 35.3302 69.8817 36.0397 69.5456 36.6801C69.2095 37.3205 68.7335 37.8749 68.1533 38.3012C67.573 38.7275 66.9042 39.0143 66.1976 39.1398C65.491 39.2654 64.7652 39.2264 64.0758 39.0258L59.9943 37.8211M31.104 10.986C30.264 10.6795 29.5267 10.14 28.9764 9.42935L25.0785 4.34217C24.6378 3.76872 24.0731 3.30451 23.4278 2.98526C22.7824 2.66601 22.0733 2.5 21.3548 2.5C20.6362 2.5 19.9271 2.66601 19.2817 2.98526C18.6364 3.30451 18.0717 3.76872 17.631 4.34217L13.7331 9.42935C13.1828 10.14 12.4455 10.6795 11.6055 10.986L5.60725 13.173C4.93256 13.4191 4.32233 13.8177 3.82354 14.3385C3.32474 14.8593 2.95074 15.4883 2.72949 16.1777C2.50824 16.8671 2.44583 17.5986 2.54722 18.316C2.64861 19.0335 2.91098 19.718 3.31435 20.3172L6.89118 25.6453C7.39347 26.3901 7.67349 27.2649 7.69817 28.1658L7.90014 34.6058C7.92515 35.3306 8.11342 36.0402 8.45052 36.6805C8.78762 37.3208 9.26461 37.8751 9.84551 38.3012C10.4264 38.7273 11.096 39.014 11.803 39.1396C12.51 39.2652 13.2358 39.2262 13.9257 39.0258L17.9983 37.8211M43.3942 6.39926L47.98 12.3945C48.6242 13.2392 49.4924 13.8819 50.4838 14.2478L57.5457 16.8146C58.3411 17.1047 59.0605 17.5747 59.6487 18.1887C60.2368 18.8026 60.6783 19.5444 60.9393 20.3571C61.2004 21.1697 61.2739 22.0318 61.1547 22.8777C61.0355 23.7236 60.7266 24.5307 60.2514 25.2375L56.0324 31.5108C55.4579 32.3963 55.1402 33.4269 55.1153 34.4854L54.877 42.0559C54.8594 42.9133 54.6454 43.7549 54.2523 44.515C53.8593 45.2751 53.2975 45.9327 52.611 46.437C51.9245 46.9413 51.1321 47.2784 50.2953 47.4218C49.4584 47.5652 48.6001 47.5109 47.7874 47.2634L40.5783 45.1509C39.5691 44.8526 38.4969 44.8526 37.4878 45.1509L30.2786 47.2634C29.4659 47.5109 28.6076 47.5652 27.7708 47.4218C26.9339 47.2784 26.1415 46.9413 25.455 46.437C24.7685 45.9327 24.2068 45.2751 23.8137 44.515C23.4207 43.7549 23.2067 42.9133 23.189 42.0559L22.9508 34.4854C22.9319 33.4259 22.6136 32.3937 22.0336 31.5108L17.8146 25.2375C17.3309 24.5303 17.0159 23.7196 16.8947 22.8689C16.7735 22.0181 16.8493 21.1506 17.116 20.3344C17.3826 19.5182 17.8331 18.7756 18.4317 18.1649C19.0303 17.5542 19.7608 17.0919 20.5661 16.8146L27.6189 14.2478C28.6103 13.8819 29.4786 13.2392 30.1228 12.3945L34.7085 6.39926C35.223 5.73133 35.8816 5.1908 36.6342 4.81906C37.3868 4.44732 38.2134 4.25417 39.0512 4.25417C39.8889 4.25417 40.7155 4.44732 41.4681 4.81906C42.2207 5.1908 42.8797 5.73133 43.3942 6.39926Z" stroke="#E95322" stroke-width="5" stroke-linecap="round" stroke-linejoin="round"/>
</svg>
