<svg width="72" height="53" viewBox="0 0 72 53" fill="none" xmlns="http://www.w3.org/2000/svg">
<path d="M2.5 9.0399H48.99M22.47 44.3899H68.8M56.33 26.7199H68.8M2.5 26.7199H37.37M68.79 9.0399C68.79 13.2594 66.0007 15 62.56 15C59.1193 15 56.33 13.2594 56.33 9.0399C56.33 4.82045 59.1193 2.5 62.56 2.5C66.0007 2.5 68.79 4.82045 68.79 9.0399ZM49.82 26.7199C49.82 30.9394 47.0307 33 43.59 33C40.1493 33 37.36 30.9394 37.36 26.7199C37.36 22.5004 40.1493 20.5 43.59 20.5C47.0307 20.5 49.82 22.5004 49.82 26.7199ZM14.96 44.3899C14.96 48.6094 12.1707 50.5 8.73 50.5C5.28927 50.5 2.5 48.6094 2.5 44.3899C2.5 40.1704 5.28927 38 8.73 38C12.1707 38 14.96 40.1704 14.96 44.3899Z" stroke="#E95322" stroke-width="5" stroke-linecap="round" stroke-linejoin="round"/>
</svg>
