<svg width="52" height="74" viewBox="0 0 52 74" fill="none" xmlns="http://www.w3.org/2000/svg">
<path d="M2.53004 70.94V2.5M48.51 36.8501C48.8229 37.6188 48.9728 38.444 48.9504 39.2737C48.9281 40.1033 48.734 40.9192 48.3801 41.6699C46.2301 45.6699 39.71 45.7699 35.75 45.8799C27.9415 46.1886 20.1213 45.9816 12.3401 45.26C9.51009 44.97 6.54009 44.48 4.34009 42.82C3.61569 42.2648 2.99304 41.5881 2.5 40.82V10.3601C2.99007 9.58972 3.61317 8.91254 4.34009 8.36008C6.51009 6.70008 9.47009 6.07988 12.3401 5.90988C24.6701 5.17988 20.4801 5.24997 31.5701 5.24997C34.3501 5.13997 41.5699 5.49985 44.1899 6.36985C45.9299 6.85625 47.4248 7.97658 48.3801 9.50998C52.0401 16.37 41.4801 20.0801 41.8801 25.8401C42.0501 28.1601 44.65 30.62 45.96 32.48C47.002 33.8157 47.8597 35.2857 48.51 36.8501Z" stroke="#E95322" stroke-width="5" stroke-linecap="round" stroke-linejoin="round"/>
</svg>
