<svg width="54" height="37" viewBox="0 0 54 37" fill="none" xmlns="http://www.w3.org/2000/svg">
<path d="M2.5 18.3377H29.6699V30.4075C29.6704 31.1093 29.8667 31.7973 30.2368 32.3936C30.607 32.9899 31.1364 33.4709 31.7651 33.7827C32.3939 34.0945 33.0972 34.2245 33.7959 34.1582C34.4946 34.0919 35.1608 33.8319 35.7197 33.4075L48.1099 23.9976C48.9841 23.3355 49.693 22.4798 50.1812 21.4978C50.6693 20.5158 50.9233 19.4343 50.9233 18.3377C50.9233 17.241 50.6693 16.1593 50.1812 15.1773C49.693 14.1953 48.9841 13.3396 48.1099 12.6775L35.7197 3.26759C35.1608 2.84313 34.4946 2.58313 33.7959 2.51686C33.0972 2.45058 32.3939 2.58055 31.7651 2.89235C31.1364 3.20414 30.607 3.68521 30.2368 4.28151C29.8667 4.8778 29.6704 5.56575 29.6699 6.26759V8.83766" stroke="#E95322" stroke-width="5" stroke-linecap="round" stroke-linejoin="round"/>
</svg>
