<svg width="80" height="79" viewBox="0 0 80 79" fill="none" xmlns="http://www.w3.org/2000/svg">
<path d="M34.2323 59.6753C44.8723 67.9653 56.3423 70.5753 62.8223 65.2153C71.2923 58.2153 68.0223 40.2655 55.5023 25.1155L53.2323 22.7654M44.3824 14.6354C34.2524 7.36541 23.6423 5.3054 17.5023 10.3754C9.03235 17.3754 12.3124 35.3253 24.8224 50.4753M55.5923 18.7353C64.3423 17.9353 71.0623 19.8353 73.1823 24.4553C76.8323 32.4553 65.3123 45.5453 47.4423 53.7153C29.5723 61.8853 12.1323 62.0254 8.4423 54.0354C4.7523 46.0454 16.3123 32.9454 34.1823 24.7754C37.123 23.4268 40.1456 22.2645 43.2323 21.2954M29.2823 73.9253C29.8623 74.0553 30.4223 74.1754 30.9623 74.2754C33.8255 74.8431 36.7456 75.0713 39.6623 74.9554C39.6623 74.9554 65.2223 76.8354 74.1923 53.2054C77.692 43.8796 77.692 33.6012 74.1923 24.2754C65.1923 0.655443 39.6623 2.53545 39.6623 2.53545C39.6623 2.53545 14.1023 0.655443 5.13231 24.2754C1.62256 33.5994 1.62256 43.8814 5.13231 53.2054C7.47012 59.6986 11.8487 65.2597 17.6123 69.0555C18.4223 69.5855 19.2423 70.0554 20.0723 70.5054M48.6623 22.7554C49.6032 22.8095 50.5375 22.569 51.3351 22.0671C52.1327 21.5653 52.754 20.8269 53.1123 19.9553C53.5625 18.7527 53.5625 17.4279 53.1123 16.2253C52.7087 15.388 52.077 14.6814 51.2898 14.187C50.5026 13.6926 49.5919 13.4304 48.6623 13.4304C47.7327 13.4304 46.8221 13.6926 46.0349 14.187C45.2477 14.6814 44.616 15.388 44.2124 16.2253C43.7622 17.4279 43.7622 18.7527 44.2124 19.9553C44.5719 20.826 45.1935 21.5635 45.9908 22.0652C46.7882 22.5669 47.7218 22.808 48.6623 22.7554ZM24.8623 75.8455C25.8029 75.8981 26.7366 75.6567 27.5339 75.155C28.3312 74.6533 28.9528 73.9161 29.3123 73.0454C29.7625 71.8428 29.7625 70.518 29.3123 69.3154C28.9087 68.4781 28.277 67.7715 27.4898 67.2771C26.7027 66.7827 25.7919 66.5205 24.8623 66.5205C23.9328 66.5205 23.0221 66.7827 22.2349 67.2771C21.4477 67.7715 20.816 68.4781 20.4123 69.3154C19.9622 70.518 19.9622 71.8428 20.4123 73.0454C20.7707 73.917 21.392 74.6551 22.1896 75.157C22.9872 75.6589 23.9215 75.8996 24.8623 75.8455Z" stroke="#E95322" stroke-width="5" stroke-linecap="round" stroke-linejoin="round"/>
</svg>
