<svg width="69" height="68" viewBox="0 0 69 68" fill="none" xmlns="http://www.w3.org/2000/svg">
<path d="M16.8273 28.47H26.3273M16.8273 38.45H51.5173M65.4274 62.2301L60.4274 51.89C62.3627 49.0156 63.7963 45.8339 64.6674 42.4801C66.3631 36.171 66.2592 29.5132 64.3673 23.2601C57.5273 0.820101 34.1874 2.53012 34.1874 2.53012C34.1874 2.53012 10.5073 0.790102 3.85734 23.7601C2.04755 30.0526 2.04755 36.7277 3.85734 43.0201C10.5073 66.0201 34.1874 64.2601 34.1874 64.2601C40.5851 64.462 46.9081 62.8388 52.4174 59.5802L62.7974 64.8302C63.1623 64.9845 63.5647 65.027 63.9538 64.9522C64.3428 64.8775 64.701 64.689 64.9827 64.4105C65.2644 64.132 65.4571 63.776 65.5363 63.3878C65.6155 62.9996 65.5776 62.5967 65.4274 62.2301Z" stroke="#E95322" stroke-width="5" stroke-linecap="round" stroke-linejoin="round"/>
</svg>
