<svg width="209" height="261" viewBox="0 0 209 261" fill="none" xmlns="http://www.w3.org/2000/svg">
<path d="M34.6905 222.13L26.0482 238.892V246.698H19.1832V238.892L10.5409 222.13H18.3468L22.6679 231.608L26.9891 222.13H34.6905ZM43.4781 222.13V236.383C43.4781 237.707 43.7801 238.729 44.3841 239.449C45.0114 240.169 45.9523 240.529 47.2068 240.529C48.4613 240.529 49.4022 240.169 50.0295 239.449C50.68 238.706 51.0052 237.684 51.0052 236.383V222.13H57.8354V236.383C57.8354 238.636 57.3592 240.564 56.4067 242.167C55.4541 243.747 54.1532 244.944 52.5037 245.757C50.8775 246.547 49.0654 246.941 47.0674 246.941C45.0695 246.941 43.2806 246.547 41.7009 245.757C40.1443 244.944 38.913 243.747 38.007 242.167C37.1242 240.588 36.6828 238.659 36.6828 236.383V222.13H43.4781ZM90.2758 222.13V246.698H83.4456V233.142L78.8108 246.698H73.0958L68.4262 233.037V246.698H61.596V222.13H69.8549L76.023 238.09L82.0517 222.13H90.2758Z" fill="#F5CB58"/>
<path d="M111.797 250.879L108.66 246.663C107.731 246.849 106.825 246.941 105.942 246.941C103.642 246.941 101.528 246.407 99.6 245.338C97.695 244.27 96.1733 242.783 95.035 240.878C93.9198 238.95 93.3623 236.789 93.3623 234.396C93.3623 232.003 93.9198 229.854 95.035 227.949C96.1733 226.044 97.695 224.558 99.6 223.489C101.528 222.42 103.642 221.886 105.942 221.886C108.242 221.886 110.345 222.42 112.25 223.489C114.178 224.558 115.688 226.044 116.78 227.949C117.895 229.854 118.453 232.003 118.453 234.396C118.453 236.487 118.023 238.404 117.163 240.146C116.327 241.865 115.154 243.294 113.644 244.432L119.01 250.879H111.797ZM99.4606 234.396C99.4606 236.557 100.041 238.288 101.203 239.589C102.388 240.866 103.968 241.505 105.942 241.505C107.894 241.505 109.45 240.855 110.612 239.554C111.797 238.253 112.389 236.534 112.389 234.396C112.389 232.236 111.797 230.516 110.612 229.239C109.45 227.938 107.894 227.287 105.942 227.287C103.968 227.287 102.388 227.926 101.203 229.204C100.041 230.482 99.4606 232.212 99.4606 234.396ZM127.69 222.234V236.87C127.69 238.334 128.051 239.461 128.771 240.251C129.491 241.041 130.548 241.435 131.942 241.435C133.336 241.435 134.404 241.041 135.148 240.251C135.891 239.461 136.263 238.334 136.263 236.87V222.234H142.222V236.836C142.222 239.019 141.757 240.866 140.828 242.376C139.899 243.886 138.644 245.025 137.064 245.791C135.508 246.558 133.766 246.941 131.837 246.941C129.909 246.941 128.178 246.57 126.645 245.826C125.135 245.06 123.938 243.921 123.056 242.411C122.173 240.878 121.731 239.019 121.731 236.836V222.234H127.69ZM152.365 222.234V246.698H146.406V222.234H152.365ZM155.673 234.431C155.673 232.015 156.196 229.866 157.241 227.984C158.287 226.079 159.739 224.604 161.597 223.559C163.479 222.49 165.605 221.956 167.975 221.956C170.879 221.956 173.364 222.722 175.432 224.255C177.5 225.789 178.882 227.88 179.579 230.528H173.027C172.54 229.506 171.843 228.728 170.937 228.193C170.054 227.659 169.043 227.392 167.905 227.392C166.07 227.392 164.583 228.031 163.444 229.308C162.306 230.586 161.737 232.294 161.737 234.431C161.737 236.568 162.306 238.276 163.444 239.554C164.583 240.831 166.07 241.47 167.905 241.47C169.043 241.47 170.054 241.203 170.937 240.669C171.843 240.134 172.54 239.356 173.027 238.334H179.579C178.882 240.982 177.5 243.073 175.432 244.607C173.364 246.117 170.879 246.872 167.975 246.872C165.605 246.872 163.479 246.349 161.597 245.304C159.739 244.235 158.287 242.76 157.241 240.878C156.196 238.996 155.673 236.847 155.673 234.431ZM197.411 246.698L189.187 235.895V246.698H183.228V222.234H189.187V232.967L197.341 222.234H204.346L194.867 234.222L204.694 246.698H197.411Z" fill="#F8F8F8"/>
<path d="M190.668 94.1293C204.545 79.3014 208.946 56.3067 201.524 37.4028C194.102 18.4988 175.232 4.64062 154.973 3.21577C124.265 1.0558 92.3053 30.1675 91.034 60.9268C90.723 68.4493 92.7929 76.9807 99.3326 80.7111C105.419 84.1831 113.728 81.9612 118.294 76.6456C122.86 71.3299 124.009 63.668 122.57 56.8097C121.131 49.9514 117.388 43.7857 113.09 38.251C98.5816 19.5684 78.4579 1.4403 53.2164 3.21577C32.9579 4.64098 14.0879 18.4988 6.6656 37.4028C-0.756661 56.3067 3.64401 79.3014 17.5213 94.1293" stroke="#F5CB58" stroke-width="6.18942" stroke-miterlimit="10" stroke-linecap="round" stroke-linejoin="round"/>
<path d="M132.885 158.874L112.351 178.849C107.833 183.245 100.591 183.081 96.276 178.484C90.4836 172.312 82.692 164.12 77.3004 158.874" stroke="#F5CB58" stroke-width="6.18942" stroke-miterlimit="10" stroke-linecap="round" stroke-linejoin="round"/>
<path d="M59.2669 139.727C67.7912 131.786 65.7028 115.689 54.6023 103.774C43.5018 91.8594 27.5927 88.6388 19.0685 96.5806C10.5442 104.522 12.6326 120.619 23.7331 132.534C34.8336 144.449 50.7426 147.669 59.2669 139.727Z" stroke="#F5CB58" stroke-width="6.18942" stroke-miterlimit="10" stroke-linecap="round" stroke-linejoin="round"/>
<path d="M186.316 100.13L157.945 133.109" stroke="#F5CB58" stroke-width="6.18942" stroke-miterlimit="10" stroke-linecap="round" stroke-linejoin="round"/>
<path d="M146.825 118.212L168.197 95.5755C178.902 85.9983 204.883 105.643 193.239 120.84L172.076 143.255" stroke="#F5CB58" stroke-width="6.18942" stroke-miterlimit="10" stroke-linecap="round" stroke-linejoin="round"/>
</svg>
