<svg width="702" height="93" viewBox="0 0 702 93" fill="none" xmlns="http://www.w3.org/2000/svg">
<rect width="702" height="93" rx="46.5" fill="#E95322"/>
<path d="M111.849 28.6364V65H104.161V28.6364H111.849ZM130.355 65.5327C127.561 65.5327 125.158 64.9408 123.146 63.7571C121.145 62.5616 119.606 60.9044 118.529 58.7855C117.464 56.6667 116.931 54.2282 116.931 51.4702C116.931 48.6766 117.47 46.2263 118.547 44.1193C119.636 42.0005 121.181 40.3492 123.181 39.1655C125.182 37.9699 127.561 37.3722 130.319 37.3722C132.698 37.3722 134.782 37.8042 136.569 38.6683C138.356 39.5324 139.771 40.7457 140.813 42.3082C141.854 43.8707 142.428 45.7055 142.535 47.8125H135.397C135.196 46.4512 134.663 45.3563 133.799 44.5277C132.947 43.6873 131.828 43.267 130.443 43.267C129.271 43.267 128.248 43.5866 127.372 44.2259C126.508 44.8532 125.833 45.7706 125.347 46.978C124.862 48.1854 124.619 49.6473 124.619 51.3636C124.619 53.1037 124.856 54.5833 125.33 55.8026C125.815 57.0218 126.496 57.951 127.372 58.5902C128.248 59.2294 129.271 59.549 130.443 59.549C131.307 59.549 132.083 59.3714 132.769 59.0163C133.468 58.6612 134.042 58.1463 134.492 57.4716C134.953 56.785 135.255 55.9624 135.397 55.0036H142.535C142.417 57.0869 141.848 58.9216 140.83 60.5078C139.824 62.0821 138.433 63.3132 136.658 64.201C134.882 65.0888 132.781 65.5327 130.355 65.5327ZM159.7 65.5327C156.942 65.5327 154.557 64.9467 152.545 63.7749C150.544 62.5911 149 60.9458 147.911 58.8388C146.821 56.7199 146.277 54.2637 146.277 51.4702C146.277 48.6529 146.821 46.1908 147.911 44.0838C149 41.965 150.544 40.3196 152.545 39.1477C154.557 37.964 156.942 37.3722 159.7 37.3722C162.458 37.3722 164.838 37.964 166.838 39.1477C168.85 40.3196 170.401 41.965 171.49 44.0838C172.579 46.1908 173.124 48.6529 173.124 51.4702C173.124 54.2637 172.579 56.7199 171.49 58.8388C170.401 60.9458 168.85 62.5911 166.838 63.7749C164.838 64.9467 162.458 65.5327 159.7 65.5327ZM159.736 59.6733C160.991 59.6733 162.038 59.3182 162.879 58.608C163.719 57.8859 164.352 56.9034 164.778 55.6605C165.216 54.4176 165.435 53.0031 165.435 51.4169C165.435 49.8307 165.216 48.4162 164.778 47.1733C164.352 45.9304 163.719 44.9479 162.879 44.2259C162.038 43.5038 160.991 43.1428 159.736 43.1428C158.469 43.1428 157.404 43.5038 156.54 44.2259C155.688 44.9479 155.042 45.9304 154.604 47.1733C154.178 48.4162 153.965 49.8307 153.965 51.4169C153.965 53.0031 154.178 54.4176 154.604 55.6605C155.042 56.9034 155.688 57.8859 156.54 58.608C157.404 59.3182 158.469 59.6733 159.736 59.6733ZM185.606 49.233V65H178.042V37.7273H185.251V42.5391H185.57C186.174 40.9529 187.186 39.6982 188.607 38.7749C190.027 37.8397 191.749 37.3722 193.773 37.3722C195.667 37.3722 197.319 37.7865 198.727 38.6151C200.136 39.4437 201.231 40.6274 202.012 42.1662C202.793 43.6932 203.184 45.5161 203.184 47.6349V65H195.62V48.9844C195.632 47.3153 195.206 46.0133 194.342 45.0781C193.478 44.1312 192.288 43.6577 190.773 43.6577C189.755 43.6577 188.855 43.8767 188.074 44.3146C187.304 44.7526 186.701 45.3918 186.263 46.2322C185.837 47.0608 185.618 48.0611 185.606 49.233ZM231.837 45.5043L224.912 45.9304C224.794 45.3385 224.54 44.8059 224.149 44.3324C223.758 43.8471 223.243 43.4624 222.604 43.1783C221.977 42.8823 221.225 42.7344 220.349 42.7344C219.177 42.7344 218.189 42.983 217.384 43.4801C216.579 43.9654 216.177 44.6165 216.177 45.4332C216.177 46.0843 216.437 46.6347 216.958 47.0845C217.479 47.5343 218.372 47.8954 219.639 48.1676L224.575 49.1619C227.227 49.7064 229.203 50.5824 230.506 51.7898C231.808 52.9972 232.459 54.5833 232.459 56.5483C232.459 58.3357 231.932 59.9041 230.878 61.2536C229.837 62.603 228.404 63.6565 226.581 64.4141C224.77 65.1598 222.681 65.5327 220.314 65.5327C216.703 65.5327 213.827 64.781 211.684 63.2777C209.554 61.7625 208.305 59.7029 207.938 57.0987L215.378 56.7081C215.603 57.8089 216.147 58.6494 217.011 59.2294C217.875 59.7976 218.982 60.0817 220.331 60.0817C221.657 60.0817 222.723 59.8272 223.528 59.3182C224.344 58.7973 224.759 58.1286 224.77 57.3118C224.759 56.6252 224.469 56.063 223.9 55.625C223.332 55.1752 222.456 54.8319 221.273 54.5952L216.55 53.6541C213.886 53.1214 211.903 52.1982 210.601 50.8842C209.311 49.5703 208.666 47.8954 208.666 45.8594C208.666 44.1075 209.14 42.5982 210.086 41.3317C211.045 40.0651 212.389 39.0885 214.117 38.402C215.857 37.7154 217.893 37.3722 220.225 37.3722C223.67 37.3722 226.38 38.1001 228.357 39.5561C230.346 41.0121 231.506 42.9948 231.837 45.5043Z" fill="#F8F8F8"/>
<circle cx="45" cy="47" r="35" fill="white"/>
<path d="M40.9754 66.4972C38.3239 66.4972 35.9624 66.0414 33.8909 65.13C31.8312 64.2067 30.2036 62.9401 29.0081 61.3303C27.8244 59.7086 27.2148 57.8383 27.1792 55.7195H34.9207C34.9681 56.6072 35.2581 57.3885 35.7907 58.0632C36.3353 58.7261 37.0573 59.241 37.9569 59.608C38.8566 59.9749 39.8686 60.1584 40.9932 60.1584C42.165 60.1584 43.2008 59.9512 44.1004 59.5369C45 59.1226 45.7043 58.5485 46.2133 57.8146C46.7223 57.0807 46.9768 56.2344 46.9768 55.2756C46.9768 54.3049 46.7046 53.4467 46.1601 52.701C45.6274 51.9434 44.858 51.3516 43.8518 50.9254C42.8575 50.4993 41.6738 50.2862 40.3007 50.2862H36.9094V44.6399H40.3007C41.4607 44.6399 42.4846 44.4387 43.3724 44.0362C44.272 43.6338 44.9704 43.0774 45.4676 42.3672C45.9648 41.6451 46.2133 40.8047 46.2133 39.8459C46.2133 38.9344 45.9943 38.1354 45.5564 37.4489C45.1302 36.7505 44.5265 36.206 43.7453 35.8153C42.9759 35.4247 42.0763 35.2294 41.0464 35.2294C40.0048 35.2294 39.0519 35.4188 38.1878 35.7976C37.3237 36.1645 36.6312 36.6913 36.1104 37.3778C35.5895 38.0644 35.3113 38.8693 35.2758 39.7926H27.9072C27.9427 37.6974 28.5405 35.8509 29.7006 34.2528C30.8606 32.6548 32.4231 31.406 34.3881 30.5064C36.3649 29.5949 38.5961 29.1392 41.0819 29.1392C43.5914 29.1392 45.7872 29.5949 47.6693 30.5064C49.5514 31.4178 51.0133 32.6489 52.055 34.1996C53.1085 35.7384 53.6293 37.4666 53.6175 39.3842C53.6293 41.4202 52.996 43.1188 51.7176 44.4801C50.451 45.8414 48.7997 46.7055 46.7638 47.0724V47.3565C49.439 47.6998 51.4749 48.629 52.8717 50.1442C54.2803 51.6475 54.9787 53.5296 54.9669 55.7905C54.9787 57.862 54.3809 59.7027 53.1736 61.3125C51.978 62.9223 50.3267 64.1889 48.2197 65.1122C46.1127 66.0355 43.6979 66.4972 40.9754 66.4972ZM63.9601 66.4616C62.7883 66.4616 61.7821 66.0473 60.9417 65.2188C60.1131 64.3783 59.6988 63.3722 59.6988 62.2003C59.6988 61.0402 60.1131 60.0459 60.9417 59.2173C61.7821 58.3887 62.7883 57.9744 63.9601 57.9744C65.0965 57.9744 66.0908 58.3887 66.9431 59.2173C67.7954 60.0459 68.2215 61.0402 68.2215 62.2003C68.2215 62.9815 68.0203 63.6977 67.6178 64.3487C67.2272 64.9879 66.7123 65.5028 66.0731 65.8935C65.4339 66.2723 64.7296 66.4616 63.9601 66.4616Z" fill="#E95322"/>
</svg>
