<svg width="209" height="261" viewBox="0 0 209 261" fill="none" xmlns="http://www.w3.org/2000/svg">
<path d="M34.6905 222.13L26.0482 238.892V246.698H19.1832V238.892L10.5409 222.13H18.3468L22.6679 231.608L26.9891 222.13H34.6905ZM43.4781 222.13V236.383C43.4781 237.707 43.7801 238.729 44.3841 239.449C45.0114 240.169 45.9523 240.529 47.2068 240.529C48.4613 240.529 49.4022 240.169 50.0295 239.449C50.68 238.706 51.0052 237.684 51.0052 236.383V222.13H57.8354V236.383C57.8354 238.636 57.3592 240.564 56.4067 242.167C55.4541 243.747 54.1532 244.944 52.5037 245.757C50.8775 246.547 49.0654 246.941 47.0674 246.941C45.0695 246.941 43.2806 246.547 41.7009 245.757C40.1443 244.944 38.913 243.747 38.007 242.167C37.1242 240.588 36.6828 238.659 36.6828 236.383V222.13H43.4781ZM90.2758 222.13V246.698H83.4456V233.142L78.8108 246.698H73.0958L68.4262 233.037V246.698H61.596V222.13H69.8549L76.023 238.09L82.0517 222.13H90.2758Z" fill="#FF642F"/>
<path d="M110.995 250.81L108.277 246.732C107.511 246.872 106.732 246.941 105.942 246.941C103.642 246.941 101.528 246.407 99.6 245.338C97.6718 244.247 96.1385 242.748 95.0001 240.843C93.885 238.915 93.3274 236.743 93.3274 234.327C93.3274 231.91 93.885 229.75 95.0001 227.845C96.1385 225.917 97.6718 224.418 99.6 223.349C101.528 222.281 103.642 221.746 105.942 221.746C108.266 221.746 110.38 222.281 112.285 223.349C114.213 224.418 115.735 225.917 116.85 227.845C117.965 229.75 118.522 231.91 118.522 234.327C118.522 236.348 118.116 238.218 117.303 239.937C116.49 241.633 115.375 243.05 113.957 244.188L119.15 250.81H110.995ZM100.297 234.327C100.297 236.255 100.796 237.788 101.795 238.926C102.794 240.042 104.177 240.599 105.942 240.599C107.685 240.599 109.055 240.03 110.054 238.892C111.077 237.753 111.588 236.232 111.588 234.327C111.588 232.375 111.077 230.842 110.054 229.727C109.055 228.588 107.685 228.019 105.942 228.019C104.177 228.019 102.794 228.588 101.795 229.727C100.796 230.842 100.297 232.375 100.297 234.327ZM128.318 222.13V236.383C128.318 237.707 128.62 238.729 129.224 239.449C129.851 240.169 130.792 240.529 132.046 240.529C133.301 240.529 134.242 240.169 134.869 239.449C135.52 238.706 135.845 237.684 135.845 236.383V222.13H142.675V236.383C142.675 238.636 142.199 240.564 141.246 242.167C140.294 243.747 138.993 244.944 137.343 245.757C135.717 246.547 133.905 246.941 131.907 246.941C129.909 246.941 128.12 246.547 126.54 245.757C124.984 244.944 123.753 243.747 122.847 242.167C121.964 240.588 121.522 238.659 121.522 236.383V222.13H128.318ZM153.266 222.13V246.698H146.436V222.13H153.266ZM156.319 234.361C156.319 231.945 156.819 229.796 157.817 227.915C158.84 226.009 160.28 224.534 162.139 223.489C163.997 222.42 166.135 221.886 168.551 221.886C171.617 221.886 174.196 222.711 176.287 224.36C178.378 225.986 179.725 228.205 180.329 231.016H172.976C172.535 230.087 171.919 229.378 171.129 228.89C170.363 228.402 169.468 228.158 168.446 228.158C166.866 228.158 165.6 228.728 164.648 229.866C163.718 230.981 163.254 232.48 163.254 234.361C163.254 236.266 163.718 237.788 164.648 238.926C165.6 240.042 166.866 240.599 168.446 240.599C169.468 240.599 170.363 240.355 171.129 239.867C171.919 239.379 172.535 238.671 172.976 237.742H180.329C179.725 240.553 178.378 242.783 176.287 244.432C174.196 246.059 171.617 246.872 168.551 246.872C166.135 246.872 163.997 246.349 162.139 245.304C160.28 244.235 158.84 242.76 157.817 240.878C156.819 238.973 156.319 236.801 156.319 234.361ZM198.095 246.698L190.394 235.93V246.698H183.564V222.13H190.394V232.724L198.025 222.13H205.901L196.875 234.048L206.354 246.698H198.095Z" fill="#F8F8F8"/>
<path d="M190.668 94.1293C204.545 79.3014 208.946 56.3067 201.524 37.4028C194.102 18.4988 175.232 4.64062 154.973 3.21577C124.265 1.0558 92.3053 30.1675 91.034 60.9268C90.723 68.4493 92.7929 76.9807 99.3326 80.7111C105.419 84.1831 113.728 81.9612 118.294 76.6456C122.86 71.3299 124.009 63.668 122.57 56.8097C121.131 49.9514 117.388 43.7857 113.09 38.251C98.5816 19.5684 78.4579 1.4403 53.2164 3.21577C32.9579 4.64098 14.0879 18.4988 6.6656 37.4028C-0.756661 56.3067 3.64401 79.3014 17.5213 94.1293" stroke="#FF642F" stroke-width="6.18942" stroke-miterlimit="10" stroke-linecap="round" stroke-linejoin="round"/>
<path d="M132.885 158.874L112.351 178.849C107.833 183.245 100.59 183.081 96.2759 178.484C90.4836 172.312 82.6919 164.12 77.3003 158.874" stroke="#FF642F" stroke-width="6.18942" stroke-miterlimit="10" stroke-linecap="round" stroke-linejoin="round"/>
<path d="M59.267 139.727C67.7913 131.786 65.7029 115.689 54.6024 103.774C43.5019 91.8594 27.5928 88.6388 19.0685 96.5806C10.5442 104.522 12.6327 120.619 23.7331 132.534C34.8336 144.449 50.7427 147.669 59.267 139.727Z" stroke="#FF642F" stroke-width="6.18942" stroke-miterlimit="10" stroke-linecap="round" stroke-linejoin="round"/>
<path d="M186.316 100.13L157.945 133.109" stroke="#FF642F" stroke-width="6.18942" stroke-miterlimit="10" stroke-linecap="round" stroke-linejoin="round"/>
<path d="M146.825 118.212L168.197 95.5755C178.902 85.9983 204.883 105.643 193.239 120.84L172.076 143.255" stroke="#FF642F" stroke-width="6.18942" stroke-miterlimit="10" stroke-linecap="round" stroke-linejoin="round"/>
</svg>
