<svg width="76" height="53" viewBox="0 0 76 53" fill="none" xmlns="http://www.w3.org/2000/svg">
<path d="M13.5521 50.0298V26.73C13.5706 20.3095 16.1293 14.1572 20.6693 9.61719C25.2093 5.07718 31.3616 2.51847 37.7821 2.5C44.2026 2.51847 50.3549 5.07718 54.8949 9.61719C59.4349 14.1572 61.9936 20.3095 62.0121 26.73V49.99M27.0221 19.0198C28.1156 17.1338 29.6847 15.568 31.5729 14.4783C33.461 13.3886 35.6021 12.8132 37.7821 12.8098C39.9634 12.8134 42.1057 13.3887 43.9954 14.4783C45.8851 15.5679 47.4562 17.1337 48.5521 19.0198M71.342 30.1299C69.532 27.2399 65.792 26.54 62.572 26.45H62.0121V50.0898C64.3702 50.2176 66.7208 49.7282 68.832 48.6699C71.532 47.0099 72.5921 43.67 72.9121 40.75C73.0226 39.7538 73.0793 38.7523 73.082 37.75C73.2268 35.0972 72.6239 32.4569 71.342 30.1299ZM4.25212 30.1299C6.07212 27.2399 9.81215 26.54 13.0322 26.45H13.5821V50.0898C11.2272 50.2167 8.88004 49.7274 6.77214 48.6699C4.07214 47.0099 3.01207 43.67 2.69207 40.75C2.58159 39.7538 2.52492 38.7523 2.52214 37.75C2.37378 35.0981 2.97319 32.4577 4.25212 30.1299Z" stroke="#E95322" stroke-width="5" stroke-linecap="round" stroke-linejoin="round"/>
</svg>
