<svg width="70" height="66" viewBox="0 0 70 66" fill="none" xmlns="http://www.w3.org/2000/svg">
<path d="M34.5323 10.0836C34.5323 10.0836 33.156 11.2273 31.7322 13.2648M28.7022 24.0836C28.2323 19.4716 30.0168 15.7196 31.7322 13.2648M31.7322 13.2648C33.384 10.9092 35.4347 9.08573 37.5321 7.69842M37.5321 7.69842C41.2247 5.25591 45.062 4.1654 47.1218 3.90329C49.53 3.80753 51.9327 4.20135 54.1843 5.06076C56.436 5.92017 58.49 7.22732 60.2219 8.90329C67.7119 16.2433 68.8118 30.0834 62.0418 38.2534C55.2718 46.4234 44.1721 50.0435 37.3421 58.3535C36.2355 59.6756 35.292 61.1258 34.532 62.6733C33.7755 61.1261 32.8356 59.6759 31.7322 58.3535C24.8922 50.0435 13.8617 46.5034 7.02175 38.2534C0.181746 30.0034 1.35206 16.2533 8.84206 8.90329C12.8547 4.10335 22.0321 -2.10648 37.5321 7.69842Z" stroke="#E95322" stroke-width="5" stroke-linecap="round" stroke-linejoin="round"/>
</svg>
