<svg width="75" height="66" viewBox="0 0 75 66" fill="none" xmlns="http://www.w3.org/2000/svg">
<path d="M62.54 21.9539V51.4409C62.54 54.6235 61.2757 57.6756 59.0253 59.926C56.7748 62.1765 53.7226 63.4409 50.54 63.4409H45.43V52.231C45.43 50.0827 44.5766 48.0222 43.0576 46.5032C41.5385 44.9841 39.4783 44.1309 37.33 44.1309C35.1818 44.1309 33.1215 44.9841 31.6024 46.5032C30.0834 48.0222 29.23 50.0827 29.23 52.231V63.4409H24.12C20.9374 63.4409 17.8851 62.1765 15.6347 59.926C13.3843 57.6756 12.12 54.6235 12.12 51.4409V21.954M72.16 32.481L49.78 7.99097C48.2002 6.26095 46.2771 4.87899 44.1335 3.93359C41.9899 2.98819 39.6728 2.5 37.33 2.5C34.9872 2.5 32.6701 2.98819 30.5265 3.93359C28.3829 4.87899 26.4598 6.26095 24.88 7.99097L2.5 32.481" stroke="#E95322" stroke-width="5" stroke-linecap="round" stroke-linejoin="round"/>
</svg>
