<svg width="89" height="19" viewBox="0 0 89 19" fill="none" xmlns="http://www.w3.org/2000/svg">
<path d="M3.90624 14.8437C3.19009 14.8437 2.53609 14.6691 1.94424 14.3199C1.35238 13.9648 0.878895 13.4913 0.523782 12.8994C0.174586 12.3076 -1.11312e-05 11.6536 -1.11312e-05 10.9374C-1.11312e-05 10.2154 0.174586 9.56138 0.523782 8.97544C0.878895 8.38359 1.35238 7.91306 1.94424 7.56386C2.53609 7.20875 3.19009 7.03119 3.90624 7.03119C4.6283 7.03119 5.2823 7.20875 5.86824 7.56386C6.4601 7.91306 6.93062 8.38359 7.27982 8.97544C7.63493 9.56138 7.81249 10.2154 7.81249 10.9374C7.81249 11.6536 7.63493 12.3076 7.27982 12.8994C6.93062 13.4913 6.4601 13.9648 5.86824 14.3199C5.2823 14.6691 4.6283 14.8437 3.90624 14.8437ZM28.0817 -5.60284e-05V18.1818H24.2376V-5.60284e-05H28.0817ZM37.3346 18.4481C35.9379 18.4481 34.7364 18.1522 33.7302 17.5603C32.73 16.9625 31.9606 16.1339 31.422 15.0745C30.8893 14.0151 30.623 12.7959 30.623 11.4168C30.623 10.0201 30.8923 8.79493 31.4309 7.74142C31.9754 6.682 32.7478 5.85636 33.748 5.2645C34.7482 4.66673 35.9379 4.36784 37.3169 4.36784C38.5065 4.36784 39.5482 4.58387 40.4419 5.01592C41.3356 5.44798 42.0429 6.05463 42.5637 6.83588C43.0845 7.61713 43.3716 8.53451 43.4248 9.58801H39.8559C39.7553 8.90738 39.489 8.35991 39.0569 7.94561C38.6308 7.52539 38.0715 7.31529 37.379 7.31529C36.7931 7.31529 36.2811 7.47509 35.8432 7.79469C35.4111 8.10837 35.0737 8.56706 34.8311 9.17075C34.5884 9.77445 34.4671 10.5054 34.4671 11.3636C34.4671 12.2336 34.5855 12.9734 34.8222 13.583C35.0649 14.1927 35.4052 14.6573 35.8432 14.9769C36.2811 15.2965 36.7931 15.4563 37.379 15.4563C37.8111 15.4563 38.1987 15.3675 38.542 15.1899C38.8912 15.0124 39.1783 14.7549 39.4032 14.4176C39.634 14.0743 39.7849 13.6629 39.8559 13.1835H43.4248C43.3657 14.2252 43.0816 15.1426 42.5726 15.9357C42.0695 16.7228 41.3741 17.3384 40.4863 17.7823C39.5985 18.2262 38.5479 18.4481 37.3346 18.4481ZM52.0075 18.4481C50.6285 18.4481 49.4359 18.1551 48.4297 17.5692C47.4295 16.9773 46.6571 16.1547 46.1126 15.1012C45.5681 14.0417 45.2958 12.8136 45.2958 11.4168C45.2958 10.0082 45.5681 8.77717 46.1126 7.72367C46.6571 6.66424 47.4295 5.84156 48.4297 5.25563C49.4359 4.66377 50.6285 4.36784 52.0075 4.36784C53.3865 4.36784 54.5761 4.66377 55.5764 5.25563C56.5825 5.84156 57.3579 6.66424 57.9024 7.72367C58.4469 8.77717 58.7191 10.0082 58.7191 11.4168C58.7191 12.8136 58.4469 14.0417 57.9024 15.1012C57.3579 16.1547 56.5825 16.9773 55.5764 17.5692C54.5761 18.1551 53.3865 18.4481 52.0075 18.4481ZM52.0252 15.5184C52.6526 15.5184 53.1764 15.3409 53.5966 14.9857C54.0168 14.6247 54.3335 14.1335 54.5466 13.512C54.7655 12.8906 54.875 12.1833 54.875 11.3902C54.875 10.5971 54.7655 9.88986 54.5466 9.26841C54.3335 8.64696 54.0168 8.15572 53.5966 7.79469C53.1764 7.43366 52.6526 7.25314 52.0252 7.25314C51.392 7.25314 50.8593 7.43366 50.4272 7.79469C50.0011 8.15572 49.6785 8.64696 49.4596 9.26841C49.2465 9.88986 49.1399 10.5971 49.1399 11.3902C49.1399 12.1833 49.2465 12.8906 49.4596 13.512C49.6785 14.1335 50.0011 14.6247 50.4272 14.9857C50.8593 15.3409 51.392 15.5184 52.0252 15.5184ZM64.9603 10.2982V18.1818H61.1783V4.5454H64.7827V6.95129H64.9425C65.2444 6.15821 65.7504 5.53084 66.4606 5.06919C67.1708 4.60163 68.032 4.36784 69.0441 4.36784C69.991 4.36784 70.8167 4.57499 71.521 4.98929C72.2253 5.40359 72.7728 5.99545 73.1634 6.76486C73.554 7.52835 73.7493 8.43981 73.7493 9.49923V18.1818H69.9674V10.174C69.9733 9.33943 69.7602 8.68839 69.3282 8.22083C68.8961 7.74734 68.3013 7.5106 67.5437 7.5106C67.0347 7.5106 66.5849 7.62009 66.1943 7.83908C65.8096 8.05806 65.5077 8.37767 65.2887 8.79788C65.0757 9.21218 64.9662 9.7123 64.9603 10.2982ZM88.0759 8.43389L84.6136 8.64696C84.5544 8.35103 84.4271 8.0847 84.2318 7.84796C84.0365 7.60529 83.7791 7.41294 83.4595 7.2709C83.1458 7.12293 82.7699 7.04895 82.332 7.04895C81.746 7.04895 81.2518 7.17324 80.8494 7.42182C80.4469 7.66448 80.2457 7.99 80.2457 8.39838C80.2457 8.7239 80.3759 8.99912 80.6363 9.22402C80.8967 9.44893 81.3436 9.62944 81.9769 9.76557L84.4449 10.2627C85.7707 10.535 86.7591 10.973 87.4101 11.5766C88.0611 12.1803 88.3867 12.9734 88.3867 13.9559C88.3867 14.8496 88.1233 15.6338 87.5965 16.3085C87.0757 16.9833 86.3596 17.51 85.4481 17.8888C84.5426 18.2617 83.4979 18.4481 82.3142 18.4481C80.5091 18.4481 79.0708 18.0723 77.9996 17.3206C76.9342 16.563 76.3098 15.5332 76.1264 14.2311L79.8462 14.0358C79.9586 14.5862 80.2309 15.0065 80.6629 15.2965C81.095 15.5806 81.6484 15.7226 82.3231 15.7226C82.986 15.7226 83.5186 15.5954 83.9211 15.3409C84.3295 15.0804 84.5366 14.746 84.5426 14.3377C84.5366 13.9944 84.3916 13.7132 84.1075 13.4943C83.8235 13.2694 83.3855 13.0977 82.7936 12.9793L80.4321 12.5088C79.1004 12.2425 78.1091 11.7808 77.458 11.1239C76.8129 10.4669 76.4904 9.62944 76.4904 8.61145C76.4904 7.7355 76.7271 6.98089 77.2006 6.3476C77.68 5.71431 78.3517 5.22603 79.2159 4.88276C80.0859 4.53948 81.1039 4.36784 82.2698 4.36784C83.9921 4.36784 85.3475 4.73183 86.3359 5.45982C87.3302 6.1878 87.9102 7.17916 88.0759 8.43389Z" fill="#E95322"/>
</svg>
