<svg width="73" height="71" viewBox="0 0 73 71" fill="none" xmlns="http://www.w3.org/2000/svg">
<path d="M36.1551 18.782V40.882M36.155 68.1221C36.155 68.1221 59.295 69.8219 67.425 48.4219C70.5949 39.9762 70.5949 30.6676 67.425 22.2219C59.295 0.831923 36.155 2.53198 36.155 2.53198C36.155 2.53198 13.005 0.831923 4.88496 22.2219C1.70501 30.6658 1.70501 39.978 4.88496 48.4219C12.995 69.8219 36.155 68.1221 36.155 68.1221Z" stroke="#E95322" stroke-width="5" stroke-linecap="round" stroke-linejoin="round"/>
<path d="M38.5 54.907C38.5 56.2877 37.3807 57.407 36 57.407C34.6193 57.407 33.5 56.2877 33.5 54.907C33.5 53.5263 34.6193 52.407 36 52.407C37.3807 52.407 38.5 53.5263 38.5 54.907Z" fill="#E95322"/>
</svg>
