<svg width="80" height="80" viewBox="0 0 80 80" fill="none" xmlns="http://www.w3.org/2000/svg">
<path d="M44.9732 77.318L42.9294 77.4228H36.9029L34.8591 77.318H34.5185L33.418 77.2394H32.8154L31.8591 77.1477L30.549 77.0036H30.2214C18.3912 75.5362 6.66579 70.571 3.80977 57.1948C2.55731 51.6884 2.02451 46.0428 2.2246 40.3993C2.06967 35.04 2.56679 29.6817 3.70502 24.4423L3.79666 24.3506C5.35568 17.7346 8.36893 11.6426 13.9762 7.96126C21.1293 3.2711 30.038 2.18371 38.2393 2.18371H41.5799C49.7943 2.17061 58.703 3.2711 65.843 7.96126C71.4503 11.6426 74.4635 17.8001 76.0356 24.3506L76.1142 24.4423C77.2524 29.6817 77.7495 35.04 77.5946 40.3993C77.8011 46.043 77.2682 51.6895 76.0094 57.1948C73.1796 70.571 61.3886 75.4969 49.5977 77.0036H49.2833L47.9732 77.1477L47.0038 77.2394H46.4143L45.3137 77.318H44.9732Z" stroke="#E95322" stroke-width="4.36703" stroke-linejoin="round"/>
<circle cx="59.1483" cy="18.442" r="3.9303" fill="#E95322"/>
</svg>
