<svg width="37" height="54" viewBox="0 0 37 54" fill="none" xmlns="http://www.w3.org/2000/svg">
<path d="M18.3006 50.8833V23.7034H30.3704C31.0638 23.6961 31.742 23.4978 32.3299 23.1301C32.9178 22.7625 33.3928 22.2398 33.7029 21.6196C34.013 20.9994 34.1464 20.3057 34.0877 19.6147C34.0291 18.9238 33.7806 18.2624 33.3704 17.7034L23.9608 5.31348C23.2987 4.43926 22.4428 3.73007 21.4608 3.24194C20.4788 2.75381 19.3972 2.5 18.3006 2.5C17.204 2.5 16.1224 2.75381 15.1404 3.24194C14.1584 3.73007 13.3025 4.43926 12.6404 5.31348L3.23078 17.7034C2.82058 18.2624 2.57214 18.9238 2.51349 19.6147C2.45485 20.3057 2.58816 20.9994 2.89826 21.6196C3.20836 22.2398 3.68338 22.7625 4.2713 23.1301C4.85923 23.4978 5.53741 23.6961 6.23078 23.7034H8.8006" stroke="#E95322" stroke-width="5" stroke-linecap="round" stroke-linejoin="round"/>
</svg>
