<svg width="73" height="71" viewBox="0 0 73 71" fill="none" xmlns="http://www.w3.org/2000/svg">
<path d="M26.0575 35.3219H59.1476M45.9275 35.3219V41.8119M54.6075 35.3219V45.3319M20.2775 24.2919C23.4753 24.2919 26.0675 26.8842 26.0675 30.0819V40.5619C26.0675 43.7597 23.4753 46.3519 20.2775 46.3519C17.0798 46.3519 14.4875 43.7597 14.4875 40.5619V30.0819C14.4875 26.8842 17.0798 24.2919 20.2775 24.2919ZM36.1475 68.1118C36.1475 68.1118 59.2975 69.8119 67.4175 48.4219C70.5874 39.9762 70.5874 30.6676 67.4175 22.2219C59.2975 0.831923 36.1475 2.53198 36.1475 2.53198C36.1475 2.53198 12.9974 0.831923 4.87744 22.2219C1.70752 30.6676 1.70752 39.9762 4.87744 48.4219C12.9974 69.8119 36.1475 68.1118 36.1475 68.1118Z" stroke="#E95322" stroke-width="5" stroke-linecap="round" stroke-linejoin="round"/>
</svg>
