<svg width="64" height="49" viewBox="0 0 64 49" fill="none" xmlns="http://www.w3.org/2000/svg">
<path d="M2.50073 27.7021L25.5007 36.4224C29.4089 37.882 33.7125 37.882 37.6206 36.4224L60.6206 27.7021M2.50073 36.6023L25.5007 45.3223C29.4089 46.7819 33.7125 46.7819 37.6206 45.3223L60.6206 36.6023M55.7507 9.86231L36.7507 3.36231C33.3794 2.21256 29.7219 2.21256 26.3506 3.36231L7.35059 9.86231C6.19753 10.2598 5.19732 11.0072 4.48926 12.0002C3.78119 12.9933 3.40063 14.1827 3.40063 15.4023C3.40063 16.622 3.78119 17.8111 4.48926 18.8042C5.19732 19.7973 6.19753 20.5449 7.35059 20.9424L26.1106 27.3623C29.6106 28.5623 33.4106 28.5623 36.9106 27.3623L55.6707 20.9424C56.8266 20.5533 57.8323 19.8129 58.5476 18.825C59.2629 17.837 59.6521 16.6506 59.6609 15.4309C59.6697 14.2112 59.2979 13.019 58.5969 12.0208C57.896 11.0226 56.901 10.2681 55.7507 9.86231Z" stroke="#E95322" stroke-width="5" stroke-linecap="round" stroke-linejoin="round"/>
</svg>
