<svg width="84" height="79" viewBox="0 0 84 79" fill="none" xmlns="http://www.w3.org/2000/svg">
<path d="M45.1702 24.3894V75.8894L58.7903 66.9395C61.1592 65.3808 63.1037 63.2582 64.4495 60.7622C65.7952 58.2662 66.4999 55.4751 66.5003 52.6394V50.6995M45.1702 24.3894V75.8694L23.8303 61.8694M45.1702 24.3894C45.1678 23.1984 44.8695 22.0265 44.3023 20.9792M23.8303 61.8694V6.49927M23.8303 61.8694L12.7002 69.1895C11.705 69.8411 10.5519 70.2112 9.36332 70.2605C8.17476 70.3098 6.99504 70.0365 5.94926 69.4695C4.90348 68.9025 4.03087 68.063 3.42362 67.04C2.81638 66.0171 2.49726 64.849 2.50028 63.6594V23.6594C2.49871 22.6954 2.73741 21.7463 3.19487 20.8977C3.65232 20.0492 4.31396 19.3279 5.12016 18.7993L23.8303 6.49927M44.3023 20.9792C43.735 19.932 42.9165 19.0421 41.9202 18.3894L23.8303 6.49927M44.3023 20.9792L51.4802 15.5394M2.50024 56.6594L23.8402 42.7094L45.1702 56.7094M66.3902 22.3894C67.4255 22.4475 68.4532 22.1822 69.3311 21.6304C70.209 21.0786 70.8938 20.2674 71.2904 19.3093C71.7904 17.9884 71.7904 16.5304 71.2904 15.2095C70.8503 14.2839 70.1568 13.502 69.2904 12.9546C68.424 12.4072 67.4202 12.1165 66.3953 12.1165C65.3705 12.1165 64.3665 12.4072 63.5001 12.9546C62.6337 13.502 61.9403 14.2839 61.5003 15.2095C61.0002 16.5304 61.0002 17.9884 61.5003 19.3093C61.8963 20.2657 62.5793 21.0758 63.4552 21.6274C64.331 22.1791 65.3566 22.4454 66.3902 22.3894ZM80.4602 11.3693C77.0202 2.30931 67.5902 2.4592 66.4602 2.5092C65.3302 2.5592 55.9503 2.30931 52.5103 11.3693C51.1354 15.1832 51.0757 19.3475 52.3404 23.1994C54.6504 31.0194 61.0002 38.3692 66.4502 43.2692C71.9002 38.3692 78.2503 31.0194 80.5603 23.1994C81.8476 19.3553 81.8123 15.1911 80.4602 11.3693Z" stroke="#E95322" stroke-width="5" stroke-linecap="round" stroke-linejoin="round"/>
</svg>
