<svg width="58" height="74" viewBox="0 0 58 74" fill="none" xmlns="http://www.w3.org/2000/svg">
<path d="M28.6152 50.41V56.46M12.5152 28.4649V18.5901C12.5284 14.3268 14.2278 10.2419 17.2424 7.22729C20.257 4.21269 24.3419 2.51319 28.6052 2.5C32.8685 2.51319 36.9534 4.21269 39.968 7.22729C42.9826 10.2419 44.682 14.3268 44.6952 18.5901V28.4763M28.6052 71.3101C28.6052 71.3101 46.6052 72.53 52.8652 57.18C55.3255 51.1582 55.3255 44.4119 52.8652 38.3902C46.5652 23.0502 28.6052 24.27 28.6052 24.27C28.6052 24.27 10.6052 23.0502 4.34523 38.3902C1.88492 44.4119 1.88492 51.1582 4.34523 57.18C10.6452 72.53 28.6052 71.3101 28.6052 71.3101ZM28.6052 50.4199C28.6052 50.4199 32.6952 50.6899 34.1352 47.1999C34.6949 45.8247 34.6949 44.2851 34.1352 42.9099C32.6952 39.4199 28.6052 39.6999 28.6052 39.6999C28.6052 39.6999 24.5152 39.4199 23.0752 42.9099C22.5155 44.2851 22.5155 45.8247 23.0752 47.1999C24.5152 50.6899 28.6052 50.4199 28.6052 50.4199Z" stroke="#E95322" stroke-width="5" stroke-linecap="round" stroke-linejoin="round"/>
</svg>
