<svg width="66" height="74" viewBox="0 0 66 74" fill="none" xmlns="http://www.w3.org/2000/svg">
<path d="M2.5 36.7733H35.22M26.81 27.9634L33.2802 32.8733C33.8831 33.3303 34.3718 33.9207 34.7084 34.5981C35.045 35.2756 35.2202 36.0218 35.2202 36.7783C35.2202 37.5348 35.045 38.281 34.7084 38.9585C34.3718 39.636 33.8831 40.2264 33.2802 40.6833L26.81 45.5933M48.59 15.2233V58.3233M15.3798 50.4533C21.3798 72.7933 38.3198 71.0134 38.3198 71.0134C38.3198 71.0134 55.3199 72.7933 61.2499 50.4533C63.5799 41.4821 63.5799 32.0644 61.2499 23.0932C55.2499 0.763199 38.3198 2.53314 38.3198 2.53314C38.3198 2.53314 21.3198 0.763199 15.3798 23.0932" stroke="#E95322" stroke-width="5" stroke-linecap="round" stroke-linejoin="round"/>
</svg>
