<svg width="71" height="94" viewBox="0 0 71 94" fill="none" xmlns="http://www.w3.org/2000/svg">
<path d="M67.9183 70.3124C67.6257 69.6471 67.0933 69.1192 66.4291 68.8358C61.972 66.658 58.7925 60.6977 58.7783 53.5625C58.7783 47.3157 61.2765 41.8998 64.9528 39.2349C65.2665 39.0009 65.5292 38.7042 65.7242 38.3632C65.9193 38.0223 66.0426 37.6444 66.0865 37.2532C66.1305 36.862 66.0941 36.4658 65.9796 36.0894C65.8652 35.713 65.6752 35.3645 65.4213 35.0655C61.3901 30.4234 55.6981 27.3143 49.552 28.1166C45.7621 28.6181 42.5257 31.326 38.6649 31.7415C35.8118 32.0424 33.626 30.8675 31.1419 29.7643C28.799 28.6546 26.2534 28.0473 23.6662 27.9807C21.0789 27.9141 18.5062 28.3897 16.1102 29.3775C-4.35807 38.0314 1.2486 67.0448 10.6878 81.9026C14.4635 87.9345 21.2627 93.8088 28.6579 90.055C31.951 88.4073 35.1731 85.3842 39.1192 86.4301C44.6124 87.9059 48.3171 93.4077 54.3639 90.4562C62.3269 86.5447 66.4149 77.1458 68.0046 72.4177C68.2418 71.7303 68.211 70.9776 67.9183 70.3124Z" stroke="#E95322" stroke-width="4.36703" stroke-linecap="round" stroke-linejoin="round"/>
<path d="M36.7486 21.0674C36.7486 21.0674 31.9935 3.05758 49.5236 2.18359C49.5661 2.18359 54.5342 17.5285 36.7486 21.0674Z" stroke="#E95322" stroke-width="4.36703" stroke-linecap="round" stroke-linejoin="round"/>
</svg>
