<svg width="65" height="70" viewBox="0 0 65 70" fill="none" xmlns="http://www.w3.org/2000/svg">
<path d="M44.8465 2.5V24.2M44.8465 44.94V66.64M53.5565 66.6399H35.4265C14.3265 66.6399 3.15647 53.14 2.52647 35.75C1.87647 17.5301 13.2165 2.50005 34.5765 2.50005H54.4865C56.5111 2.50005 58.4527 3.30356 59.8852 4.73418C61.3177 6.1648 62.1238 8.10541 62.1264 10.1299V16.8899C62.1264 18.8287 61.3563 20.688 59.9855 22.0589C58.6146 23.4298 56.7552 24.2 54.8165 24.2H34.9265C29.7065 24.2 24.7164 28.4199 24.2564 33.6199C24.126 35.0549 24.2958 36.5014 24.7549 37.8672C25.214 39.2331 25.9523 40.4882 26.9231 41.553C27.8938 42.6179 29.0756 43.469 30.3933 44.0521C31.7109 44.6352 33.1356 44.9376 34.5765 44.94H53.5765C55.8494 44.94 58.0293 45.8428 59.6365 47.45C61.2436 49.0572 62.1465 51.2372 62.1465 53.5101V58.0701C62.1465 59.1972 61.9242 60.3132 61.4923 61.3543C61.0604 62.3954 60.4273 63.341 59.6294 64.137C58.8315 64.9331 57.8843 65.564 56.8423 65.9935C55.8002 66.423 54.6836 66.6426 53.5565 66.6399Z" stroke="#E95322" stroke-width="5" stroke-linecap="round" stroke-linejoin="round"/>
</svg>
