<svg width="69" height="87" viewBox="0 0 69 87" fill="none" xmlns="http://www.w3.org/2000/svg">
<path d="M59.5132 77.0437C58.2549 72.8269 59.7276 68.3088 61.3719 64.2211C64.1563 57.7791 65.6759 50.859 65.8475 43.8398C65.8475 31.175 61.472 18.1086 52.0776 9.34503C47.2957 4.99508 41.1423 2.46841 34.6921 2.20626C28.2419 1.9441 21.905 3.96312 16.7879 7.91073C5.62038 16.5165 2.03122 31.0172 2.18851 44.5282V51.0113M48.3456 21.7947C42.7404 14.6233 35.0333 11.7547 27.126 15.2544C20.9202 18.0082 16.7734 24.0609 14.6571 30.3287C11.9832 38.2174 13.2273 46.4932 12.355 54.64C11.8832 59.2441 10.2388 64.006 6.63544 66.8459M52.3637 29.0953C54.1318 33.7826 55.0237 38.7565 54.9946 43.7681C54.9644 50.1019 53.4975 56.3458 50.7049 62.0266C49.1178 65.2825 45.7717 71.0197 41.3391 68.7678C37.7214 66.9319 38.322 62.6864 39.3515 59.4449C41.3104 53.2918 44.1703 47.9705 44.4563 41.3441C44.728 35.1336 42.7834 28.6076 36.6348 25.9972C34.8849 25.2433 32.9346 25.0948 31.0913 25.5752C29.2481 26.0556 27.6165 27.1376 26.4538 28.6506C21.2347 35.8221 24.1804 43.7681 21.7639 51.671M31.4443 52.9332C29.0706 59.5883 26.3538 67.52 28.5845 74.5767C31.3156 83.1825 41.1388 86.1371 49.0319 83.3546M20.3626 61.2665C19.6216 63.9976 18.5608 66.6311 17.2024 69.1121C15.8387 71.6028 13.8717 73.709 11.4828 75.2365M33.6605 43.6533C34.2123 41.2227 34.3669 38.7183 34.1182 36.238C34.4292 38.7168 34.2739 41.232 33.6605 43.6533Z" stroke="#E95322" stroke-width="4.36703" stroke-linecap="round" stroke-linejoin="round"/>
</svg>
