<svg width="61" height="61" viewBox="0 0 61 61" fill="none" xmlns="http://www.w3.org/2000/svg">
<path d="M22.7941 37.2441L4.14414 55.8941M4.31426 40.2141L2.53423 53.134C2.45518 53.7252 2.51348 54.3268 2.70464 54.8918C2.8958 55.4569 3.21451 55.9701 3.63628 56.3918C4.05805 56.8136 4.57152 57.1326 5.13653 57.3237C5.70153 57.5149 6.30288 57.5732 6.89409 57.4941L19.8243 55.7241M37.2441 22.7941L56.4041 3.63409M55.7241 19.824L57.4941 6.89409C57.5732 6.30288 57.5149 5.70153 57.3237 5.13653C57.1326 4.57152 56.8136 4.05805 56.3918 3.63628C55.9701 3.21451 55.4569 2.8958 54.8918 2.70464C54.3268 2.51348 53.7252 2.45518 53.134 2.53423L40.2141 4.30425M37.2441 37.2441L55.8941 55.8941M40.2141 55.6941L53.134 57.4641C53.7256 57.5453 54.3281 57.4883 54.894 57.2979C55.46 57.1074 55.9742 56.7887 56.3965 56.3665C56.8187 55.9442 57.1377 55.43 57.3281 54.864C57.5185 54.298 57.5753 53.6956 57.4941 53.104L55.7241 40.1841M22.7941 22.7941L3.63414 3.63409M19.8243 4.30425L6.89409 2.53423C6.30288 2.45518 5.70153 2.51348 5.13653 2.70464C4.57152 2.8958 4.05805 3.21451 3.63628 3.63628C3.21451 4.05805 2.8958 4.57152 2.70464 5.13653C2.51348 5.70153 2.45518 6.30288 2.53423 6.89409L4.31426 19.824" stroke="#E95322" stroke-width="5" stroke-linecap="round" stroke-linejoin="round"/>
</svg>
