<svg width="31" height="65" viewBox="0 0 31 65" fill="none" xmlns="http://www.w3.org/2000/svg">
<path d="M7.25039 43.0547C5.85026 46.5855 4.78225 50.2523 4.06179 54.003C3.55693 56.8031 3.15836 61.4237 5.47007 63.4398C5.93337 63.9082 6.50674 64.2381 7.13119 64.3955C7.75563 64.5529 8.40861 64.5321 9.02292 64.3354C9.63723 64.1386 10.1907 63.7727 10.6264 63.2757C11.0621 62.7787 11.3643 62.1688 11.5018 61.5079C11.8473 59.0997 11.1829 48.3747 11.1032 45.6025C11.1032 43.7824 11.1032 41.9343 11.1032 40.0022C11.1032 29.6417 10.7578 12.3933 10.7312 2.03277C10.7096 1.71893 10.6034 1.41762 10.425 1.16524C10.2467 0.912869 10.0036 0.71986 9.72451 0.608085C9.44538 0.49631 9.14177 0.470379 8.84939 0.534253C8.55701 0.598126 8.28805 0.748865 8.07409 0.968358C1.16554 9.78882 -1.7839 21.2698 2.49409 32.1344C3.21657 34.1028 4.39083 35.8515 5.91176 37.2247C7.4327 38.5978 9.25286 39.5519 11.2095 40.0022M22.3961 27.7939C22.0772 33.8422 20.855 39.7783 20.0578 45.7706C19.3408 49.6068 18.9936 53.5093 19.0215 57.419C19.2341 60.4152 20.2704 64.4474 23.7778 64.4754C24.7391 64.506 25.6798 64.1793 26.435 63.5518C27.2804 62.6522 27.8616 61.5142 28.1089 60.2752C28.5312 58.4439 28.6836 56.555 28.5606 54.6749C28.5606 51.6788 27.8964 48.7669 27.4978 45.8267C26.7007 39.8344 25.4784 33.8983 25.1595 27.85M21.3864 1.58424V15.585M26.2755 15.5009V1.50015M17.0553 1.58424V20.7655C17.0623 22.6421 17.7728 24.44 19.032 25.767C20.2912 27.0939 21.997 27.8426 23.7778 27.85C25.5586 27.8426 27.2644 27.0939 28.5237 25.767C29.7829 24.44 30.4934 22.6421 30.5004 20.7655V1.58424" stroke="#E95322" stroke-linecap="round" stroke-linejoin="round"/>
</svg>
