<svg width="61" height="77" viewBox="0 0 61 77" fill="none" xmlns="http://www.w3.org/2000/svg">
<path d="M54.6423 35.417C59.0623 42.417 58.6324 51.0972 57.3424 58.8572C55.1824 71.6472 41.1325 73.947 30.1825 73.947C22.9925 73.927 14.8225 72.8972 8.99252 68.3372C2.47252 63.2272 2.34234 57.8171 2.55234 50.2271C2.75234 42.8571 3.50232 39.8271 6.69238 34.4471L14.6623 20.7071M54.6423 35.417L34.3623 47.147C33.1691 47.8418 31.8131 48.208 30.4324 48.208C29.0516 48.208 27.6956 47.8418 26.5024 47.147L6.14233 35.3171M54.6423 35.417L46.0823 22.5071M14.6623 40.2675V14.677C14.6489 13.9546 14.9224 13.2564 15.4228 12.7354C15.9233 12.2143 16.6099 11.9127 17.3323 11.897H43.4123C44.1347 11.9127 44.8213 12.2143 45.3218 12.7354C45.8222 13.2564 46.0957 13.9546 46.0823 14.677V40.3681M21.2023 23.0971H28.8723M21.2023 31.3971H39.9023M19.5023 11.897L22.8223 6.63723C25.7323 1.35723 32.3723 1.0772 35.6023 6.1072L39.5023 11.897" stroke="#E95322" stroke-width="5" stroke-linecap="round" stroke-linejoin="round"/>
</svg>
