<svg width="61" height="57" viewBox="0 0 61 57" fill="none" xmlns="http://www.w3.org/2000/svg">
<path d="M6.1582 11.7L26.5183 23.53C27.7115 24.2248 29.0675 24.5908 30.4482 24.5908C31.829 24.5908 33.185 24.2248 34.3782 23.53L54.6582 11.8M29.2082 2.5C23.1382 2.5 16.5382 3.25 11.2082 6.5C4.41821 10.66 2.74829 19.2501 2.54829 26.6201C2.34829 34.2001 2.47825 43.7801 8.99825 48.8801C14.8182 53.4401 22.9982 54.47 30.1782 54.49C41.1782 54.49 55.1783 52.1801 57.3383 39.3901C58.6383 31.6301 59.3382 19.23 54.9182 12.27C51.0082 6.08002 43.1382 3.64016 36.2382 2.91016C33.9033 2.65553 31.5569 2.51854 29.2082 2.5Z" stroke="#E95322" stroke-width="5" stroke-linecap="round" stroke-linejoin="round"/>
</svg>
