<svg width="59" height="78" viewBox="0 0 59 78" fill="none" xmlns="http://www.w3.org/2000/svg">
<path d="M56.5 39.0747C56.4815 46.2299 53.631 53.0865 48.5715 58.146C43.5121 63.2055 36.6552 66.0562 29.5 66.0747C22.3448 66.0562 15.4881 63.2055 10.4286 58.146C5.36911 53.0865 2.51848 46.2299 2.5 39.0747M29.3479 52.4658C26.1025 52.4276 22.9684 51.2763 20.47 49.2046M29.3479 52.4658C32.5933 52.504 35.7535 51.4268 38.3 49.4146C41.97 46.4146 43.99 41.9246 45.1 37.4146C46.6901 30.863 46.6901 24.0262 45.1 17.4746M29.3479 52.4658L29.51 74.9046M12.75 26.0146H20.46M14.05 16.9746H20.46M20.46 74.9046H38.55M41.9501 9.73456C36.9501 1.73456 29.5101 2.5246 29.5101 2.5246C29.5101 2.5246 17.9601 1.2246 13.9101 17.5246C12.3299 24.0774 12.3299 30.9118 13.9101 37.4645C14.3106 39.1212 14.8526 40.7406 15.5301 42.3046M47.25 3.61462L11.76 48.4146" stroke="#E95322" stroke-width="5" stroke-linecap="round" stroke-linejoin="round"/>
</svg>
