<svg width="59" height="78" viewBox="0 0 59 78" fill="none" xmlns="http://www.w3.org/2000/svg">
<path d="M56.5 39.0747C56.4842 46.2307 53.6344 53.0889 48.5743 58.1489C43.5143 63.209 36.656 66.0589 29.5 66.0747C22.344 66.0589 15.4857 63.209 10.4257 58.1489C5.36561 53.0889 2.51585 46.2307 2.5 39.0747M13.531 35.6846H45.5016M29.52 51.9946C29.52 51.9946 17.9201 53.7445 13.9201 37.4645C12.3399 30.9118 12.3399 24.0774 13.9201 17.5246C17.9701 1.2246 29.5201 2.5246 29.5201 2.5246C29.5201 2.5246 41.06 1.2246 45.11 17.5246C46.7002 24.0762 46.7002 30.913 45.11 37.4645C41.06 53.7545 29.52 51.9946 29.52 51.9946ZM29.52 51.9946V74.9046M12.76 26.0146H20.47M14.06 16.9746H20.47M38.94 16.9746H44.98M38.56 26.0146H46.3M20.47 74.9046H38.56" stroke="#E95322" stroke-width="5" stroke-linecap="round" stroke-linejoin="round"/>
</svg>
