<svg width="62" height="62" viewBox="0 0 62 62" fill="none" xmlns="http://www.w3.org/2000/svg">
<path d="M2.5 58.84L21.77 40.24M21.01 55.8801L22.8 42.81C22.8797 42.2346 22.8248 41.6486 22.6399 41.0979C22.455 40.5471 22.1449 40.0468 21.7341 39.636C21.3233 39.2252 20.8229 38.9151 20.2722 38.7302C19.7215 38.5453 19.1355 38.4904 18.56 38.5701L5.48998 40.3601M58.84 2.5L39.64 21.7M40.36 5.47012L38.5699 18.5299C38.4903 19.1054 38.5449 19.6916 38.7299 20.2423C38.9148 20.7931 39.2248 21.2935 39.6356 21.7042C40.0464 22.115 40.5468 22.4251 41.0975 22.61C41.6483 22.7949 42.2345 22.8496 42.8099 22.7699L55.87 20.9799M58.84 58.84L39.64 39.64M55.87 40.3501L42.8099 38.56C42.2345 38.4804 41.6483 38.5353 41.0975 38.7202C40.5468 38.9051 40.0464 39.2152 39.6356 39.626C39.2248 40.0368 38.9148 40.5371 38.7299 41.0879C38.5449 41.6386 38.4903 42.2246 38.5699 42.8L40.36 55.8701M2.5 2.5L21.38 21.38M5.45995 20.9799L18.53 22.7699C19.1055 22.8496 19.6914 22.7949 20.2422 22.61C20.7929 22.4251 21.2935 22.115 21.7043 21.7042C22.1151 21.2935 22.4249 20.7931 22.6099 20.2423C22.7948 19.6916 22.8497 19.1054 22.77 18.5299L20.98 5.47012" stroke="#E95322" stroke-width="5" stroke-linecap="round" stroke-linejoin="round"/>
</svg>
