<svg width="70" height="67" viewBox="0 0 70 67" fill="none" xmlns="http://www.w3.org/2000/svg">
<path d="M67.4951 50.8427V8.74257C67.4955 7.81428 67.2889 6.89774 66.8901 6.05946C66.4914 5.22119 65.9104 4.48224 65.1899 3.89687C64.4695 3.31149 63.6277 2.8944 62.7256 2.67568C61.8234 2.45695 60.8836 2.44229 59.9751 2.63271L30.0449 8.84267C28.6332 9.12891 27.364 9.89465 26.4526 11.0101C25.5413 12.1256 25.0439 13.5221 25.0449 14.9625V50.8427M33.3851 19.9227L59.1751 15.1327M13.785 63.5927C13.785 63.5927 21.5447 64.1626 24.2747 56.9926C25.3343 54.1584 25.3343 51.0368 24.2747 48.2026C21.5447 41.0226 13.785 41.5927 13.785 41.5927C13.785 41.5927 6.01473 41.0226 3.29473 48.2026C2.23509 51.0368 2.23509 54.1584 3.29473 56.9926C6.01473 64.1626 13.785 63.5927 13.785 63.5927ZM56.2049 63.5927C56.2049 63.5927 63.9651 64.1626 66.6951 56.9926C67.7547 54.1584 67.7547 51.0368 66.6951 48.2026C63.9651 41.0226 56.2049 41.5927 56.2049 41.5927C56.2049 41.5927 48.4446 41.0226 45.7146 48.2026C44.655 51.0368 44.655 54.1584 45.7146 56.9926C48.4446 64.1626 56.2049 63.5927 56.2049 63.5927Z" stroke="#E95322" stroke-width="5" stroke-linecap="round" stroke-linejoin="round"/>
</svg>
