<svg width="76" height="74" viewBox="0 0 76 74" fill="none" xmlns="http://www.w3.org/2000/svg">
<path d="M25.0527 36.7731H47.1027M38.3428 46.3931L44.7329 41.5532C45.4686 40.9934 46.065 40.2712 46.4756 39.4429C46.8862 38.6146 47.0996 37.7025 47.0996 36.7781C47.0996 35.8536 46.8862 34.9418 46.4756 34.1135C46.065 33.2852 45.4686 32.563 44.7329 32.0032L38.3428 27.1531M37.6326 71.0131C37.6326 71.0131 61.8025 72.7931 70.2825 50.4531C73.5929 41.6335 73.5929 31.9126 70.2825 23.093C61.8025 0.762966 37.6326 2.53315 37.6326 2.53315C37.6326 2.53315 13.4627 0.762966 4.98274 23.093C1.67242 31.9126 1.67242 41.6335 4.98274 50.4531C13.4627 72.7931 37.6326 71.0131 37.6326 71.0131Z" stroke="#E95322" stroke-width="5" stroke-linecap="round" stroke-linejoin="round"/>
</svg>
