<svg width="52" height="72" viewBox="0 0 52 72" fill="none" xmlns="http://www.w3.org/2000/svg">
<path d="M28.4375 66.16C28.3344 67.0251 27.9177 67.8225 27.2662 68.401C26.6148 68.9794 25.7737 69.2989 24.9025 69.2989C24.0312 69.2989 23.1903 68.9794 22.5388 68.401C21.8873 67.8225 21.4706 67.0251 21.3676 66.16M3.31754 44.89C4.86905 40.963 5.44877 36.7194 5.00748 32.5201C4.81724 30.7958 4.85759 29.0536 5.12748 27.3399C5.95002 22.4419 8.48202 17.9942 12.2736 14.7862C16.0652 11.5783 20.871 9.81796 25.8376 9.81796C30.8041 9.81796 35.61 11.5783 39.4015 14.7862C43.1931 17.9942 45.725 22.4419 46.5475 27.3399C46.8174 29.0536 46.8578 30.7958 46.6675 32.5201C46.2365 36.7192 46.816 40.9604 48.3576 44.89C48.9867 46.3748 49.2611 47.9859 49.1592 49.5953C49.0573 51.2047 48.5819 52.7681 47.7705 54.1617C46.9592 55.5553 45.8343 56.7409 44.485 57.6241C43.1358 58.5073 41.5993 59.064 39.9975 59.2501C30.5902 60.3034 21.0948 60.3034 11.6875 59.2501C10.0858 59.0635 8.54941 58.5065 7.20011 57.6234C5.85081 56.7403 4.72555 55.5552 3.91349 54.162C3.10142 52.7687 2.62484 51.2056 2.5214 49.5963C2.41796 47.987 2.69053 46.3757 3.31754 44.89ZM29.5775 6.23C29.5775 8.29002 27.9075 9.96 25.8475 9.96C23.7875 9.96 22.1175 8.29002 22.1175 6.23C22.1175 4.16998 23.7875 2.5 25.8475 2.5C27.9075 2.5 29.5775 4.16998 29.5775 6.23Z" stroke="#E95322" stroke-width="5" stroke-linecap="round" stroke-linejoin="round"/>
</svg>
