<svg width="70" height="72" viewBox="0 0 70 72" fill="none" xmlns="http://www.w3.org/2000/svg">
<path d="M24.1712 46.3716L45.2012 25.3416M41.2212 4.62158C43.1228 6.00071 45.4121 6.74291 47.7612 6.7417C50.1081 6.74266 52.3945 7.48597 54.2931 8.86548C56.1917 10.245 57.6052 12.1899 58.3312 14.4216C59.0463 16.6497 60.4461 18.5954 62.3312 19.9817C64.2211 21.3691 65.6251 23.3173 66.3433 25.5491C67.0615 27.7809 67.0573 30.1824 66.3312 32.4116C65.5978 34.6429 65.5978 37.0502 66.3312 39.2815C67.0557 41.5109 67.0592 43.9119 66.3411 46.1433C65.623 48.3747 64.2199 50.3233 62.3312 51.7117C60.4483 53.0959 59.0488 55.0374 58.3312 57.2615C57.6052 59.4932 56.1917 61.4381 54.2931 62.8176C52.3945 64.1971 50.1081 64.9407 47.7612 64.9417C45.4111 64.944 43.1219 65.6895 41.2212 67.0715C39.3231 68.4505 37.0373 69.1931 34.6912 69.1931C32.3451 69.1931 30.0592 68.4505 28.1612 67.0715C26.2604 65.6895 23.9713 64.944 21.6212 64.9417C19.2743 64.9407 16.988 64.1971 15.0893 62.8176C13.1907 61.4381 11.7772 59.4932 11.0512 57.2615C10.3373 55.0355 8.93707 53.0929 7.05119 51.7117C5.16008 50.3253 3.75515 48.3769 3.03685 46.1448C2.31854 43.9126 2.32356 41.5106 3.05119 39.2815C3.77087 37.048 3.77087 34.6451 3.05119 32.4116C2.32199 30.1826 2.31617 27.7801 3.03459 25.5476C3.75301 23.3151 5.15888 21.3671 7.05119 19.9817C8.93927 18.5983 10.3398 16.6515 11.0512 14.4216C11.7772 12.1899 13.1907 10.245 15.0893 8.86548C16.988 7.48597 19.2743 6.74266 21.6212 6.7417C23.9703 6.74291 26.2595 6.00071 28.1612 4.62158C30.0592 3.24265 32.3451 2.5 34.6912 2.5C37.0373 2.5 39.3231 3.24265 41.2212 4.62158ZM26.4012 30.6216C27.2461 30.6711 28.0855 30.456 28.8024 30.0061C29.5194 29.5562 30.0782 28.8939 30.4012 28.1116C30.8012 27.0376 30.8012 25.8555 30.4012 24.7815C30.0472 24.0189 29.4825 23.3735 28.7738 22.9211C28.0652 22.4688 27.2419 22.2285 26.4012 22.2285C25.5604 22.2285 24.7372 22.4688 24.0285 22.9211C23.3199 23.3735 22.7552 24.0189 22.4012 24.7815C21.991 25.8536 21.991 27.0395 22.4012 28.1116C22.7153 28.9003 23.2722 29.5685 23.9913 30.0198C24.7104 30.471 25.5544 30.6818 26.4012 30.6216ZM43.0412 48.8716C43.8868 48.9326 44.7299 48.7233 45.4489 48.2739C46.1678 47.8246 46.7254 47.1584 47.0412 46.3716C47.4412 45.2976 47.4412 44.1155 47.0412 43.0415C46.6872 42.2789 46.1226 41.6335 45.4139 41.1812C44.7052 40.7288 43.8819 40.4885 43.0412 40.4885C42.2004 40.4885 41.3772 40.7288 40.6685 41.1812C39.9598 41.6335 39.3952 42.2789 39.0412 43.0415C38.6411 44.1155 38.6411 45.2976 39.0412 46.3716C39.3569 47.1584 39.9145 47.8246 40.6335 48.2739C41.3524 48.7233 42.1955 48.9326 43.0412 48.8716Z" stroke="#E95322" stroke-width="5" stroke-linecap="round" stroke-linejoin="round"/>
</svg>
