<svg width="58" height="76" viewBox="0 0 58 76" fill="none" xmlns="http://www.w3.org/2000/svg">
<path d="M12.5153 29.74V18.5901C12.5284 14.3268 14.2278 10.2419 17.2424 7.22729C20.257 4.21269 24.3419 2.51319 28.6052 2.5C32.8685 2.51319 36.9534 4.21269 39.968 7.22729C42.9826 10.2419 44.6821 14.3268 44.6953 18.5901M28.6052 50.37V56.89M28.6052 50.37C28.6052 50.37 32.6952 50.6501 34.1352 47.1501C34.6954 45.7784 34.6954 44.2417 34.1352 42.8701C32.6952 39.3701 28.6052 39.6501 28.6052 39.6501C28.6052 39.6501 24.5152 39.3701 23.0752 42.8701C22.515 44.2417 22.515 45.7784 23.0752 47.1501C24.5152 50.6501 28.6052 50.37 28.6052 50.37ZM28.6052 72.5701C28.6052 72.5701 46.6052 73.79 52.8652 58.44C55.3255 52.4182 55.3255 45.6719 52.8652 39.6502C46.5652 24.3102 28.6052 25.5301 28.6052 25.5301C28.6052 25.5301 10.6052 24.3102 4.34523 39.6502C1.88492 45.6719 1.88492 52.4182 4.34523 58.44C10.6452 73.79 28.6052 72.5701 28.6052 72.5701Z" stroke="#E95322" stroke-width="5" stroke-linecap="round" stroke-linejoin="round"/>
</svg>
