<svg width="71" height="66" viewBox="0 0 71 66" fill="none" xmlns="http://www.w3.org/2000/svg">
<path d="M36.511 32.9529L62.3899 49.913M37.7099 6.96301V26.8031C37.708 31.1497 35.9816 35.318 32.9099 38.3932L21.27 50.0231C20.684 50.614 20.2414 51.3316 19.9763 52.1205C19.7111 52.9093 19.6303 53.7485 19.7404 54.5734C19.8505 55.3983 20.1485 56.1868 20.6113 56.8785C21.074 57.5702 21.6894 58.1466 22.4099 58.5631C26.236 60.7999 30.5063 62.1703 34.9196 62.5773C39.3329 62.9843 43.7818 62.4179 47.9526 60.9186C52.1233 59.4192 55.9143 57.0234 59.0583 53.8995C62.2023 50.7757 64.6229 47.0002 66.1491 42.8392C67.6753 38.6782 68.2701 34.2329 67.8915 29.817C67.513 25.4012 66.1701 21.1221 63.9579 17.2816C61.7458 13.4411 58.7182 10.1328 55.0883 7.58971C51.4585 5.0466 47.315 3.33069 42.9499 2.5631C42.3082 2.45438 41.6505 2.48643 41.0224 2.6571C40.3943 2.82776 39.8109 3.13286 39.3124 3.55138C38.814 3.96991 38.4126 4.49184 38.1359 5.08092C37.8592 5.67001 37.7138 6.31217 37.7099 6.96301ZM2.50002 29.9429C2.49409 35.3826 4.10559 40.7013 7.1299 45.2229C7.55415 45.8513 8.11196 46.3784 8.76344 46.7664C9.41493 47.1543 10.144 47.3935 10.8987 47.467C11.6534 47.5406 12.415 47.4467 13.1292 47.1919C13.8433 46.9371 14.4924 46.5276 15.03 45.9929L26.1799 34.843C28.6227 32.396 29.9964 29.0807 30 25.623V8.1731C29.9986 7.40119 29.8232 6.63947 29.4871 5.94458C29.151 5.24969 28.6626 4.63927 28.0584 4.15894C27.4541 3.67861 26.7494 3.34063 25.9966 3.16992C25.2438 2.99922 24.4623 3.00039 23.71 3.1731C17.6746 4.59114 12.2954 8.00686 8.44533 12.8662C4.59524 17.7256 2.50024 23.7432 2.50002 29.9429Z" stroke="#E95322" stroke-width="5" stroke-linecap="round" stroke-linejoin="round"/>
</svg>
