<svg width="77" height="67" viewBox="0 0 77 67" fill="none" xmlns="http://www.w3.org/2000/svg">
<path d="M7.91296 54.4699L14.1327 48.2499C15.2432 47.1383 16.5665 46.262 18.0233 45.6732C19.4801 45.0845 21.0407 44.7954 22.6117 44.8234C24.1827 44.8514 25.732 45.1958 27.1669 45.8361C28.6018 46.4763 29.8926 47.3995 30.9628 48.5499L45.203 63.4999M31.5829 49.23L38.3329 42.48C42.7755 38.0381 48.8006 35.5427 55.0829 35.5427C61.3652 35.5427 67.3903 38.0381 71.8329 42.48L73.2826 43.8101M31.5928 21.96C31.5928 25.7542 28.517 28.83 24.7228 28.83C20.9286 28.83 17.8528 25.7542 17.8528 21.96C17.8528 18.1658 20.9286 15.09 24.7228 15.09C28.517 15.09 31.5928 18.1658 31.5928 21.96ZM36.753 2.5C28.953 2.5 20.4829 3.37995 13.6929 7.19995C4.96294 12.1 2.82305 22.1999 2.56305 30.9099C2.30305 39.8399 2.47284 51.1199 10.8428 57.1399C18.3228 62.5099 28.8428 63.72 38.0528 63.75C52.1128 63.75 70.1932 61.03 72.9332 45.96C74.6032 36.81 75.4731 22.2 69.8331 13.96C64.8331 6.65996 54.7031 3.78996 45.8331 2.95996C43.0431 2.68996 39.953 2.51 36.753 2.5Z" stroke="#E95322" stroke-width="5" stroke-linecap="round" stroke-linejoin="round"/>
</svg>
