<svg width="54" height="55" viewBox="0 0 54 55" fill="none" xmlns="http://www.w3.org/2000/svg">
<path d="M12.0337 42.4866L2.5 52.0566M35.6098 3.16643C34.9423 2.77541 34.1913 2.54948 33.4189 2.50725C32.6464 2.46502 31.875 2.60784 31.1689 2.92375C30.4627 3.23966 29.8421 3.71963 29.3588 4.32365C28.8755 4.92768 28.5434 5.63841 28.3901 6.39665C27.4208 11.2599 24.969 15.7033 21.3715 19.1164C17.774 22.5294 13.2077 24.7442 8.30021 25.4565C7.6019 25.5679 6.93672 25.8335 6.35392 26.2341C5.77112 26.6346 5.28492 27.1599 4.93058 27.7719C4.57624 28.3839 4.3628 29.0671 4.30558 29.7719C4.24836 30.4767 4.34903 31.1855 4.60001 31.8466C7.38001 39.0166 13.6601 44.7665 20.2201 48.5065C21.298 49.1795 22.486 49.6568 23.7299 49.9164C24.9466 50.112 26.1915 49.824 27.1986 49.1139C28.2058 48.4039 28.8955 47.3283 29.12 46.1166C29.8445 41.3153 32.0083 36.8465 35.3256 33.3007C38.6429 29.7549 42.9576 27.2987 47.7001 26.2565C48.4307 26.0844 49.1073 25.7347 49.6703 25.2382C50.2333 24.7417 50.665 24.1139 50.9272 23.4106C51.1893 22.7072 51.274 21.9501 51.1733 21.2062C51.0725 20.4624 50.7898 19.755 50.35 19.1467C46.43 13.6267 40.5598 6.15643 35.6098 3.16643Z" stroke="#E95322" stroke-width="5" stroke-linecap="round" stroke-linejoin="round"/>
</svg>
