<svg width="35" height="45" viewBox="0 0 35 45" fill="none" xmlns="http://www.w3.org/2000/svg">
<path d="M13.1602 3.85527L28.7202 15.6653C29.7335 16.4349 30.555 17.4284 31.1206 18.5682C31.6862 19.7079 31.9805 20.963 31.9805 22.2354C31.9805 23.5078 31.6862 24.7626 31.1206 25.9024C30.555 27.0421 29.7335 28.0357 28.7202 28.8052L13.1602 40.6253C12.1736 41.371 10.9989 41.8269 9.76758 41.9417C8.53623 42.0565 7.29683 41.8255 6.18946 41.2749C5.08208 40.7244 4.15028 39.876 3.49854 38.825C2.84679 37.774 2.50092 36.5619 2.5 35.3252V9.14531C2.49903 7.90791 2.8439 6.69474 3.49561 5.64287C4.14732 4.59099 5.08005 3.74224 6.18848 3.19218C7.2969 2.64213 8.5372 2.41267 9.76904 2.52983C11.0009 2.64699 12.1753 3.10612 13.1602 3.85527Z" stroke="#E95322" stroke-width="5" stroke-linecap="round" stroke-linejoin="round"/>
</svg>
