<svg width="76" height="76" viewBox="0 0 76 76" fill="none" xmlns="http://www.w3.org/2000/svg">
<path d="M2.5 20.6802V8.89014C2.50265 7.19448 3.17798 5.56916 4.37793 4.37109C5.57788 3.17302 7.20425 2.5 8.8999 2.5H22.0698M22.0698 73.3401H8.8999C7.20333 73.3374 5.5771 72.6623 4.37744 71.4626C3.17778 70.263 2.50264 68.6365 2.5 66.9399V52.3701M53.77 2.5H66.9399C68.6365 2.49999 70.2638 3.17258 71.4653 4.37036C72.6669 5.56815 73.3446 7.19357 73.3499 8.89014V20.6802M73.3499 52.3701V66.9399C73.3472 68.6382 72.6708 70.2661 71.469 71.4661C70.2672 72.666 68.6382 73.3401 66.9399 73.3401H53.77M19.8499 13.4001H25.6799C29.3858 13.4001 32.3899 16.4042 32.3899 20.1101V25.9401C32.3899 29.6459 29.3858 32.6501 25.6799 32.6501H19.8499C16.1441 32.6501 13.1399 29.6459 13.1399 25.9401V20.1101C13.1399 16.4042 16.1441 13.4001 19.8499 13.4001ZM50.1699 13.4001H55.9999C59.7058 13.4001 62.7099 16.4042 62.7099 20.1101V25.9401C62.7099 29.6459 59.7058 32.6501 55.9999 32.6501H50.1699C46.4641 32.6501 43.4599 29.6459 43.4599 25.9401V20.1101C43.4599 16.4042 46.4641 13.4001 50.1699 13.4001ZM19.8499 42.7401H25.6799C29.3858 42.7401 32.3899 45.7442 32.3899 49.4501V55.2801C32.3899 58.9859 29.3858 61.9901 25.6799 61.9901H19.8499C16.1441 61.9901 13.1399 58.9859 13.1399 55.2801V49.4501C13.1399 45.7442 16.1441 42.7401 19.8499 42.7401ZM50.1699 42.7401H55.9999C59.7058 42.7401 62.7099 45.7442 62.7099 49.4501V55.2801C62.7099 58.9859 59.7058 61.9901 55.9999 61.9901H50.1699C46.4641 61.9901 43.4599 58.9859 43.4599 55.2801V49.4501C43.4599 45.7442 46.4641 42.7401 50.1699 42.7401Z" stroke="#E95322" stroke-width="5" stroke-linecap="round" stroke-linejoin="round"/>
</svg>
