<svg width="77" height="57" viewBox="0 0 77 57" fill="none" xmlns="http://www.w3.org/2000/svg">
<path d="M19.0893 3.34682V12.3201M3.82926 41.0601H55.4593C58.8966 42.4377 64.1023 46.1637 67.7092 45.76C68.9416 45.5586 70.093 45.0163 71.0332 44.1945C71.9734 43.3727 72.6649 42.3044 73.0293 41.1101C73.2297 40.4575 73.3702 39.7881 73.4492 39.1101C73.6283 37.1153 73.6719 35.1107 73.5793 33.1101V25.78C73.6719 23.7793 73.6283 21.7747 73.4492 19.78C73.3716 19.1017 73.2311 18.4322 73.0293 17.78C72.6649 16.5856 71.9734 15.517 71.0332 14.6953C70.093 13.8735 68.9416 13.3314 67.7092 13.1301C65.0292 12.8201 62.7092 14.71 60.4492 15.83L55.8092 18.3605M28.4291 2.5C22.5191 2.5 16.1092 3.25 10.9692 6.5C4.35918 10.65 2.73926 19.2401 2.54926 26.6201C2.34926 34.2001 2.46915 43.7701 8.80915 48.8801C14.4692 53.4301 22.4392 54.47 29.4092 54.49C40.0592 54.49 53.7392 52.1801 55.8092 39.3901C57.0792 31.6301 57.7292 19.22 53.4592 12.27C49.6592 6.08002 42.0093 3.64015 35.2993 2.90015C33.0177 2.64776 30.7245 2.5141 28.4291 2.5Z" stroke="#E95322" stroke-width="5" stroke-linecap="round" stroke-linejoin="round"/>
</svg>
