<svg width="35" height="45" viewBox="0 0 35 45" fill="none" xmlns="http://www.w3.org/2000/svg">
<path d="M21.3203 40.6151L5.76025 28.8052C4.74699 28.0357 3.92544 27.0422 3.35986 25.9024C2.79428 24.7627 2.5 23.5075 2.5 22.2352C2.5 20.9628 2.79428 19.7077 3.35986 18.5679C3.92544 17.4282 4.74699 16.4346 5.76025 15.6651L21.3203 3.85504C22.3052 3.10589 23.4796 2.64701 24.7114 2.52985C25.9433 2.41268 27.1836 2.6419 28.292 3.19196C29.4004 3.74201 30.3327 4.59101 30.9844 5.64288C31.6361 6.69476 31.9809 7.90768 31.98 9.14508V35.3253C31.9809 36.5627 31.6361 37.7756 30.9844 38.8275C30.3327 39.8793 29.4004 40.7281 28.292 41.2781C27.1836 41.8282 25.9433 42.0577 24.7114 41.9405C23.4796 41.8233 22.3052 41.3642 21.3203 40.6151Z" stroke="#E95322" stroke-width="5" stroke-linecap="round" stroke-linejoin="round"/>
</svg>
