<svg width="67" height="70" viewBox="0 0 67 70" fill="none" xmlns="http://www.w3.org/2000/svg">
<path d="M23.8718 37.8197L30.6918 44.6297L46.5318 26.4597M63.9518 20.1697C65.3118 34.1697 64.0518 60.5398 36.9518 67.0498C34.6148 67.6096 32.1787 67.6096 29.8418 67.0498C2.7818 60.5398 1.5218 34.1997 2.8418 20.1697C3.15011 17.5168 4.23374 15.0138 5.95727 12.9736C7.68081 10.9335 9.96767 9.4469 12.5317 8.69972L31.5317 2.76979C32.715 2.41007 33.9785 2.41007 35.1617 2.76979L54.1617 8.69972C56.7463 9.42657 59.0568 10.9049 60.7998 12.947C62.5428 14.9892 63.6399 17.503 63.9518 20.1697Z" stroke="#E95322" stroke-width="5" stroke-linecap="round" stroke-linejoin="round"/>
</svg>
