<svg width="46" height="63" viewBox="0 0 46 63" fill="none" xmlns="http://www.w3.org/2000/svg">
<path d="M10.5239 13.2199C18.5257 11.6647 26.7521 11.6647 34.7539 13.2199M42.614 14.49C42.314 11.66 41.8238 8.68999 40.1638 6.48999C37.5838 3.09999 33.094 2.75016 29.114 2.66016L22.9338 2.5L16.7539 2.66016C12.7539 2.75016 8.29386 3.09999 5.70386 6.48999C4.04386 8.65999 3.55392 11.63 3.26392 14.49C2.11392 25.54 2.60401 31.3101 2.60401 42.4001C2.48401 45.1701 2.84387 52.4 3.71387 55.02C4.21033 56.7524 5.3285 58.2406 6.85401 59.2C7.60474 59.5538 8.4206 59.7481 9.25025 59.7705C10.0799 59.7929 10.9051 59.643 11.6738 59.3301C13.2379 58.6833 14.7079 57.829 16.044 56.79L21.1238 53.2C21.6487 52.8149 22.2828 52.6074 22.9338 52.6074C23.5849 52.6074 24.219 52.8149 24.7439 53.2C26.4439 54.3866 28.1373 55.5834 29.824 56.79C31.1601 57.829 32.6298 58.6833 34.1939 59.3301C34.9626 59.643 35.7878 59.7929 36.6174 59.7705C37.4471 59.7481 38.2632 59.5538 39.0139 59.2C40.5447 58.2463 41.6643 56.7558 42.1538 55.02C43.0238 52.39 43.3839 45.1701 43.2739 42.4001C43.2739 31.3101 43.744 25.54 42.614 14.49Z" stroke="#E95322" stroke-width="5" stroke-linecap="round" stroke-linejoin="round"/>
</svg>
