<svg width="87" height="77" viewBox="0 0 87 77" fill="none" xmlns="http://www.w3.org/2000/svg">
<path d="M5.56184 19.5699L81.0422 19.5M54.8933 53.3298L62.8933 47.1899C63.3578 46.8342 63.7341 46.3764 63.9932 45.8518C64.2522 45.3272 64.387 44.7498 64.387 44.1648C64.387 43.5797 64.2522 43.0026 63.9932 42.478C63.7341 41.9534 63.3578 41.4956 62.8933 41.1399L54.8933 35M28.2732 53.3298L20.2732 47.1899C19.8087 46.8342 19.4324 46.3764 19.1733 45.8518C18.9143 45.3272 18.7795 44.7498 18.7795 44.1648C18.7795 43.5797 18.9143 43.0026 19.1733 42.478C19.4324 41.9534 19.8087 41.4956 20.2732 41.1399L28.2732 35M47.7233 28.3999L36.7633 60.7299M41.4831 2.5C32.6031 2.5 22.9631 3.50001 15.2331 8.01001C5.30311 13.77 2.8632 25.6499 2.5732 35.8499C2.2732 46.3399 2.46312 59.5799 11.9931 66.6399C20.5031 72.9399 32.4831 74.3699 42.9931 74.3999C58.9931 74.3999 79.5733 71.1998 82.6933 53.5198C84.5833 42.7798 85.5733 25.62 79.1533 16C73.4433 7.44 61.9432 4.07 51.8632 3C48.6532 2.73 45.1331 2.51 41.4831 2.5Z" stroke="#E95322" stroke-width="5" stroke-linecap="round" stroke-linejoin="round"/>
</svg>
