<svg width="80" height="78" viewBox="0 0 80 78" fill="none" xmlns="http://www.w3.org/2000/svg">
<path d="M28 43.3189L43.1216 54.5527M43.6192 23.5L28 34.3324M57.5172 20.473C57.5172 25.3462 54.2906 27.5 50.3103 27.5C46.3301 27.5 43.1035 25.3462 43.1035 20.473C43.1035 15.5998 46.3301 13 50.3103 13C54.2906 13 57.5172 15.5998 57.5172 20.473ZM57.5172 55.8041C57.5172 60.6773 54.2906 63 50.3103 63C46.3301 63 43.1035 60.6773 43.1035 55.8041C43.1035 50.9309 46.3301 48 50.3103 48C54.2906 48 57.5172 50.9309 57.5172 55.8041ZM29.2168 38.7462C29.2168 43.6194 25.9901 46.5 22.0099 46.5C18.0296 46.5 14.803 43.6194 14.803 38.7462C14.803 33.873 18.0296 31.5 22.0099 31.5C25.9901 31.5 29.2168 33.873 29.2168 38.7462ZM40.0047 75.4647C40.0047 75.4647 65.7966 77.351 74.8484 53.5642C78.3839 44.1752 78.3839 33.8248 74.8484 24.4358C65.7603 0.649002 40.0047 2.53535 40.0047 2.53535C40.0047 2.53535 14.2033 0.649002 5.15156 24.4358C1.61615 33.8248 1.61615 44.1752 5.15156 53.5642C14.2033 77.351 40.0047 75.4647 40.0047 75.4647Z" stroke="#E95322" stroke-width="5" stroke-linecap="round" stroke-linejoin="round"/>
</svg>
