<svg width="62" height="62" viewBox="0 0 62 62" fill="none" xmlns="http://www.w3.org/2000/svg">
<path d="M22.5119 38.855L38.8419 22.525M41.7521 52.9849C42.9388 49.9115 44.1456 46.8516 45.3722 43.8049L53.6022 23.2251C55.1489 19.3584 56.7019 15.4816 58.2619 11.595C58.897 10.0074 59.0432 8.26626 58.6818 6.59497C58.4752 5.6389 57.9975 4.7627 57.3058 4.07105C56.6142 3.37939 55.738 2.90168 54.7819 2.69507C53.1107 2.33187 51.3691 2.47809 49.7819 3.11499L17.5719 16.0049C14.5186 17.2316 11.4589 18.4383 8.39226 19.625C6.20226 20.475 3.64195 21.6249 2.82195 24.0049C0.87195 29.7349 8.25215 32.4651 12.2721 33.9351C16.1221 35.3351 21.1922 36.5551 23.5822 40.1751C25.3722 42.8751 26.3518 46.095 27.4518 49.115C28.9218 53.115 31.652 60.5149 37.382 58.5649C39.782 57.7349 40.9021 55.1749 41.7521 52.9849Z" stroke="#E95322" stroke-width="5" stroke-linecap="round" stroke-linejoin="round"/>
</svg>
