<svg width="48" height="54" viewBox="0 0 48 54" fill="none" xmlns="http://www.w3.org/2000/svg">
<path d="M10.3762 29.2486C12.3299 29.8586 14.3423 30.2763 16.3829 30.4958C20.691 30.9498 25.0307 31.0568 29.3572 30.8153C34.9989 30.9561 40.5676 29.5582 45.4249 26.7826C46.0126 27.1742 46.4977 27.6925 46.8418 28.2968C47.1858 28.901 47.3794 29.5744 47.4071 30.2635C47.8102 34.9083 46.8965 39.5719 44.7642 43.7533M30.3483 53.2394C29.4774 53.2394 28.5763 53.442 27.6753 53.5C26.0836 53.5 24.4919 53.5 22.9001 53.5C15.9625 53.2969 8.51424 51.3243 5.06044 44.7972C2.05713 39.3725 1.00594 31.8595 4.27955 26.3768M22.3295 27.6241C22.7333 27.2144 23.016 26.7077 23.148 26.1566C23.2801 25.6055 23.2567 25.0302 23.0803 24.4908C22.8935 23.9603 22.5779 23.4807 22.1599 23.0921C21.7419 22.7035 21.2337 22.4171 20.6777 22.2571C18.6695 22.0141 16.6371 22.4669 14.9414 23.534C12.4486 24.5493 9.50535 26.7827 6.7423 26.8408C0.735685 26.8408 -2.26757 14.6566 3.88921 12.8291C4.54811 12.6184 5.25955 12.6174 5.91907 12.8262C6.57859 13.0351 7.15133 13.4432 7.55316 13.9898C8.75449 15.8174 8.39413 17.9348 10.3162 19.4432C11.213 20.1267 12.2306 20.6477 13.3196 20.9808C15.1817 21.6015 17.1207 21.9823 19.086 22.1126M40.4394 20.7774C38.5511 20.8658 36.6595 20.6901 34.8233 20.2555C33.706 20.017 32.6394 19.5952 31.6698 19.0083C29.5675 17.6448 29.6876 15.4399 28.2761 13.6993C27.7978 13.1826 27.1622 12.8261 26.4607 12.6802C25.7592 12.5342 25.0278 12.6063 24.3717 12.887C18.3651 15.3818 22.5998 27.5949 28.8467 26.8987C31.6398 26.5796 34.4027 23.9979 36.8354 22.6925C38.4648 21.4431 40.4916 20.7765 42.5718 20.8065C43.1576 20.9114 43.7089 21.1507 44.1793 21.5041C44.6496 21.8574 45.0253 22.315 45.2748 22.8377C45.5169 23.3717 45.6028 23.9595 45.5234 24.5374C45.444 25.1153 45.2022 25.6609 44.8242 26.1154C44.0574 27.0986 43.0566 27.889 41.9064 28.4193C40.7563 28.9495 39.4907 29.2041 38.217 29.1615C35.8481 28.8288 33.6998 27.6352 32.2104 25.825M42.3915 44.3333C40.4459 44.9276 38.4246 45.2598 36.3849 45.3199C35.2657 45.3649 34.1471 45.2171 33.0812 44.8843C30.7386 44.1011 30.3182 41.9836 28.5463 40.7072C27.9828 40.3131 27.3048 40.1009 26.6091 40.1009C25.9134 40.1009 25.2355 40.3131 24.672 40.7072C19.6264 44.5074 26.7143 55.0376 32.4206 52.8909C34.9734 51.9336 36.8955 48.8296 38.8777 47.0891C40.2892 45.8127 41.7308 44.1879 43.8031 43.9558C44.3732 43.9408 44.9395 44.0506 45.4595 44.2767C45.9796 44.5027 46.44 44.8397 46.8064 45.2618C47.1607 45.7115 47.3839 46.2446 47.4525 46.8058C47.5212 47.367 47.4329 47.9354 47.1968 48.4524C46.716 49.5635 45.9657 50.5469 45.0092 51.3193C44.0527 52.0918 42.9181 52.6307 41.7008 52.8909C40.5397 53.0381 39.3599 52.9603 38.2305 52.6614C37.1011 52.3626 36.0448 51.849 35.1235 51.1508M20.7377 3.459C20.1186 5.01051 19.2687 6.46658 18.2149 7.78136C17.5968 8.58161 16.8459 9.27816 15.9925 9.84161C14.0704 11.002 12.3284 10.0737 10.3463 10.5668C9.70782 10.7531 9.15169 11.1386 8.7656 11.6639C8.37951 12.1891 8.18537 12.8242 8.21384 13.4678C8.03364 19.2696 19.6866 20.4295 21.4285 15.1789C21.741 12.514 21.5886 9.81748 20.9779 7.20131C20.5506 5.41707 20.7623 3.54535 21.5786 1.89239C21.8793 1.46674 22.2822 1.11785 22.7529 0.875364C23.2236 0.632875 23.7481 0.504051 24.2816 0.5C24.8104 0.527497 25.3223 0.690066 25.7653 0.970268C26.2084 1.25047 26.5668 1.63848 26.8043 2.09565C27.3223 3.09531 27.5921 4.19812 27.5921 5.31599C27.5921 6.43387 27.3223 7.53597 26.8043 8.53563C25.6858 10.3419 23.8714 11.646 21.7588 12.1618" stroke="#E95322" stroke-linecap="round" stroke-linejoin="round"/>
</svg>
