<svg width="74" height="58" viewBox="0 0 74 58" fill="none" xmlns="http://www.w3.org/2000/svg">
<path d="M10.9501 55.3699V30.9099C10.9501 30.4665 11.0374 30.0275 11.2074 29.6179C11.3774 29.2084 11.6265 28.8365 11.9405 28.5235C12.2545 28.2104 12.6272 27.9622 13.0372 27.7935C13.4472 27.6247 13.8865 27.5385 14.3299 27.5398H19.2101C19.6535 27.5385 20.0928 27.6247 20.5028 27.7935C20.9128 27.9622 21.2855 28.2104 21.5995 28.5235C21.9135 28.8365 22.1626 29.2084 22.3326 29.6179C22.5026 30.0275 22.59 30.4665 22.59 30.9099V55.3699M32.2999 55.3699V17.76C32.2999 16.8636 32.656 16.0037 33.2899 15.3699C33.9238 14.736 34.7836 14.3799 35.68 14.3799H40.5699C41.0133 14.3799 41.4524 14.4675 41.8619 14.6375C42.2714 14.8074 42.6433 15.0564 42.9564 15.3704C43.2695 15.6844 43.5176 16.0573 43.6864 16.4673C43.8552 16.8773 43.9414 17.3166 43.94 17.76V55.3699M52.2899 55.3699V5.87988C52.2899 4.98345 52.646 4.12386 53.2799 3.48999C53.9138 2.85612 54.7736 2.5 55.67 2.5H60.5599C61.4564 2.5 62.3162 2.85612 62.9501 3.48999C63.5839 4.12386 63.94 4.98345 63.94 5.87988V55.3699M71.29 55.3699H2.5" stroke="#E95322" stroke-width="5" stroke-linecap="round" stroke-linejoin="round"/>
</svg>
