<svg width="52" height="73" viewBox="0 0 52 73" fill="none" xmlns="http://www.w3.org/2000/svg">
<path d="M10.0807 49.2607H41.1107M39.8807 13.7007C41.0635 16.1318 41.606 18.8247 41.4569 21.5242C41.3077 24.2237 40.4717 26.8404 39.0283 29.1265C37.5848 31.4125 35.5815 33.2922 33.2083 34.5874C30.8351 35.8826 28.1705 36.5504 25.467 36.5276C22.7635 36.5048 20.1106 35.7921 17.7596 34.457C15.4086 33.122 13.4374 31.2087 12.0327 28.8987C10.628 26.5886 9.83632 23.9582 9.73273 21.2566C9.62914 18.555 10.2171 15.8715 11.4407 13.4607M11.3607 59.3505C10.1787 56.9189 9.63719 54.2259 9.78732 51.5265C9.93745 48.827 10.7743 46.2107 12.2186 43.9252C13.6629 41.6397 15.6668 39.7608 18.0405 38.4664C20.4142 37.1721 23.0789 36.5052 25.7824 36.5289C28.486 36.5527 31.1386 37.2663 33.4891 38.6022C35.8396 39.938 37.8102 41.8519 39.2141 44.1625C40.618 46.473 41.4087 49.1036 41.5113 51.8053C41.614 54.507 41.0253 57.19 39.8008 59.6005M6.07068 61.8008C10.5507 60.5908 17.5108 59.8008 25.3108 59.8008C33.6208 59.8008 40.9608 60.6808 45.4008 62.0308M45.4008 11.4907C40.9108 12.7107 33.9608 13.4907 26.1508 13.4907C17.8408 13.4907 10.5007 12.6107 6.07068 11.2507M48.8807 2.78076C43.5907 4.22076 35.3908 5.14062 26.1908 5.14062C16.3908 5.14062 7.73073 4.09073 2.50073 2.50073M2.54077 70.0906C7.83077 68.6606 16.0307 67.7407 25.2307 67.7407C35.0307 67.7407 43.7008 68.7406 48.9208 70.3806" stroke="#E95322" stroke-width="5" stroke-linecap="round" stroke-linejoin="round"/>
</svg>
