<svg width="69" height="71" viewBox="0 0 69 71" fill="none" xmlns="http://www.w3.org/2000/svg">
<path d="M46.0911 6.7132C50.0911 0.354434 57.841 1.91419 62.361 6.62419C66.881 11.3342 67.551 18.3743 62.841 22.8943M62.841 22.8943C65.7306 30.5851 65.7306 39.0634 62.841 46.7543C55.441 66.2343 34.3611 64.6942 34.3611 64.6942C34.3611 64.6942 13.2811 66.2343 5.88108 46.7543C2.99877 39.0621 2.99873 30.5864 5.88105 22.8942M62.841 22.8943C55.441 3.41426 34.3611 4.96427 34.3611 4.96427C34.3611 4.96427 13.281 3.41421 5.88105 22.8942M22.5909 6.72682C17.5909 1.35424 10.5509 1.55437 6.04091 6.26437C1.53091 10.9744 1.17105 18.3742 5.88105 22.8942M51.9128 60.2222L57.951 68.1143M16.817 60.227L10.7709 68.1143M34.361 21.1943V29.6543C34.362 31.2649 34.7333 32.8538 35.4459 34.2981C36.1585 35.7424 37.1933 37.0036 38.4708 37.9844L46.941 44.4744" stroke="#E95322" stroke-width="5" stroke-linecap="round" stroke-linejoin="round"/>
</svg>
