<svg width="69" height="80" viewBox="0 0 69 80" fill="none" xmlns="http://www.w3.org/2000/svg">
<path d="M53.6001 31.0501V13.5C53.6001 10.5826 52.4411 7.78458 50.3782 5.72168C48.3153 3.65878 45.5175 2.5 42.6001 2.5H21.3101C19.8206 2.49897 18.388 3.07187 17.3101 4.09985L4.17009 17.04C3.69518 17.5121 3.31201 18.068 3.04008 18.6799C2.68136 19.4325 2.49675 20.2562 2.50004 21.0898V66.3499C2.50004 69.2672 3.65907 72.0653 5.72197 74.1282C7.78487 76.1911 10.5827 77.3499 13.5 77.3499H42.63C44.9589 77.3462 47.2265 76.6035 49.1062 75.2288C50.986 73.854 52.3809 71.9181 53.0901 69.7M31.1901 18.22H44.1601M11.3201 31.05H44.1601M45.3201 46.07H65.5401M58.66 39.46L64.4401 43.8498C64.7819 44.1091 65.0592 44.4441 65.25 44.8284C65.4408 45.2126 65.5402 45.6359 65.5402 46.0649C65.5402 46.494 65.4408 46.9172 65.25 47.3015C65.0592 47.6858 64.7819 48.0207 64.4401 48.28L58.66 52.6699M56.1901 61.35H36.0201M42.8501 67.95L37.15 63.6199C36.798 63.3542 36.5123 63.0105 36.3157 62.6157C36.119 62.221 36.0167 61.786 36.0167 61.345C36.0167 60.9039 36.119 60.469 36.3157 60.0742C36.5123 59.6794 36.798 59.3357 37.15 59.0701L42.8501 54.74M18.9601 3.05005V11.3499C18.9614 12.3172 18.772 13.2756 18.4027 14.1697C18.0334 15.0638 17.4914 15.8763 16.8079 16.5608C16.1243 17.2453 15.3126 17.7882 14.4189 18.1587C13.5253 18.5292 12.5675 18.72 11.6001 18.72H3.07007C3.342 18.1081 3.72516 17.5521 4.20007 17.0801L17.3401 4.13989C17.8125 3.68498 18.3607 3.31625 18.9601 3.05005Z" stroke="#E95322" stroke-width="5" stroke-linecap="round" stroke-linejoin="round"/>
</svg>
