<svg width="56" height="76" viewBox="0 0 56 76" fill="none" xmlns="http://www.w3.org/2000/svg">
<path d="M9.70001 23.3198C2.50001 37.7898 -1.82988 62.9898 16.0601 70.5498C19.8619 72.1363 23.9406 72.9531 28.0601 72.9531C32.1797 72.9531 36.2583 72.1363 40.0601 70.5498C55.6601 64.0598 55.6602 40.3998 44.4202 23.5498M20.09 32.9199V60.0099M35.12 32.9199V60.0099M16.6 9.38989C16.6 5.59989 21.2599 2.5 26.9699 2.5H28.2499C33.9599 2.5 38.6201 5.59989 38.6201 9.38989M6.64 10.1299H48.57C50.8565 10.1299 52.71 11.9834 52.71 14.2699V19.1799C52.71 21.4664 50.8565 23.3199 48.57 23.3199H6.64C4.35354 23.3199 2.5 21.4664 2.5 19.1799V14.2699C2.5 11.9834 4.35354 10.1299 6.64 10.1299Z" stroke="#E95322" stroke-width="5" stroke-linecap="round" stroke-linejoin="round"/>
</svg>
