<svg width="67" height="66" viewBox="0 0 67 66" fill="none" xmlns="http://www.w3.org/2000/svg">
<path d="M34.438 35.1101L34.2181 54.74C34.2102 56.976 33.3184 59.1184 31.7373 60.6995C30.1562 62.2806 28.0141 63.1723 25.7781 63.1802C23.5403 63.1749 21.3956 62.2843 19.8124 60.7029C18.2291 59.1215 17.336 56.9777 17.3281 54.74M51.038 35.1101C51.1515 27.8895 49.8327 20.7179 47.158 14.01C41.258 -0.269951 25.778 -0.269951 19.878 14.01C17.2118 20.7201 15.8967 27.8906 16.008 35.1101M63.4381 23.3101C63.2598 22.3318 62.9748 21.3763 62.5881 20.4602C59.9881 14.4602 54.7781 9.76011 49.1281 6.61011C44.2757 3.91685 38.8178 2.50238 33.2681 2.5C26.1059 2.56265 19.1576 4.94899 13.4681 9.30005C8.85811 12.79 4.27808 17.59 2.81808 23.3C1.42808 28.8 4.67806 35.0701 10.9181 35.0701H55.6081C62.2381 35.1101 64.4381 28.8101 63.4381 23.3101Z" stroke="#E95322" stroke-width="5" stroke-linecap="round" stroke-linejoin="round"/>
</svg>
