<svg width="67" height="70" viewBox="0 0 67 70" fill="none" xmlns="http://www.w3.org/2000/svg">
<path d="M24.8919 24.8197L42.1719 42.0997M42.0719 24.7197L24.7919 41.9997M63.9519 20.1697C65.3119 34.1697 64.0519 60.5398 36.9519 67.0498C34.615 67.6096 32.1787 67.6096 29.8418 67.0498C2.7818 60.5398 1.5218 34.1997 2.8418 20.1697C3.15011 17.5168 4.23398 15.0138 5.95752 12.9736C7.68105 10.9335 9.96791 9.4469 12.532 8.69972L31.532 2.76979C32.7152 2.41007 33.9786 2.41007 35.1619 2.76979L54.1619 8.69972C56.7458 9.42777 59.0555 10.9064 60.7983 12.9483C62.5412 14.9902 63.6387 17.5035 63.9519 20.1697Z" stroke="#E95322" stroke-width="5" stroke-linecap="round" stroke-linejoin="round"/>
</svg>
