<svg width="45" height="35" viewBox="0 0 45 35" fill="none" xmlns="http://www.w3.org/2000/svg">
<path d="M3.84512 21.3303L15.6649 5.76025C16.4345 4.74699 17.428 3.92544 18.5678 3.35986C19.7075 2.79428 20.9624 2.5 22.2348 2.5C23.5071 2.5 24.7625 2.79428 25.9022 3.35986C27.042 3.92544 28.0355 4.74699 28.8051 5.76025L40.6151 21.3303C41.3643 22.3152 41.8232 23.4898 41.9403 24.7217C42.0575 25.9535 41.8283 27.1936 41.2782 28.302C40.7282 29.4104 39.8789 30.3432 38.8271 30.9949C37.7752 31.6466 36.5625 31.9912 35.3251 31.9902H9.14492C7.90823 31.9893 6.69643 31.6437 5.64541 30.9919C4.5944 30.3402 3.74579 29.4084 3.19522 28.301C2.64465 27.1937 2.41395 25.9545 2.52871 24.7231C2.64348 23.4918 3.09939 22.3169 3.84512 21.3303Z" stroke="#E95322" stroke-width="5" stroke-linecap="round" stroke-linejoin="round"/>
</svg>
