<svg width="76" height="69" viewBox="0 0 76 69" fill="none" xmlns="http://www.w3.org/2000/svg">
<path d="M11.1902 21.2132C13.3378 14.9623 17.6483 9.68453 23.3442 6.33162C29.0402 2.9787 35.7467 1.77131 42.2544 2.92732C48.762 4.08332 54.6423 7.52655 58.835 12.6361C63.0277 17.7456 65.4004 24.9819 65.2637 31.59M72.6101 23.9033L67.9102 30.0933C67.55 30.5659 67.0855 30.949 66.553 31.2126C66.0205 31.4763 65.4343 31.6133 64.8401 31.6133C64.2459 31.6133 63.6597 31.4763 63.1272 31.2126C62.5947 30.949 62.1302 30.5659 61.77 30.0933L57.0701 23.9033M63.1803 49.4033C60.6311 55.3509 56.0815 60.219 50.3199 63.1646C44.5584 66.1101 37.948 66.9472 31.6341 65.5308C25.3202 64.1144 19.7008 60.5338 15.7496 55.4094C11.7984 50.285 9.76439 43.5954 10.0001 37.1289M2.50024 44.7932L7.15015 38.6731C7.51361 38.1906 7.98409 37.7993 8.52466 37.5298C9.06523 37.2602 9.66109 37.1199 10.2651 37.1199C10.8692 37.1199 11.465 37.2602 12.0056 37.5298C12.5462 37.7993 13.0167 38.1906 13.3801 38.6731L18.03 44.7932" stroke="#E95322" stroke-width="5" stroke-linecap="round" stroke-linejoin="round"/>
</svg>
