<svg width="77" height="68" viewBox="0 0 77 68" fill="none" xmlns="http://www.w3.org/2000/svg">
<path d="M53.4863 58.5963C48.0262 62.9244 41.2835 65.3166 34.3166 65.3979C27.3497 65.4791 20.5531 63.2446 14.9936 59.0451C9.43412 54.8455 5.42665 48.9189 3.60005 42.1952C1.77346 35.4716 2.23121 28.3317 4.90157 21.8964C7.57192 15.4611 12.3037 10.0947 18.354 6.63955C24.4043 3.18445 31.4306 1.83619 38.33 2.80654C45.2295 3.77689 51.6115 7.01096 56.4741 12.0009C61.3367 16.9908 64.4045 23.4541 65.1962 30.3764C65.3568 31.8305 65.6825 34.5121 65.6418 35.9745M56.2463 26.8164L62.1365 34.5664C62.4798 35.0181 62.9226 35.3843 63.4309 35.6365C63.9392 35.8886 64.499 36.0198 65.0664 36.0198C65.6338 36.0198 66.1934 35.8886 66.7017 35.6365C67.2099 35.3843 67.6531 35.0181 67.9963 34.5664L73.8865 26.8164" stroke="#E95322" stroke-width="5" stroke-linecap="round" stroke-linejoin="round"/>
</svg>
