<svg width="76" height="72" viewBox="0 0 76 72" fill="none" xmlns="http://www.w3.org/2000/svg">
<path d="M65.61 28.74V26.8799C65.61 25.2791 65.2946 23.694 64.682 22.2151C64.0694 20.7361 63.1715 19.3922 62.0396 18.2603C60.9076 17.1283 59.5638 16.2305 58.0848 15.6179C56.6059 15.0053 55.0207 14.6899 53.4199 14.6899H41.49C39.5427 14.691 37.621 14.2464 35.8721 13.3901C34.1231 12.5339 32.5933 11.2887 31.3999 9.75L29.3999 7.21997C28.2598 5.74975 26.7984 4.55984 25.1274 3.7417C23.4565 2.92356 21.6204 2.49894 19.7599 2.5H14.7C11.466 2.5 8.36444 3.7838 6.07678 6.06958C3.78913 8.35536 2.50265 11.456 2.5 14.6899V45.8499C2.50265 49.0838 3.78913 52.1844 6.07678 54.4702C8.36444 56.756 11.466 58.04 14.7 58.04H41.7506M58.8199 57.9399L54.8199 54.8899C54.6104 54.7283 54.4406 54.5207 54.3239 54.2832C54.2071 54.0457 54.1464 53.7847 54.1464 53.52C54.1464 53.2554 54.2071 52.9941 54.3239 52.7566C54.4406 52.5191 54.6104 52.3115 54.8199 52.1499L58.8199 49.1499M67.5399 41.6463L71.4199 34.7901C71.6963 34.2855 71.8363 33.7176 71.8263 33.1424C71.8163 32.5671 71.6565 32.0044 71.3628 31.5098C71.069 31.0151 70.6514 30.6056 70.1511 30.3216C69.6508 30.0375 69.0852 29.8887 68.5099 29.8899H16.8199C15.4042 29.8866 14.0211 30.3157 12.856 31.1199C11.6908 31.9241 10.799 33.065 10.2999 34.3899L3.45996 50.5999M56.8998 68.8699C56.8998 68.8699 67.7298 69.66 71.5298 59.65C73.01 55.6973 73.01 51.3426 71.5298 47.3899C67.7298 37.3899 56.8998 38.18 56.8998 38.18C56.8998 38.18 46.0698 37.3799 42.2698 47.3899C40.7797 51.3408 40.7797 55.6991 42.2698 59.65C46.0698 69.66 56.8998 68.8699 56.8998 68.8699Z" stroke="#E95322" stroke-width="5" stroke-linecap="round" stroke-linejoin="round"/>
</svg>
