<svg width="50" height="72" viewBox="0 0 50 72" fill="none" xmlns="http://www.w3.org/2000/svg">
<path d="M24.9324 25C31.1456 25 36.1824 19.9632 36.1824 13.75C36.1824 7.5368 31.1456 2.5 24.9324 2.5C18.7192 2.5 13.6824 7.5368 13.6824 13.75C13.6824 19.9632 18.7192 25 24.9324 25Z" stroke="#E95322" stroke-width="5" stroke-linecap="round" stroke-linejoin="round"/>
<path d="M45.6423 57.8599C40.2423 69.9899 24.8625 68.9901 24.8625 68.9901C24.8625 68.9901 9.47252 69.9499 4.08252 57.8599C3.03935 55.5341 2.5 53.0139 2.5 50.4649C2.5 47.9159 3.03935 45.3959 4.08252 43.0701C9.47252 30.9401 24.8625 31.94 24.8625 31.94C24.8625 31.94 40.2423 30.9801 45.6423 43.0701C46.6855 45.3959 47.2249 47.9159 47.2249 50.4649C47.2249 53.0139 46.6855 55.5341 45.6423 57.8599Z" stroke="#E95322" stroke-width="5" stroke-linecap="round" stroke-linejoin="round"/>
</svg>
