<svg width="60" height="72" viewBox="0 0 60 72" fill="none" xmlns="http://www.w3.org/2000/svg">
<path d="M50.8424 17.93V30.22M56.9925 24.08H44.6925M36.1824 13.75C36.1824 19.9632 31.1457 25 24.9325 25C18.7192 25 13.6825 19.9632 13.6825 13.75C13.6825 7.5368 18.7192 2.5 24.9325 2.5C31.1457 2.5 36.1824 7.5368 36.1824 13.75ZM24.8625 68.9901C24.8625 68.9901 40.2423 69.9899 45.6423 57.8599C46.6855 55.5341 47.2249 53.0139 47.2249 50.4649C47.2249 47.9159 46.6855 45.3959 45.6423 43.0701C40.2423 30.9801 24.8625 31.94 24.8625 31.94C24.8625 31.94 9.48252 30.9401 4.08252 43.0701C3.03935 45.3959 2.5 47.9159 2.5 50.4649C2.5 53.0139 3.03935 55.5341 4.08252 57.8599C9.48252 69.9499 24.8625 68.9901 24.8625 68.9901Z" stroke="#E95322" stroke-width="5" stroke-linecap="round" stroke-linejoin="round"/>
</svg>
