<svg width="74" height="66" viewBox="0 0 74 66" fill="none" xmlns="http://www.w3.org/2000/svg">
<path d="M36.7837 2.5V35.22M45.5938 26.8101L40.6836 33.2801C40.2266 33.8829 39.6365 34.3717 38.959 34.7083C38.2815 35.0449 37.5353 35.22 36.7788 35.22C36.0223 35.22 35.2761 35.0449 34.5986 34.7083C33.9211 34.3717 33.3305 33.8829 32.8735 33.2801L27.9639 26.8101M58.3337 48.59H15.2338M23.0937 15.3799C0.753685 21.3799 2.53363 38.3101 2.53363 38.3101C2.53363 38.3101 0.753685 55.31 23.0937 61.25C32.0662 63.5699 41.4811 63.5699 50.4535 61.25C72.7835 55.25 71.0136 38.3101 71.0136 38.3101C71.0136 38.3101 72.7835 21.3099 50.4535 15.3799" stroke="#E95322" stroke-width="5" stroke-linecap="round" stroke-linejoin="round"/>
</svg>
