<svg width="74" height="76" viewBox="0 0 74 76" fill="none" xmlns="http://www.w3.org/2000/svg">
<path d="M22.5239 32.2922L29.8438 41.8423C30.7306 43.0014 31.8727 43.9405 33.1812 44.5869C34.4896 45.2333 35.9292 45.5696 37.3887 45.5696C38.8481 45.5696 40.2882 45.2333 41.5967 44.5869C42.9052 43.9405 44.0468 43.0014 44.9336 41.8423L52.2539 32.2922M2.53363 37.6321C2.53363 37.6321 0.753685 61.8023 23.0937 70.2823C31.91 73.5919 41.6275 73.5919 50.4438 70.2823C72.7838 61.8023 71.0038 37.6321 71.0038 37.6321C71.0038 37.6321 72.7838 13.4622 50.4438 4.98223C41.6275 1.67259 31.91 1.67259 23.0937 4.98223C0.753685 13.4622 2.53363 37.6321 2.53363 37.6321Z" stroke="#E95322" stroke-width="5" stroke-linecap="round" stroke-linejoin="round"/>
</svg>
