<svg width="74" height="74" viewBox="0 0 74 74" fill="none" xmlns="http://www.w3.org/2000/svg">
<path d="M49.2487 20.1514C49.7249 21.743 50.8005 23.0874 52.2487 23.9014C53.7252 24.6702 55.3749 25.0457 57.0387 24.9915C61.7687 25.0815 65.9186 25.8714 68.9786 29.8714C72.2986 34.2314 72.4186 40.1815 68.4186 44.1815L61.4786 51.1214L59.7785 52.9715C61.7601 52.4465 63.8602 52.5924 65.7501 53.3866C67.6401 54.1807 69.2138 55.5783 70.2257 57.3612C71.2376 59.144 71.631 61.2119 71.3439 63.2418C71.0568 65.2716 70.1055 67.1491 68.6388 68.5814L68.5485 68.5015C67.1131 69.964 65.2343 70.9101 63.2047 71.1925C61.1751 71.4749 59.1088 71.0777 57.3287 70.0626C55.5486 69.0475 54.1544 67.4717 53.3639 65.5811C52.5734 63.6906 52.431 61.5915 52.9586 59.6114L51.1085 61.3116L44.1686 68.2515C40.1986 72.2215 34.2185 72.1416 29.8585 68.8116C25.8485 65.7616 25.0786 61.6114 24.9786 56.8814C25.0515 55.2107 24.6787 53.5506 23.8986 52.0714C23.0877 50.6245 21.7471 49.549 20.1588 49.0714C17.8488 48.4014 15.7286 49.6516 13.4186 49.5516C8.94859 49.3416 4.56855 44.8314 3.12855 40.8314C2.44638 38.9291 2.31647 36.8728 2.75355 34.8997C3.19062 32.9267 4.17705 31.1177 5.59876 29.6815L12.5387 22.7415L14.2389 20.8814C12.2572 21.4064 10.1572 21.2605 8.26722 20.4664C6.37725 19.6722 4.80357 18.2747 3.79163 16.4918C2.7797 14.7089 2.38635 12.641 2.67347 10.6112C2.96059 8.58133 3.91183 6.70384 5.37855 5.27157L5.46888 5.36141C6.90393 3.90094 8.7817 2.95623 10.8097 2.67415C12.8377 2.39207 14.9016 2.78844 16.6808 3.80184C18.4599 4.81524 19.8543 6.38871 20.6461 8.27694C21.4379 10.1652 21.5829 12.2623 21.0587 14.2415L22.9088 12.5416L29.8488 5.6014C31.2858 4.18105 33.0942 3.19487 35.0665 2.75619C37.0389 2.3175 39.095 2.44411 40.9987 3.12142C44.9887 4.57142 49.5089 8.95147 49.7189 13.4215C49.8289 15.7315 48.5687 17.8414 49.2487 20.1514Z" stroke="#E95322" stroke-width="5" stroke-linecap="round" stroke-linejoin="round"/>
</svg>
