<svg width="74" height="74" viewBox="0 0 74 74" fill="none" xmlns="http://www.w3.org/2000/svg">
<path d="M36.7837 35.2202V2.50022M27.9639 10.9102L32.8735 4.44019C33.3305 3.83731 33.9211 3.34856 34.5986 3.01196C35.2761 2.67537 36.0223 2.5 36.7788 2.5C37.5353 2.5 38.2815 2.67537 38.959 3.01196C39.6365 3.34856 40.2266 3.83731 40.6836 4.44019L45.5938 10.9102M58.3337 56.5402H15.2338M23.0937 23.3303C0.753685 29.3303 2.53363 46.2703 2.53363 46.2703C2.53363 46.2703 0.753685 63.2702 23.0937 69.2002C32.0649 71.5302 41.4824 71.5302 50.4535 69.2002C72.7835 63.2002 71.0136 46.2703 71.0136 46.2703C71.0136 46.2703 72.7835 29.2703 50.4535 23.3303" stroke="#E95322" stroke-width="5" stroke-linecap="round" stroke-linejoin="round"/>
</svg>
