<svg width="68" height="65" viewBox="0 0 68 65" fill="none" xmlns="http://www.w3.org/2000/svg">
<path d="M54.8632 14.9002V22.9061M5.40964 48.174H14.6443M54.8632 48.174H61.9551M20.5447 10.939C20.5447 1.98261 28.1568 2.6147 33.3906 2.52172C39.1518 2.42875 44.7736 2.33384 46.2264 10.939M48.1468 35.4677C48.1468 43.6434 41.763 50.271 33.8881 50.271C26.0132 50.271 19.6294 43.6434 19.6294 35.4677C19.6294 27.2921 26.0132 20.6644 33.8881 20.6644C41.763 20.6644 48.1468 27.2921 48.1468 35.4677ZM39.4603 35.4677C39.4603 38.6627 36.9655 41.2527 33.8881 41.2527C30.8107 41.2527 28.316 38.6627 28.316 35.4677C28.316 32.2728 30.8107 29.6828 33.8881 29.6828C36.9655 29.6828 39.4603 32.2728 39.4603 35.4677ZM65 35.4677C65 53.2909 50.8 61.8222 33.3906 61.8222C15.9813 61.8222 2.5 53.2909 2.5 35.4677C2.5 17.6445 16.4788 9.32224 33.8881 9.32224C51.2975 9.32224 65 17.6445 65 35.4677Z" stroke="#E95322" stroke-width="5" stroke-linecap="round" stroke-linejoin="round"/>
</svg>
