<svg width="64" height="64" viewBox="0 0 64 64" fill="none" xmlns="http://www.w3.org/2000/svg">
<path d="M4.23393 21.0581L3.73412 20.2129C3.3832 19.6214 3.25759 18.9269 3.37963 18.253C3.50167 17.5791 3.86345 16.9692 4.40052 16.5327L5.15022 15.9058C5.70104 15.481 6.06799 14.8679 6.17755 14.1888L6.34414 13.2344C6.46162 12.5824 6.79957 11.9882 7.30338 11.548C7.80719 11.1078 8.44746 10.8476 9.12074 10.8087H10.1203C10.8238 10.8281 11.5086 10.5845 12.0362 10.1272L12.7859 9.50029C13.3198 9.06347 13.9928 8.82413 14.6879 8.82413C15.3829 8.82413 16.0559 9.06347 16.5898 9.50029M41.5793 37.7949C41.0299 38.8416 40.0993 39.6469 38.9727 40.0509C37.8461 40.455 36.6058 40.4283 35.4985 39.9757L33.8603 39.3761C32.6823 38.9752 31.4011 38.9752 30.223 39.3761L28.557 39.9757C27.436 40.4024 26.1968 40.4227 25.0619 40.033C23.9271 39.6433 22.9709 38.869 22.3652 37.8495M16.5898 10.0453L16.8953 8.32767C17.1114 7.12445 17.7539 6.03485 18.7091 5.2517C19.6643 4.46856 20.8708 4.04276 22.1153 4.04847H23.8923C25.1333 4.04346 26.3327 3.60858 27.2798 2.82128L28.6403 1.7039C29.5966 0.925956 30.7997 0.5 32.0417 0.5C33.2836 0.5 34.4867 0.925956 35.443 1.7039L36.8035 2.82128C37.7481 3.61273 38.9492 4.04818 40.191 4.04847H41.968C43.2096 4.05344 44.4105 4.48371 45.3634 5.26501C46.3164 6.04632 46.9617 7.12918 47.188 8.32767L47.4935 10.0453C47.692 11.2539 48.3339 12.3492 49.2983 13.1253L50.6311 14.2433C51.2965 14.7781 51.8171 15.4659 52.1465 16.2458C52.4759 17.0258 52.6039 17.8733 52.5191 18.7135M11.5919 18.9045C11.4695 18.0388 11.5736 17.1565 11.8941 16.341C12.2147 15.5256 12.7414 14.8039 13.4245 14.2433M15.507 42.3196C15.507 42.3196 24.8364 42.3197 25.3917 63.5M30.0841 51.1788C28.9735 41.829 23.8923 39.458 23.8923 39.458M40.4964 33.7333L40.3021 34.7688C40.1788 35.4835 40.314 36.2187 40.6841 36.8459C41.0543 37.4731 41.6361 37.953 42.329 38.2035L43.3008 38.5309C43.9922 38.7955 44.577 39.2739 44.9668 39.8939L45.4666 40.7936C45.8461 41.4138 46.4308 41.8873 47.1231 42.1353C47.8153 42.3833 48.5733 42.3909 49.2705 42.1566L50.2701 41.8019C50.9608 41.5562 51.7174 41.5562 52.4081 41.8019L53.4077 42.1566C54.1004 42.3944 54.8558 42.3879 55.5447 42.1393C56.2335 41.8907 56.8129 41.4154 57.1838 40.7936L57.7114 39.8939C58.0825 39.269 58.6608 38.7879 59.3496 38.5309L60.3492 38.2035C61.042 37.953 61.6239 37.4731 61.994 36.8459C62.3642 36.2187 62.4993 35.4835 62.3761 34.7688L62.1817 33.7333C62.0439 33.0193 62.1825 32.2805 62.5704 31.6616L63.0702 30.7618C63.4448 30.137 63.5807 29.4017 63.4535 28.6874C63.3264 27.9732 62.9444 27.327 62.3761 26.864L61.5708 26.2098C61.0084 25.7441 60.6341 25.0965 60.5158 24.3836L60.3214 23.3747C60.1921 22.6621 59.8134 22.0164 59.2507 21.5486C58.688 21.0808 57.9766 20.8204 57.2393 20.8125H56.1843C55.4442 20.8206 54.7255 20.5693 54.1573 20.1038L53.3521 19.4223C52.7876 18.9587 52.075 18.7049 51.3391 18.7049C50.6031 18.7049 49.8906 18.9587 49.326 19.4223L48.5208 20.1038C47.9502 20.5651 47.2331 20.8159 46.4939 20.8125H45.4388C44.7 20.815 43.9858 21.0732 43.422 21.5419C42.8582 22.0107 42.481 22.6597 42.3567 23.3747L42.1624 24.3836C42.044 25.0965 41.6698 25.7441 41.1073 26.2098L40.3021 26.864M59.7661 21.0581L60.2658 20.2129C60.6168 19.6214 60.7424 18.9269 60.6204 18.253C60.4983 17.5791 60.1366 16.9692 59.5995 16.5327L58.8498 15.9058C58.3231 15.4608 57.9618 14.8571 57.8225 14.1888L57.6559 13.2344C57.5431 12.5803 57.2065 11.9838 56.7017 11.5427C56.197 11.1017 55.5541 10.8428 54.8793 10.8087H53.8797C53.1857 10.8212 52.512 10.5781 51.9916 10.1272L51.2141 9.50029C50.7039 9.04822 50.0411 8.79751 49.3538 8.79751C48.6665 8.79751 48.0037 9.04822 47.4935 9.50029M48.4931 42.3196C48.4931 42.3196 39.1637 42.3197 38.6361 63.5M33.9159 51.1788C35.0265 41.829 40.1077 39.458 40.1077 39.458M14.7018 19.4223L15.507 20.1038C16.0679 20.5632 16.7756 20.8141 17.5061 20.8125H18.5612C19.3018 20.8193 20.017 21.0785 20.5843 21.5459C21.1516 22.0134 21.5358 22.6598 21.671 23.3747L21.8376 24.3836C21.9679 25.0987 22.3514 25.7454 22.9205 26.2098L23.7257 26.864C24.2893 27.3302 24.6678 27.976 24.7947 28.6888C24.9216 29.4015 24.7889 30.1355 24.4199 30.7618L23.8923 31.6616C23.526 32.2884 23.3981 33.0226 23.5313 33.7333L23.6979 34.7688C23.8268 35.4841 23.694 36.2214 23.3231 36.8499C22.9523 37.4783 22.3671 37.9575 21.671 38.2035L20.6992 38.5309C20.0104 38.7879 19.4322 39.269 19.061 39.8939L18.5334 40.7936C18.1576 41.4175 17.5733 41.8941 16.8797 42.1426C16.1862 42.3911 15.4263 42.3962 14.7295 42.1566L13.7577 41.8019C13.0574 41.5565 12.2922 41.5565 11.5919 41.8019L10.6201 42.1566C9.92334 42.3962 9.16349 42.3911 8.46994 42.1426C7.77639 41.8941 7.19196 41.4175 6.81616 40.7936L6.28864 39.8939C5.91745 39.269 5.3392 38.7879 4.65041 38.5309L3.65083 38.2035C2.95989 37.9525 2.38095 37.4712 2.01544 36.8432C1.64992 36.2152 1.52114 35.4807 1.65167 34.7688L1.8183 33.7333C1.95153 33.0226 1.82361 32.2884 1.45733 31.6616L0.929768 30.7618C0.555159 30.137 0.419284 29.4017 0.546467 28.6874C0.673651 27.9732 1.05559 27.327 1.62392 26.864L2.42916 26.2098C2.98933 25.7381 3.37089 25.0948 3.51203 24.3836L3.67862 23.3747C3.81384 22.6598 4.198 22.0134 4.76531 21.5459C5.33263 21.0785 6.0478 20.8193 6.78841 20.8125H7.84353C8.57402 20.8141 9.28178 20.5632 9.84269 20.1038L10.6479 19.4223C11.2191 18.9616 11.9355 18.7095 12.6748 18.7095C13.4141 18.7095 14.1305 18.9616 14.7018 19.4223Z" stroke="#E95322" stroke-linecap="round" stroke-linejoin="round"/>
</svg>
