<svg width="77" height="83" viewBox="0 0 77 83" fill="none" xmlns="http://www.w3.org/2000/svg">
<path d="M15.8763 32.9655L64.6763 16.7155C65.9782 16.2795 67.0543 15.3454 67.6691 14.1178C68.2838 12.8902 68.387 11.469 67.9562 10.1654C67.4907 8.76877 66.7547 7.47752 65.7902 6.36535C64.8256 5.25319 63.6515 4.34184 62.3348 3.68347C61.018 3.0251 59.5845 2.63254 58.116 2.5282C56.6475 2.42385 55.1729 2.60974 53.7763 3.07532L12.3262 16.8754C9.50536 17.8157 7.17322 19.8374 5.84195 22.4962C4.51068 25.155 4.28918 28.2336 5.22623 31.0555L6.86625 35.9655M6.79623 20.9553L24.9662 29.9353M23.8562 13.0353L44.5762 23.4053M41.0362 7.31531L61.7562 17.6853M30.9962 47.9254V58.4854C31.0107 59.1804 31.2061 59.8596 31.5631 60.4561C31.9201 61.0526 32.4264 61.5456 33.0321 61.8868C33.6378 62.228 34.3218 62.4054 35.017 62.4017C35.7121 62.3979 36.3943 62.213 36.9962 61.8653L45.6863 56.5953C46.2585 56.235 46.7301 55.7356 47.0569 55.1436C47.3837 54.5516 47.5551 53.8865 47.5551 53.2103C47.5551 52.5341 47.3837 51.8691 47.0569 51.2772C46.7301 50.6852 46.2585 50.1855 45.6863 49.8253L36.9962 44.5455C36.3943 44.1977 35.7121 44.0129 35.017 44.0091C34.3218 44.0053 33.6378 44.1828 33.0321 44.524C32.4264 44.8652 31.9201 45.3582 31.5631 45.9547C31.2061 46.5511 31.0107 47.2304 30.9962 47.9254ZM69.2562 36.2653C68.4926 35.3111 67.5205 34.5446 66.4145 34.0246C65.3086 33.5045 64.0981 33.2448 62.8762 33.2653H13.1963C11.7633 33.258 10.3529 33.6227 9.10313 34.3239C7.85336 35.025 6.80698 36.0386 6.06627 37.2653C3.54627 41.5253 2.71627 46.6153 2.56627 51.2653C2.30627 59.1753 2.46623 69.1653 10.7762 74.4953C18.1962 79.2453 28.6362 80.3251 37.7762 80.3451C51.7762 80.3451 69.6562 77.9351 72.3762 64.5951C73.9862 56.4751 74.8462 43.5253 69.2562 36.2653Z" stroke="#E95322" stroke-width="5" stroke-linecap="round" stroke-linejoin="round"/>
</svg>
