<svg width="75" height="70" viewBox="0 0 75 70" fill="none" xmlns="http://www.w3.org/2000/svg">
<path d="M41.67 46.24C43.2063 44.7065 44.4251 42.8852 45.2567 40.8801C46.0883 38.8751 46.5164 36.7256 46.5164 34.5549C46.5164 32.3843 46.0883 30.235 45.2567 28.23C44.4251 26.2249 43.2063 24.4034 41.67 22.8699M50.77 55.0601C56.2048 49.622 59.2578 42.2483 59.2578 34.5601C59.2578 26.8718 56.2048 19.4981 50.77 14.0601M58.29 66.5999C62.5031 62.3934 65.8455 57.3977 68.126 51.8982C70.4065 46.3987 71.5803 40.5036 71.5803 34.55C71.5803 28.5965 70.4065 22.7014 68.126 17.2019C65.8455 11.7024 62.5031 6.70649 58.29 2.5M23.59 52.0601C24.2394 52.5917 25.0186 52.941 25.8476 53.072C26.6766 53.2031 27.5255 53.1111 28.3073 52.8057C29.089 52.5003 29.7755 51.9925 30.2961 51.3342C30.8168 50.676 31.1529 49.8912 31.27 49.0601C31.8519 44.2491 32.1291 39.4061 32.1 34.5601C32.1337 29.7239 31.8565 24.8904 31.27 20.0899C31.154 19.257 30.818 18.4702 30.2968 17.8103C29.7755 17.1505 29.0877 16.6416 28.3043 16.336C27.5209 16.0303 26.6702 15.939 25.8398 16.0715C25.0094 16.2041 24.2294 16.5556 23.58 17.0899L12.44 26.19C10.8186 27.5186 8.78625 28.2432 6.69 28.24H4.06C3.2 28.24 2.5 31.0701 2.5 34.5501V34.6599C2.5 38.1499 3.2 40.97 4.06 40.97H6.73999C8.82285 40.9597 10.8459 41.6658 12.47 42.97L23.59 52.0601Z" stroke="#E95322" stroke-width="5" stroke-linecap="round" stroke-linejoin="round"/>
</svg>
