<svg width="80" height="80" viewBox="0 0 80 80" fill="none" xmlns="http://www.w3.org/2000/svg">
<path d="M74.8484 52.3963C72.9976 57.0776 70.2041 61.3299 66.641 64.8899C60.7696 70.76 53.0827 74.4759 44.8292 75.4341C36.5756 76.3922 28.2401 74.5363 21.1763 70.1678C20.7396 69.8846 20.225 69.7455 19.7049 69.7703C19.1848 69.795 18.6855 69.9822 18.2778 70.3056C14.8549 73.0616 6.00765 79.6762 2.97115 76.6445C-0.0653505 73.6129 6.44935 64.6556 9.2098 61.2105C9.52329 60.803 9.70222 60.3084 9.72199 59.7949C9.74177 59.2815 9.60137 58.7746 9.32016 58.3442C4.70222 50.9323 2.8773 42.1213 4.17211 33.4887C5.46692 24.856 9.7969 16.9653 16.3869 11.2291C23.1098 5.3959 31.7168 2.18359 40.6236 2.18359C49.5305 2.18359 58.1376 5.3959 64.8605 11.2291C68.6518 14.5459 71.721 18.6043 73.8781 23.153C76.0352 27.7018 77.2342 32.6441 77.4011 37.6742C77.568 42.7042 76.6992 47.715 74.8484 52.3963Z" stroke="#E95322" stroke-width="4.36703" stroke-linecap="round" stroke-linejoin="round"/>
</svg>
