<svg width="79" height="77" viewBox="0 0 79 77" fill="none" xmlns="http://www.w3.org/2000/svg">
<path d="M23.7056 27.2546C27.3457 27.252 30.9503 27.9669 34.314 29.3584C37.6776 30.7499 40.7342 32.7908 43.3086 35.3643C45.883 37.9378 47.9252 40.9935 49.3179 44.3567C50.7106 47.7199 51.4266 51.3245 51.4253 54.9646M23.7056 15.9646C34.049 15.9646 43.9688 20.0735 51.2827 27.3875C58.5966 34.7014 62.7056 44.6212 62.7056 54.9646M22.8555 38.8748C24.9688 38.8734 27.0614 39.2886 29.0142 40.0967C30.9669 40.9048 32.7415 42.0901 34.2358 43.5845C35.7302 45.0788 36.915 46.8529 37.7231 48.8057C38.5313 50.7584 38.9466 52.8513 38.9453 54.9646M21.6353 49.2747C23.1443 49.2747 24.5916 49.8741 25.6587 50.9412C26.7258 52.0082 27.3252 53.4555 27.3252 54.9646M39.1551 73.9847C39.1551 73.9847 64.3754 75.8347 73.2254 52.5347C76.6855 43.3326 76.6855 33.1869 73.2254 23.9847C64.3754 0.684696 39.1551 2.53474 39.1551 2.53474C39.1551 2.53474 13.945 0.684696 5.09504 23.9847C1.63499 33.1869 1.63499 43.3326 5.09504 52.5347C13.945 75.8347 39.1551 73.9847 39.1551 73.9847Z" stroke="#E95322" stroke-width="5" stroke-linecap="round" stroke-linejoin="round"/>
</svg>
