<svg width="56" height="60" viewBox="0 0 56 60" fill="none" xmlns="http://www.w3.org/2000/svg">
<path d="M26.3408 17.153L35.981 5.153C37.1774 3.68018 38.9082 2.74071 40.7952 2.54021C42.6821 2.33971 44.5715 2.89442 46.0508 4.08294C47.5213 5.28093 48.459 7.01149 48.6594 8.89763C48.8598 10.7838 48.3068 12.6727 47.1208 14.153L37.481 26.153M6.9409 57.053H53.4209M26.451 16.9732L5.2711 43.1932L2.68101 51.6631C2.43905 52.4562 2.43971 53.3035 2.68272 54.0962C2.92572 54.889 3.39994 55.5911 4.04478 56.1124C4.68962 56.6336 5.47553 56.9501 6.30161 57.0215C7.12769 57.093 7.95628 56.9158 8.68101 56.513L16.411 52.1932L37.5809 25.9732C38.1732 25.2423 38.6156 24.4017 38.8824 23.4996C39.1493 22.5974 39.2352 21.6516 39.1358 20.7161C39.0364 19.7806 38.7535 18.8738 38.3031 18.0479C37.8526 17.222 37.2437 16.4932 36.5111 15.9031C35.7805 15.3124 34.9405 14.8715 34.0394 14.6055C33.1383 14.3396 32.1934 14.2537 31.2591 14.3531C30.3248 14.4524 29.4194 14.7351 28.5943 15.1846C27.7693 15.6342 27.041 16.242 26.451 16.9732Z" stroke="#E95322" stroke-width="5" stroke-linecap="round" stroke-linejoin="round"/>
</svg>
