<svg width="65" height="65" viewBox="0 0 65 65" fill="none" xmlns="http://www.w3.org/2000/svg">
<path d="M28.1075 20.3741V36.4841M36.1575 28.3341H20.0475M60.3077 53.174L48.7676 45.434C48.4487 45.2222 48.0668 45.1257 47.6856 45.1605C47.3044 45.1953 46.9465 45.3594 46.6712 45.6254C46.3959 45.8914 46.2196 46.2436 46.1717 46.6234C46.1237 47.0032 46.2069 47.3879 46.4075 47.714L53.7376 59.524C54.089 60.0827 54.5521 60.5627 55.0977 60.934C56.1267 61.6248 57.3879 61.8786 58.6041 61.6395C59.8202 61.4004 60.8917 60.6881 61.5826 59.6591C62.2735 58.63 62.5272 57.3686 62.2881 56.1525C62.049 54.9363 61.3367 53.8648 60.3077 53.174ZM28.1076 52.4641C28.1076 52.4641 45.7174 53.7641 51.8974 37.4641C54.3174 31.0377 54.3174 23.9505 51.8974 17.5241C45.7174 1.24411 28.1076 2.52411 28.1076 2.52411C28.1076 2.52411 10.4875 1.23411 4.30754 17.5241C1.89749 23.9523 1.89749 31.0359 4.30754 37.4641C10.4875 53.7641 28.1076 52.4641 28.1076 52.4641Z" stroke="#E95322" stroke-width="5" stroke-linecap="round" stroke-linejoin="round"/>
</svg>
