<svg width="65" height="65" viewBox="0 0 65 65" fill="none" xmlns="http://www.w3.org/2000/svg">
<path d="M36.165 28.3341H20.055M60.345 53.174L48.815 45.434C48.496 45.2222 48.1144 45.1257 47.7332 45.1605C47.3519 45.1953 46.9939 45.3594 46.7185 45.6254C46.4432 45.8914 46.267 46.2436 46.219 46.6234C46.1711 47.0032 46.2545 47.3879 46.4551 47.714L53.7749 59.524C54.1338 60.0801 54.5996 60.5593 55.145 60.934C56.1741 61.6235 57.4349 61.8762 58.6502 61.6361C59.8654 61.3961 60.9355 60.683 61.625 59.6539C62.3146 58.6249 62.567 57.364 62.3269 56.1488C62.0869 54.9336 61.374 53.8635 60.345 53.174ZM28.1051 52.4641C28.1051 52.4641 45.7251 53.7641 51.9051 37.4641C54.3152 31.0359 54.3152 23.9523 51.9051 17.5241C45.7251 1.24411 28.1051 2.52411 28.1051 2.52411C28.1051 2.52411 10.495 1.23411 4.31505 17.5241C1.89498 23.9505 1.89498 31.0377 4.31505 37.4641C10.495 53.7641 28.1051 52.4641 28.1051 52.4641Z" stroke="#E95322" stroke-width="5" stroke-linecap="round" stroke-linejoin="round"/>
</svg>
